<svg xmlns="http://www.w3.org/2000/svg" viewBox="0 0 380 126">
  <g style="isolation: isolate">
    <g id="Layer_1" data-name="Layer 1">
      <g>
        <g>
          <path d="M222.54,17.24a58.43,58.43,0,0,0-4.62,14.48c-7.24-.61-8-.81-12.07,3.21-3.41,2.82-6,.81-9.64,1s-3,3-3.62,5.43c-1,3.21-8.6,12.59-12.27,19.1-6.23,11-1.61,25.53,10.25,33.36,12.07,7.45,27.35,1.82,31-1.2s9.86-9.45,14.88-10.45,29.56-3,29.56-3,4.82-9.85,5.42-14.87A39.45,39.45,0,0,1,273,56.44s9-1.2,11.06-5,3-17.08,3-17.08Z" style="fill: #ff8700"/>
          <path d="M272.81,56.69c-6.9.81-12.27,3.16-18.32,5.52-3.86,1.51-5.2.17-7.89-4.54s-4.53-2.85-4.87,3.36-.34,4.37-2.69-1.18a11.45,11.45,0,0,0-7.89-6.54s7.57,13.26,3.19,17.12-1.51-3.19-2.69-8.39-3.52-11.59-9.73-12.26c-4.67-.51-26.65,25.78-37.32,38.91a30.67,30.67,0,0,0,6,5.14c12.07,7.45,27.35,1.82,31-1.2s9.86-9.45,14.88-10.45,29.56-3,29.56-3,4.82-9.85,5.42-14.87a41.64,41.64,0,0,1,1.53-7.61Z" style="fill: #ff8700;mix-blend-mode: multiply"/>
          <path d="M220.91,46.26C213.69,38.36,211,34,215.2,33.83s4.54,5.87,10.24,11.92,4,7.89,19,5.54,20.37-4.95,20.37-4.95-22.72,3.78-29.44,1.76S220.91,36,220.4,32.32c-.33-3.87,1.52-4.87,3.53-1.85s-1.68-4.7,1.35-2.35c2.81,2.19,32.92,22.37,54.44,9.46L222.54,17.24a58.43,58.43,0,0,0-4.62,14.48c-7.24-.61-8-.81-12.07,3.21-3.41,2.82-6,.81-9.64,1s-3,3-3.62,5.43c-.46,1.46-2.28,4.2-4.47,7.35C194.59,44.69,207.07,39.34,220.91,46.26Z" style="fill: #ff8700;mix-blend-mode: multiply"/>
          <path d="M223.46,82.19c10.42-16,5.79-29.14-3.67-36.28a24,24,0,0,0-19.89-4.06c-3.1.65-7.48,3-11.69,6.75-2.65,3.82-5.87,8.27-7.89,11.87-6.23,11-1.61,25.53,10.25,33.36A24.1,24.1,0,0,0,198.68,97C208.76,97.18,216.88,92.3,223.46,82.19Z" style="fill: #a7a8ab"/>
          <g style="opacity: 0.5;mix-blend-mode: multiply">
            <path d="M221.44,80.26c9.17-14,5.1-25.4-3.22-31.63a21.19,21.19,0,0,0-17.46-3.53c-2.74.57-6.58,2.62-10.29,5.88-2.32,3.33-5.15,7.21-6.93,10.34-5.47,9.64-1.41,22.26,9,29.09a21.42,21.42,0,0,0,7.13,2.74C208.54,93.33,215.67,89.07,221.44,80.26Z" style="fill: #a7a8ab"/>
          </g>
          <g style="mix-blend-mode: multiply">
            <path d="M184.55,63.66c1.77-3.13,4.6-7,6.92-10.35,3.71-3.25,7.56-5.3,10.28-5.87A21.19,21.19,0,0,1,219.23,51a21.67,21.67,0,0,1,6.34,7.41A21.21,21.21,0,0,0,200.76,45.1c-2.74.57-6.58,2.62-10.29,5.88-2.32,3.33-5.15,7.21-6.93,10.34-3.33,5.88-3.11,12.86-.07,19A19.55,19.55,0,0,1,184.55,63.66Z" style="fill: #a7a8ab"/>
            <path d="M192.55,90.41a21.42,21.42,0,0,0,7.13,2.74c8.86.18,16-4.08,21.76-12.89,5.52-8.41,6.23-15.9,4.13-21.88A21.67,21.67,0,0,0,219.23,51a21.19,21.19,0,0,0-17.48-3.53c-2.72.57-6.57,2.62-10.28,5.87-2.32,3.34-5.15,7.22-6.92,10.35a19.55,19.55,0,0,0-1.08,16.63A26,26,0,0,0,192.55,90.41Z" style="fill: #a7a8ab;opacity: 0.5"/>
          </g>
          <g style="mix-blend-mode: multiply">
            <path d="M218.73,28.44S217,31.08,228,42.23c7.34,6.75,7.34,6,16.87,5.28s20-1.17,20-1.17-19.66,3.37-28.6,3.67c-4.84,0-18.21-14.14-18.27-18.29A17.2,17.2,0,0,1,218.73,28.44Z" style="fill: #86d018"/>
            <path d="M229.08,49.26A43.76,43.76,0,0,0,233,57.41c2.57,4.08,6.41,13-4.3,29a28.23,28.23,0,0,0,8.73-18.87C237.7,61.61,233.5,56.83,229.08,49.26Z" style="fill: #86d018"/>
            <path d="M272.81,56.69s-12.82,1.7-21.28,7.76c8.46-3,20.58-6.06,20.58-6.06Z" style="fill: #86d018"/>
          </g>
          <path d="M289,30.91c-1.41,7.3-17.6,10.32-36.15,6.74S220.4,25.27,221.8,18,239.39,7.66,258,11.23,290.42,23.62,289,30.91Z" style="fill: #a7a8ab"/>
          <g>
            <path d="M257.38,14.05c-16.78-3.23-31.22-1.49-32.26,3.89a2.66,2.66,0,0,0,0,.75c3.49-4,16.52-5.05,31.38-2.19,16,3.08,28.35,9.57,28.55,14.83a3.61,3.61,0,0,0,.87-1.69C286.92,24.26,274.16,17.28,257.38,14.05Z" style="fill: #a7a8ab;opacity: 0.5;mix-blend-mode: multiply"/>
            <path d="M256.46,16.5c-14.86-2.86-27.89-1.82-31.38,2.19.2,5.26,12.54,11.75,28.54,14.83,14.87,2.86,27.89,1.82,31.39-2.19C284.81,26.07,272.46,19.58,256.46,16.5Z" style="fill: #a7a8ab;opacity: 0.5;mix-blend-mode: multiply"/>
            <path d="M256.46,16.5c-14.86-2.86-27.89-1.82-31.38,2.19.2,5.26,12.54,11.75,28.54,14.83,14.87,2.86,27.89,1.82,31.39-2.19C284.81,26.07,272.46,19.58,256.46,16.5Z" style="fill: #a7a8ab;opacity: 0.5;mix-blend-mode: multiply"/>
          </g>
          <g style="mix-blend-mode: multiply">
            <path d="M241.25,20.34c4.83.67,8.76,2.23,9.77,3.73a.94.94,0,0,0,.26-.54c.24-1.75-4.25-3.81-10-4.61s-10.68,0-10.92,1.7a1.26,1.26,0,0,0,.26.88C231.69,20.16,236.11,19.63,241.25,20.34Z" style="fill: #a7a8ab"/>
            <path d="M240.37,25.23c5.14.72,9.56.19,10.65-1.16-1-1.5-4.94-3.06-9.77-3.73-5.14-.71-9.56-.18-10.66,1.16C231.61,23,235.53,24.57,240.37,25.23Z" style="fill: #a7a8ab;mix-blend-mode: multiply"/>
          </g>
          <path d="M263.83,21.25c-10.13-.78-12.65,1.12-11.61,2.77,0,0,1.91,3.47,12,7.11s13.43,1.12,13.78-2.78S274,22,263.83,21.25Zm11,5.65c-.24,2.29-2.52,3.76-9.3,1.62s-8.07-4.17-8.07-4.17c-.69-1,1-2.09,7.84-1.63S275.1,24.61,274.87,26.9Z" style="fill: #555556"/>
          <path d="M263.83,20.62c-10.13-.78-12.65,1.13-11.61,2.78,0,0,1.91,3.46,12,7.1s13.43,1.13,13.78-2.77S274,21.4,263.83,20.62Zm11,5.65c-.24,2.29-2.52,3.77-9.3,1.63s-8.07-4.18-8.07-4.18c-.69-1,1-2.08,7.84-1.63S275.1,24,274.87,26.27Z" style="fill: #a7a8ab"/>
          <path d="M226.88,24.55s-6-5.54-.14-10.2,24.18-3,31.74-1.26c-5.92-3.15-27.2-5.29-34.13,1.89C221.7,18.13,222.46,22.29,226.88,24.55Z" style="fill: #fff;opacity: 0.7000000000000001"/>
          <path d="M264.57,21.63a43.23,43.23,0,0,1,4.91.49l-.72-.78s-2.32-.34-5.15-.53C263.94,21.08,264.26,21.35,264.57,21.63Z" style="fill: #fff;opacity: 0.7000000000000001"/>
          <path d="M261.08,20.7c-3.58-.11-7.19.18-7.79,1.63-.38.85,2.59,3.51,2.59,3.51l1.18-1.34s-1.76-2.07.91-2.62a24.71,24.71,0,0,1,4.44-.31A14.46,14.46,0,0,0,261.08,20.7Z" style="fill: #fff;opacity: 0.7000000000000001"/>
          <path d="M279.44,41s-.16,8.57-5.42,12.92c7.22-1.2,8-2.1,8-2.1s3.16-6.76,3.16-12.78A15.16,15.16,0,0,1,279.44,41Z" style="fill: #fff;opacity: 0.5"/>
        </g>
        <g>
          <path d="M198.71,94.73c8.73-9.28,11.57-24.28,12.28-29.2l-.32-.21c-1.75-1.09-5.23-3.47-5.23-3.47s-.23-3.49-2.18-3.92-6.76-1.09-15.69-5.44-8.6-2.71-8.73-19.37c-.34-17.75-7.2-19.59-7.2-19.59L107.42,49.29S110.69,58,114.62,60a168,168,0,0,1,21.14,13.7c6.31,5,7.08,6.64,8.17,11s3.49,4.14,7.74,6,5.45,4.79,5.45,7.84,6.76,9.58,6.76,9.58C172.16,110.43,188.16,106,198.71,94.73Z" style="fill: #c4c5c6"/>
          <g style="opacity: 0.5;mix-blend-mode: multiply">
            <path d="M198.71,94.73c8.73-9.28,11.57-24.28,12.28-29.2l-.32-.21c-1.75-1.09-5.23-3.47-5.23-3.47s-.23-3.49-2.18-3.92-6.76-1.09-15.69-5.44c-6.14-3-7.9-3.15-8.45-8.36-.23,1.6-.48,3.31-.71,5.1-.89,17.24,6.12,33.72,6.37,30.18.62-2.91-3.06-25.54-3.06-25.54l22.14,10.47s2,16.19-5.57,24.83-23.87,18.57-28.54,15.42S161,95.36,160.12,87.4s-20.89-19.34-32-24.64-8-6.94,1.51-11.38c6.72-3.63,13-15.89,16.31-23.53l-38.5,21.44S110.69,58,114.62,60a168,168,0,0,1,21.14,13.7c6.31,5,7.08,6.64,8.17,11s3.49,4.14,7.74,6,5.45,4.79,5.45,7.84,6.76,9.58,6.76,9.58C172.16,110.43,188.16,106,198.71,94.73Z" style="fill: #c4c5c6;mix-blend-mode: multiply"/>
          </g>
          <path d="M146.26,44.81c-18.92,9.59-37.23,11.5-40.9,4.27S114.06,28.2,133,18.62s37.23-11.51,40.9-4.27S165.18,35.21,146.26,44.81Z" style="fill: #dbdcdd"/>
          <path d="M145.41,43.14c-18.15,9.21-35.6,11.3-39,4.66s8.64-19.48,26.79-28.68,35.62-11.3,39-4.66S163.58,33.94,145.41,43.14Z" style="fill: #79797a"/>
          <g style="opacity: 0.5;mix-blend-mode: multiply">
            <path d="M159.13,29.1c-5.55,2.3-18.46,4.76-23.36,1.82-6.21-5.54-6.87-5.87,10.93-12.91,15.75-4.08,22.84-1.76,25.91.45a6.09,6.09,0,0,0-.39-4c-3.37-6.64-20.82-4.55-39,4.66s-30.16,22-26.79,28.68,20.82,4.55,39-4.66a86.58,86.58,0,0,0,18-11.95C163.06,29.2,162,27.93,159.13,29.1Z" style="fill: #79797a"/>
          </g>
          <g style="opacity: 0.5;mix-blend-mode: multiply">
            <path d="M176.84,20.47a31.89,31.89,0,0,1-1.76,2.83,66.83,66.83,0,0,1-5.38,7c-1.21,1.37-2.56,2.82-4,4.29s-3.11,3-4.88,4.41-3.65,2.87-5.6,4.26-4,2.69-6.14,3.89c-1.07.6-2.13,1.19-3.23,1.72s-2.16,1.07-3.26,1.56-2.19,1-3.28,1.4-2.18.83-3.25,1.22-2.15.73-3.2,1-2.08.61-3.1.86c-2,.55-4,.91-5.75,1.28s-3.45.6-4.92.72-2.75.33-3.82.36l-3.32.19,3.31-.36c1.06-.08,2.32-.32,3.78-.53.74-.1,1.5-.23,2.31-.4l2.56-.48c1.76-.42,3.69-.82,5.67-1.42,1-.28,2-.58,3.06-.94s2.1-.65,3.15-1.07,2.14-.77,3.21-1.24,2.16-.89,3.23-1.41,2.16-1,3.22-1.58,2.13-1.12,3.17-1.72c2.11-1.17,4.14-2.47,6.12-3.79s3.83-2.73,5.57-4.18a87.33,87.33,0,0,0,9.06-8.42c1.22-1.34,2.33-2.57,3.26-3.72s1.73-2.15,2.36-3C176.2,21.5,176.84,20.47,176.84,20.47Z" style="fill: #a7a8ab"/>
            <path d="M178.29,26.7s-.12.24-.37.69a20.92,20.92,0,0,1-1.17,1.91c-.27.41-.57.85-.91,1.32s-.73,1-1.15,1.5-.86,1.1-1.35,1.67-1,1.19-1.59,1.77l-1.81,1.86c-.62.64-1.33,1.24-2,1.89-1.36,1.34-3,2.55-4.57,3.87-.82.63-1.7,1.22-2.57,1.85s-1.72,1.29-2.66,1.84l-2.78,1.76-1.41.88-1.45.8c-2,1-3.87,2.15-5.87,3-1,.47-2,.92-2.93,1.37-.49.23-1,.46-1.45.66l-1.45.59c-1.93.77-3.79,1.51-5.57,2.17l-5.09,1.65-2.26.73-2.08.53-3.37.86-3,.74,2.9-.91,3.33-1,2-.62,2.23-.81,5-1.79,5.49-2.26,1.44-.6c.47-.21.94-.45,1.42-.67l2.9-1.39c2-.88,3.87-2,5.8-3.06l1.45-.77,1.4-.86,2.77-1.71c.94-.54,1.78-1.22,2.66-1.8s1.74-1.19,2.55-1.82c1.6-1.3,3.23-2.45,4.62-3.72.7-.63,1.42-1.21,2.05-1.82l1.85-1.79c.6-.56,1.1-1.18,1.62-1.72s1-1.06,1.43-1.58l1.21-1.43c.35-.47.67-.89,1-1.27.55-.79,1-1.4,1.27-1.84S178.29,26.7,178.29,26.7Z" style="fill: #a7a8ab"/>
            <path d="M178.41,35.3s-.55.78-1.6,2.06c-.53.65-1.19,1.41-1.94,2.29s-1.63,1.85-2.65,2.86l-1.55,1.59c-.55.54-1.13,1.09-1.72,1.65-1.15,1.16-2.47,2.28-3.8,3.46s-2.81,2.32-4.3,3.45-3,2.3-4.61,3.34l-2.38,1.56c-.8.51-1.64,1-2.44,1.45s-1.61.94-2.41,1.4l-2.42,1.24c-.8.4-1.57.83-2.35,1.18l-2.33,1-2.2.92c-.7.3-1.42.51-2.1.75-1.35.46-2.6.87-3.7,1.22l-2.91.71-2.55.6,2.5-.77,2.86-.87L137.43,65c.66-.26,1.37-.48,2.06-.8s1.41-.66,2.15-1l2.27-1.05,2.31-1.2,2.39-1.26L151,58.28c.79-.49,1.6-1,2.39-1.46s1.56-1.06,2.35-1.58c1.6-1,3.1-2.17,4.61-3.26s2.9-2.27,4.29-3.37,2.68-2.23,3.87-3.34l1.76-1.6,1.6-1.52c1-1,1.93-1.92,2.76-2.73s1.5-1.56,2-2.18C177.8,36,178.41,35.3,178.41,35.3Z" style="fill: #a7a8ab"/>
            <path d="M179.11,45.36s-.49.68-1.44,1.79c-.47.56-1.06,1.23-1.75,2s-1.47,1.59-2.39,2.45-1.9,1.79-3,2.75-2.24,1.93-3.48,2.9-2.53,2-3.91,2.86l-2.06,1.4c-.7.46-1.43.88-2.14,1.32s-1.43.87-2.17,1.26l-2.21,1.15c-1.44.8-3,1.42-4.38,2.08A45,45,0,0,1,146,69l-2,.7-1.88.54c-1.21.34-2.31.68-3.31.89l-2.59.51L134,72l2.21-.6,2.54-.66c1-.28,2-.68,3.25-1,.58-.2,1.2-.39,1.84-.6l1.93-.78c1.32-.54,2.73-1.06,4.13-1.75s2.89-1.29,4.31-2.11l2.16-1.17c.73-.39,1.42-.85,2.14-1.27s1.43-.83,2.13-1.28l2.05-1.36c1.38-.87,2.65-1.88,3.92-2.78s2.43-1.87,3.53-2.77,2.13-1.78,3.05-2.63c1.86-1.66,3.35-3.12,4.36-4.16S179.11,45.36,179.11,45.36Z" style="fill: #a7a8ab"/>
            <path d="M181,49.45a22.39,22.39,0,0,1-.95,2.06,45.81,45.81,0,0,1-3.1,5.12,50,50,0,0,1-5.41,6.52c-1.12,1.08-2.28,2.19-3.55,3.22a49.48,49.48,0,0,1-4,3,44.8,44.8,0,0,1-4.3,2.45c-.73.37-1.46.73-2.2,1s-1.46.63-2.19.89-1.45.54-2.17.74-1.42.44-2.11.59c-1.38.37-2.71.6-3.93.82s-2.35.34-3.36.39-1.88.15-2.6.13h-2.27l2.26-.17c.72,0,1.58-.19,2.57-.3s2.1-.36,3.31-.56,2.49-.54,3.84-.95c.68-.18,1.36-.42,2.05-.66l1.06-.36,1.06-.42a23.16,23.16,0,0,0,2.14-.9c.73-.31,1.44-.67,2.15-1a44.5,44.5,0,0,0,4.19-2.46c1.36-.89,2.69-1.84,3.94-2.85s2.42-2.07,3.53-3.13,2.12-2.14,3-3.2,1.77-2.08,2.52-3.06a54.32,54.32,0,0,0,3.35-4.9C180.67,50.19,181,49.45,181,49.45Z" style="fill: #a7a8ab"/>
            <path d="M183.32,50.87s0,.21,0,.6-.12,1-.25,1.7c-.09.36-.18.76-.29,1.2s-.27.89-.43,1.38a12.87,12.87,0,0,1-.57,1.55A15.86,15.86,0,0,1,181,59l-.93,1.76c-.33.6-.75,1.18-1.14,1.8l-.6.94-.71.9c-.47.6-1,1.22-1.47,1.83L174.45,68c-.28.3-.57.59-.86.89s-.63.54-1,.82l-1.92,1.64c-.64.56-1.37,1-2.06,1.51l-2.09,1.45-2.19,1.26-2.16,1.22c-.72.39-1.48.7-2.2,1l-2.12,1a18.1,18.1,0,0,1-2.08.84L152,81a27.07,27.07,0,0,1-3.31,1l-2.58.68-2.25.58,2.2-.75,2.53-.83c1-.33,2.08-.66,3.24-1.16L155.57,79a17.19,17.19,0,0,0,2-.91l2.09-1c.7-.34,1.44-.66,2.15-1l2.11-1.24,2.15-1.26,2-1.45c.67-.49,1.4-.91,2-1.46L172.08,69l.94-.79.85-.86,1.69-1.69L177,63.9l.72-.85.62-.9c.41-.59.83-1.15,1.19-1.72s.66-1.15,1-1.7.53-1.1.8-1.61a15.84,15.84,0,0,0,.66-1.49c.17-.47.37-.91.49-1.34s.25-.81.36-1.16c.18-.71.33-1.27.39-1.67S183.32,50.87,183.32,50.87Z" style="fill: #a7a8ab"/>
            <path d="M188.22,52.93a19.4,19.4,0,0,1-.15,2.52c-.09.8-.25,1.77-.48,2.87A26,26,0,0,1,186.52,62a24.43,24.43,0,0,1-2,4,18.62,18.62,0,0,1-3.17,3.92,19.11,19.11,0,0,1-2.07,1.7c-.71.53-1.45,1-2.19,1.54-1.5,1-2.94,2.13-4.42,3.21s-2.95,2.2-4.48,3.2a19.9,19.9,0,0,1-4.8,2.48,25.78,25.78,0,0,1-2.53.56c-.82.12-1.62.25-2.39.39-1.55.27-3,.55-4.32.91a10.93,10.93,0,0,0-3.4,1.36,18.06,18.06,0,0,1-2.47,1.53,17.09,17.09,0,0,1-1.71.78l-.62.23.6-.28c.38-.2,1-.46,1.63-.88A18.21,18.21,0,0,0,150.59,85a10.42,10.42,0,0,1,3.46-1.59c1.34-.41,2.8-.75,4.34-1.07s3.21-.59,4.8-1a19.43,19.43,0,0,0,4.57-2.44c1.48-1,2.94-2.13,4.41-3.22s3-2.18,4.48-3.18c.74-.51,1.5-1,2.22-1.52a16.36,16.36,0,0,0,2-1.61A19.93,19.93,0,0,0,184,65.65a23.93,23.93,0,0,0,2-3.89,29.78,29.78,0,0,0,1.22-3.52,28.46,28.46,0,0,0,.63-2.82A22.84,22.84,0,0,0,188.22,52.93Z" style="fill: #a7a8ab"/>
            <path d="M191,54.11s.07.22.17.66a15.62,15.62,0,0,1,.32,1.89,23.4,23.4,0,0,1,.15,3,20.89,20.89,0,0,1-.43,3.87,22.42,22.42,0,0,1-1.36,4.42c-.31.75-.71,1.51-1.09,2.28s-.89,1.51-1.43,2.23a33.6,33.6,0,0,1-3.64,4.15c-1.32,1.3-2.7,2.62-4.11,3.88s-2.88,2.47-4.38,3.58a34.84,34.84,0,0,1-4.63,3,13.65,13.65,0,0,1-4.93,1.66,10.78,10.78,0,0,1-2.43-.08c-.75-.08-1.5-.19-2.19-.28a8.46,8.46,0,0,0-2-.11l-.45,0-.44.11a5.25,5.25,0,0,0-.82.27c-1.09.39-2,.75-2.79,1l-2.45.9,2.38-1.06,2.72-1.19A7.3,7.3,0,0,1,158,88l.46-.13.49-.09a9.1,9.1,0,0,1,2.08,0c.71.07,1.42.16,2.18.21a9.83,9.83,0,0,0,2.3,0,14.11,14.11,0,0,0,4.64-1.69,35.27,35.27,0,0,0,4.48-3c1.46-1.11,2.89-2.34,4.29-3.59s2.79-2.51,4.13-3.8a31.76,31.76,0,0,0,3.58-4c.54-.69.95-1.44,1.42-2.13s.81-1.45,1.14-2.18a22.25,22.25,0,0,0,1.47-4.26,28.33,28.33,0,0,0,.6-3.77,24.42,24.42,0,0,0,0-3A16.52,16.52,0,0,0,191,54.11Z" style="fill: #a7a8ab"/>
            <path d="M195.07,55.75s.1,1,.16,2.64a63.06,63.06,0,0,1-.1,7,33.51,33.51,0,0,1-.66,4.65,15.33,15.33,0,0,1-.77,2.48A5.54,5.54,0,0,1,192,74.75L190,76.52a7.57,7.57,0,0,0-1,1c-.32.32-.64.66-1,1-1.28,1.35-2.46,2.87-3.74,4.32l-.24.28a1.55,1.55,0,0,1-.14.15l-.14.13a3.89,3.89,0,0,1-.56.48,13.13,13.13,0,0,1-1.26.84A28.43,28.43,0,0,1,179.35,86c-1.72.8-3.45,1.51-5.1,2.22a43.2,43.2,0,0,0-4.62,2.23,24.86,24.86,0,0,1-4.22,2.07l-1,.38-1,.29a16.18,16.18,0,0,1-1.81.47,13.73,13.73,0,0,1-1.63.29,12.81,12.81,0,0,1-1.39.14l-1.13,0c-.33,0-.61-.08-.83-.1l-.68-.1.69,0c.22,0,.5,0,.82,0l1.12-.09a13.38,13.38,0,0,0,1.36-.21,14.3,14.3,0,0,0,1.59-.37c.55-.15,1.15-.32,1.76-.55l.94-.34,1-.4a23.57,23.57,0,0,0,4.05-2.16,35.75,35.75,0,0,1,4.66-2.39c1.65-.73,3.36-1.45,5.06-2.26.85-.4,1.69-.83,2.49-1.3a12.2,12.2,0,0,0,1.12-.77,4.23,4.23,0,0,0,.53-.45l.12-.13.11-.11.23-.27c1.27-1.41,2.46-2.92,3.8-4.3.34-.34.68-.68,1-1a8.43,8.43,0,0,1,1-1c.71-.59,1.42-1.18,2.1-1.76A4.81,4.81,0,0,0,193,72.18a14.35,14.35,0,0,0,.82-2.33,32,32,0,0,0,.79-4.53c.3-2.85.41-5.25.43-6.93S195.07,55.75,195.07,55.75Z" style="fill: #a7a8ab"/>
            <path d="M198.15,57s.23,1,.5,2.88a68,68,0,0,1,.66,7.67,35.93,35.93,0,0,1-.25,5.17,18.23,18.23,0,0,1-.6,2.8l-.25.7-.07.18a.49.49,0,0,1,0,.1l0,.08-.16.32a9.73,9.73,0,0,1-.74,1.32A31.25,31.25,0,0,1,193.23,83a62,62,0,0,1-4.67,4.33,94.94,94.94,0,0,1-10.08,7.39,19,19,0,0,1-5.31,2.35,39.65,39.65,0,0,1-5.06,1.07,61,61,0,0,1-7.68.59c-1.85,0-2.92,0-2.92,0s1.07,0,2.91-.16a67.81,67.81,0,0,0,7.6-.93,38.51,38.51,0,0,0,5-1.19,20.61,20.61,0,0,0,5.07-2.38A96.16,96.16,0,0,0,188,86.64a62.59,62.59,0,0,0,4.65-4.23,31,31,0,0,0,3.85-4.62,10.36,10.36,0,0,0,.73-1.26l.17-.32,0-.09,0-.05.06-.17.25-.65a15.67,15.67,0,0,0,.66-2.66,35.18,35.18,0,0,0,.4-5.06c0-3.16-.15-5.81-.33-7.65S198.15,57,198.15,57Z" style="fill: #a7a8ab"/>
            <path d="M205.45,61.6s0,1.06-.13,2.92a74.82,74.82,0,0,1-.93,7.67c-.31,1.57-.65,3.27-1.18,5A24,24,0,0,1,201,82.63a10.74,10.74,0,0,1-.85,1.3,5.3,5.3,0,0,1-.47.65l-.51.57c-.7.76-1.32,1.58-2.11,2.3s-1.51,1.5-2.3,2.22l-2.44,2.09c-1.69,1.3-3.38,2.62-5.15,3.76s-3.54,2.24-5.27,3.24l-2.64,1.35c-.86.42-1.77.74-2.61,1.1s-1.72.62-2.53.89l-2.37.75c-1.5.52-2.95.83-4.21,1.15s-2.36.58-3.28.75c-1.83.39-2.88.54-2.88.54l.75-.18c.48-.1,1.18-.31,2.09-.53s2-.53,3.23-.91,2.64-.76,4.14-1.32l2.35-.82a22.51,22.51,0,0,0,2.46-.94c.82-.38,1.69-.72,2.54-1.16l2.57-1.37c1.7-1,3.48-2,5.18-3.25s3.39-2.46,5.05-3.77c.82-.67,1.62-1.35,2.43-2s1.51-1.43,2.27-2.14a11.47,11.47,0,0,0,1.08-1.12l1-1.15.51-.56c.15-.16.29-.4.43-.58a9.58,9.58,0,0,0,.8-1.23A26,26,0,0,0,202.57,77a48.85,48.85,0,0,0,1.31-5c.65-3.11,1-5.74,1.26-7.59S205.45,61.6,205.45,61.6Z" style="fill: #a7a8ab"/>
            <path d="M208.64,64.37s0,.26,0,.76,0,1.22-.1,2.15c0,.46-.11,1-.16,1.53s-.18,1.15-.27,1.8-.27,1.31-.42,2-.38,1.44-.59,2.21-.5,1.56-.78,2.37-.64,1.64-1,2.48-.78,1.69-1.23,2.55-.95,1.7-1.48,2.55-1.13,1.67-1.73,2.51-1.3,1.62-2,2.44-1.45,1.53-2.19,2.31-1.59,1.42-2.38,2.14a47.62,47.62,0,0,1-5.2,3.69c-1.78,1.11-3.58,2.1-5.37,3-.89.45-1.78.86-2.65,1.26l-2.58,1.11-2.49,1-2.34.83-2.17.7-2,.58c-1.24.33-2.34.62-3.24.83-1.82.42-2.86.59-2.86.59s1-.25,2.81-.76c.9-.26,2-.6,3.19-1s2.59-.9,4.08-1.44l2.3-.89,2.43-1,2.54-1.17,2.6-1.29c1.76-.91,3.53-1.91,5.28-3a47.45,47.45,0,0,0,5.06-3.66c.78-.69,1.61-1.35,2.35-2.08l2.17-2.24c.66-.79,1.3-1.58,1.94-2.37s1.15-1.64,1.73-2.44,1-1.68,1.49-2.48.85-1.67,1.27-2.46.72-1.64,1.06-2.42.56-1.57.84-2.31l.66-2.17c.18-.69.34-1.36.5-2s.25-1.22.35-1.76.17-1.06.25-1.52c.11-.92.19-1.64.22-2.13S208.64,64.37,208.64,64.37Z" style="fill: #a7a8ab"/>
          </g>
          <g style="mix-blend-mode: multiply">
            <path d="M138.26,75.51s.34.08.94.25,1.43.42,2.42.78,2.15.78,3.36,1.29,2.49,1.11,3.75,1.75S151.2,81,152.3,81.7c.55.37,1.07.74,1.55,1.13A13.4,13.4,0,0,1,155.14,84a6.8,6.8,0,0,1,1,1.07,5.28,5.28,0,0,1,.65.92c.3.55.45.86.45.86s-.23-.28-.59-.76a5.45,5.45,0,0,0-.76-.79,10.7,10.7,0,0,0-1.08-.91,15.78,15.78,0,0,0-1.35-1c-.48-.35-1-.66-1.58-1s-1.14-.65-1.73-1-1.22-.65-1.82-1c-1.24-.65-2.49-1.26-3.66-1.83L141.42,77Z" style="fill: #a7a8ab"/>
            <path d="M179,43.68s0,.56,0,1.53,0,2.37,0,4,.05,3.6.12,5.68c0,1,.09,2.12.15,3.21s.13,2.19.23,3.29.22,2.21.34,3.28.29,2.14.43,3.17.37,2,.53,2.94.44,1.8.64,2.6.47,1.51.66,2.17a12.44,12.44,0,0,0,.63,1.63l.59,1.41-.75-1.34a10.57,10.57,0,0,1-.78-1.58c-.25-.63-.6-1.33-.85-2.14s-.53-1.67-.79-2.59-.49-1.92-.68-3-.4-2.1-.52-3.19-.28-2.2-.36-3.32c-.19-2.23-.27-4.47-.28-6.57,0-1,0-2,.06-3s.08-1.86.12-2.7c.09-1.67.25-3.06.35-4S179,43.68,179,43.68Z" style="fill: #a7a8ab"/>
            <path d="M205.44,61.85a21.33,21.33,0,0,1,.16,2.47c0,.74,0,1.61-.08,2.54,0,.46-.08.94-.14,1.43s-.1,1-.2,1.46l-.27,1.46a13,13,0,0,1-.33,1.4c-.26.89-.47,1.73-.75,2.43s-.54,1.25-.7,1.65-.29.62-.29.62,0-.25.11-.68.2-1,.37-1.74.28-1.57.47-2.46c.11-.45.17-.92.25-1.39s.16-1,.24-1.44.15-1,.22-1.44.15-.94.22-1.39c.11-.91.26-1.76.35-2.49C205.29,62.82,205.44,61.85,205.44,61.85Z" style="fill: #a7a8ab"/>
          </g>
          <g style="mix-blend-mode: multiply">
            <path d="M157.55,16.82s-.45,0-1.25.12-1.93.27-3.27.51-2.91.6-4.55,1.05c-.83.21-1.67.48-2.53.73s-1.71.57-2.58.86-1.7.63-2.54.94l-2.42,1-2.24,1c-.72.31-1.37.68-2,1s-1.19.58-1.66.86l-1.28.69-1.11.6,1-.74,1.18-.84c.46-.34,1-.66,1.59-1s1.22-.77,1.93-1.13,1.42-.79,2.21-1.17,1.59-.74,2.42-1.1,1.71-.68,2.58-1,1.75-.6,2.63-.83,1.74-.48,2.59-.66,1.67-.34,2.45-.48,1.52-.22,2.21-.3a30.47,30.47,0,0,1,3.34-.17C157.1,16.78,157.55,16.82,157.55,16.82Z" style="fill: #a7a8ab"/>
            <path d="M148.85,23.6l-.71.2c-.45.1-1.08.34-1.84.55l-1.21.42c-.43.13-.88.29-1.34.48s-.93.35-1.43.52-1,.41-1.44.61l-1.46.59c-.47.23-.94.42-1.38.63l-1.32.58c-.41.18-.78.39-1.14.56-.71.36-1.33.62-1.75.82s-.68.29-.68.29.21-.17.59-.44.91-.68,1.58-1.13c.33-.22.69-.49,1.09-.71l1.26-.7c.45-.23.91-.49,1.38-.72s1-.42,1.47-.63,1-.41,1.5-.58,1-.32,1.48-.47a11.1,11.1,0,0,1,1.4-.36c.45-.11.88-.2,1.27-.27.8-.12,1.47-.2,1.94-.22S148.85,23.6,148.85,23.6Z" style="fill: #a7a8ab"/>
            <path d="M146,31l-.42.13-.47.16-.59.22-.7.27c-.25.09-.49.23-.76.34-.53.21-1.08.48-1.63.75-.27.14-.56.25-.82.41s-.54.27-.79.41-.52.25-.75.37l-.66.36a12.94,12.94,0,0,1-1.44.68A14.12,14.12,0,0,1,138.06,34a7.89,7.89,0,0,1,1.3-1,10.24,10.24,0,0,1,1.62-.94l.87-.4c.29-.13.6-.2.88-.3a9.21,9.21,0,0,1,1.61-.35A4,4,0,0,1,145,31a2.87,2.87,0,0,1,.51,0A3.85,3.85,0,0,1,146,31Z" style="fill: #a7a8ab"/>
          </g>
          <path d="M212.63,70.33c.3-3.15-.15-3.84-1.64-4.8-.71,4.92-3.55,19.92-12.28,29.2-10.55,11.23-26.55,15.7-34.83,13.32a1.75,1.75,0,0,0,.54,2.72c10.46,1.73,21.67-1.43,32.77-12.12S212.31,73.71,212.63,70.33Z" style="fill: #dbdcdd"/>
          <path d="M139.69,42.42c-2.28.26-4.61.38-6.73-.65-.58-.28-1.08-.45-1-1.17.16-2,.29-3.39-.93-5.2-1.65-2.46-4.28-4.67-5.38-7.47a9.64,9.64,0,0,1-.67-4.1c-13.35,8.48-21.33,18.41-18.51,24,3.37,6.64,20.82,4.55,39-4.66.79-.4,1.56-.8,2.32-1.21A57.83,57.83,0,0,0,139.69,42.42Z" style="fill: #79797a;opacity: 0.5;mix-blend-mode: multiply"/>
          <g>
            <path d="M127.2,34.29A14.47,14.47,0,0,0,126,32C122.54,25.87,104.76.3,104.76.3,76.46,4.68,92,25,104,30.46,104,30.46,117.09,35.56,127.2,34.29Z" style="fill: #d0d2d6"/>
            <path d="M122.28,26a38.5,38.5,0,0,1-12.62-1.14c-6.93-1.88-13.46-5.62-17.14-12A34.1,34.1,0,0,1,90,7.56c-4.61,7.83,5.63,19.07,14.07,22.9,0,0,13.06,5.1,23.17,3.83A14.47,14.47,0,0,0,126,32C125.3,30.7,124,28.59,122.28,26Z" style="fill: #d0d2d6;mix-blend-mode: multiply"/>
            <path d="M124.62,42.53c2.36-2.72,3.95-4.7,2.58-8.24C117.09,35.56,104,30.46,104,30.46s-2.16,15,4.59,19.82S121.79,45.8,124.62,42.53Z" style="fill: #79797a"/>
            <path d="M103.83,39.05c7.28-2.16,14.74-.58,22,2,1.6-2,2.43-3.87,1.32-6.73C117.09,35.56,104,30.46,104,30.46A42.83,42.83,0,0,0,103.83,39.05Z" style="fill: #79797a;opacity: 0.5;mix-blend-mode: multiply"/>
          </g>
          <g style="mix-blend-mode: multiply">
            <path d="M106.44,2.61A25.1,25.1,0,0,0,101.53,5a19.07,19.07,0,0,0-2.18,1.6c-.34.29-.67.6-1,.92a11.78,11.78,0,0,0-.85,1,10.15,10.15,0,0,0-.72,1.12,8.52,8.52,0,0,0-.52,1.2,9,9,0,0,0-.3,1.27,7,7,0,0,0-.08,1.3,8.33,8.33,0,0,0,.14,1.3A9.44,9.44,0,0,0,96.39,16a10.86,10.86,0,0,0,.49,1.23c.19.4.42.78.62,1.17l0,0,1.2,1.43c.4.47.88.87,1.31,1.3a14.85,14.85,0,0,0,1.41,1.22l.73.58.77.52a14.49,14.49,0,0,0,1.58,1c.55.29,1.07.63,1.65.87s1.12.55,1.7.77,1.17.47,1.75.67l1.79.59,1.81.5,1.84.41,1.87.33c1.23.18,2.48.36,3.74.47s2.52.16,3.79.2c-1.26.08-2.53.11-3.8.07s-2.54-.11-3.81-.25l-1.88-.26L113,28.43,111.18,28l-1.85-.53c-.6-.2-1.19-.44-1.8-.66s-1.17-.52-1.76-.77-1.14-.59-1.71-.88a15.36,15.36,0,0,1-1.64-1l-.81-.53-.76-.59a12.78,12.78,0,0,1-1.48-1.26c-.45-.46-.94-.88-1.35-1.38l-1.23-1.5,0,0v0c-.21-.42-.45-.82-.64-1.25a12.63,12.63,0,0,1-.52-1.33,10.34,10.34,0,0,1-.36-1.38,8.95,8.95,0,0,1,0-2.86,8.18,8.18,0,0,1,.39-1.39,7.65,7.65,0,0,1,.62-1.29A9.65,9.65,0,0,1,97,8.17a14.57,14.57,0,0,1,4.32-3.5A22.53,22.53,0,0,1,106.44,2.61Z" style="fill: #a7a8ab"/>
            <path d="M109.37,7s-.57.14-1.55.48a14.5,14.5,0,0,0-3.76,1.92,6.31,6.31,0,0,0-1.82,2,4.44,4.44,0,0,0-.42,2.87,8.24,8.24,0,0,0,1.3,2.93,12.36,12.36,0,0,0,2.26,2.55,18.93,18.93,0,0,0,2.8,2c.51.27,1,.56,1.5.82l1.5.71c1,.41,2,.81,2.95,1.14s1.87.62,2.73.85c1.7.45,3.14.8,4.16,1s1.6.3,1.6.3-.59,0-1.63-.12c-.52-.06-1.14-.13-1.86-.24s-1.52-.23-2.4-.44-1.81-.42-2.8-.7c-.49-.15-1-.29-1.51-.46l-1.55-.58-1.57-.69c-.53-.24-1-.54-1.57-.82a19.6,19.6,0,0,1-2.94-2.08,13.71,13.71,0,0,1-1.32-1.32,3.58,3.58,0,0,1-.56-.7l-.51-.72A8.27,8.27,0,0,1,101,14.43a5.46,5.46,0,0,1,0-1.76,4.88,4.88,0,0,1,.6-1.57A6.8,6.8,0,0,1,103.77,9a12.94,12.94,0,0,1,4-1.67A12.82,12.82,0,0,1,109.37,7Z" style="fill: #a7a8ab"/>
          </g>
          <g style="mix-blend-mode: multiply">
            <path d="M108.5,32s-.14.5-.34,1.36a36.18,36.18,0,0,0-.66,3.62,22.88,22.88,0,0,0-.16,2.43,14.4,14.4,0,0,0,.25,2.66,6.12,6.12,0,0,0,1.11,2.48c.07.08.37.38.47.38a.6.6,0,0,0,.24.1.88.88,0,0,0,.29.06,3.06,3.06,0,0,0,1.3-.21,11,11,0,0,0,2.57-1.36c.8-.56,1.58-1.15,2.31-1.76,1.46-1.21,2.78-2.41,3.87-3.47s2-2,2.63-2.59l1-1s-.3.42-.85,1.12-1.35,1.71-2.39,2.84a51.76,51.76,0,0,1-3.71,3.73,29.94,29.94,0,0,1-2.34,1.87,11.58,11.58,0,0,1-2.78,1.5,3.78,3.78,0,0,1-1.69.23,1.39,1.39,0,0,1-.45-.09,1.24,1.24,0,0,1-.46-.2,2,2,0,0,1-.67-.58,6.67,6.67,0,0,1-1.22-2.88,12,12,0,0,1-.12-2.84,20.09,20.09,0,0,1,.32-2.49,25.55,25.55,0,0,1,1-3.58C108.29,32.43,108.5,32,108.5,32Z" style="fill: #a7a8ab"/>
            <path d="M112.19,33l-.16.79c-.11.51-.23,1.23-.37,2.09a19.64,19.64,0,0,0-.29,2.93,4.11,4.11,0,0,0,.23,1.48.86.86,0,0,0,.35.43.77.77,0,0,0,.49-.08,5.41,5.41,0,0,0,1.33-.87c.42-.36.83-.73,1.22-1.11.77-.76,1.47-1.51,2.07-2.15l2-2.17a28.26,28.26,0,0,1-1.58,2.5,24.64,24.64,0,0,1-1.9,2.38,13,13,0,0,1-1.23,1.23,5.88,5.88,0,0,1-1.58,1.05,2.11,2.11,0,0,1-.55.13,1.18,1.18,0,0,1-.32,0,1.25,1.25,0,0,1-.35-.1,1.67,1.67,0,0,1-.75-.88,4.35,4.35,0,0,1-.22-1.85,9.9,9.9,0,0,1,.22-1.62c.1-.51.23-1,.35-1.4A19.46,19.46,0,0,1,112.19,33Z" style="fill: #a7a8ab"/>
          </g>
          <path d="M173.05,41.65a47.1,47.1,0,0,0,4.36-3.73,79.82,79.82,0,0,0-1.3-15.36l-4.35,6.1S172.73,31.8,173.05,41.65Z" style="fill: #fff;opacity: 0.7000000000000001"/>
          <path d="M176.79,52.4c.37-4,.54-7.69.6-10.95-1.37,1.1-2.8,2.13-4.27,3.1,0,2.81,0,6.05,0,9.81.45,20.47,12.44,32.44,12.44,32.44A67.3,67.3,0,0,1,176.79,52.4Z" style="fill: #fff;opacity: 0.7000000000000001"/>
          <polygon points="184.63 59.44 201.87 73 202.14 65.44 184.63 56.63 184.63 59.44" style="fill: #fff;opacity: 0.7000000000000001"/>
        </g>
        <g>
          <g>
            <g>
              <path d="M265.64,159.08l-.49-1c1.94-5.31-1.22-22.41-8-41.8s-15.06-34.7-19.91-37.62l-.37-1-1.84.7c-4,1.92-1,21.13,6.84,43.35,7.92,22.51,17.75,39.55,22,38.07Z" style="fill: #a5a7aa"/>
              <path d="M265.62,159.1c-4.22,1.48-14.07-15.55-22-38.06s-10.91-42-6.7-43.45,14.06,15.55,22,38.07S269.83,157.62,265.62,159.1Z" style="fill: #cdcfd0"/>
            </g>
            <path d="M342.15,130.78,315.31,51.42,238.46,78.5c-3.86,1.85-.94,20.47,6.64,42,7.68,21.82,17.22,38.36,21.31,36.92Z" style="fill: #b5b7b8"/>
          </g>
          <g>
            <path d="M305.51,99.35c-6.85-19.49-11.15-40.5-6.1-42.92a.89.89,0,0,1,1.16.4.88.88,0,0,1-.41,1.15c-2.58,1.24-1.58,16.47,7,40.79,8.39,23.86,17.4,37.16,20.17,36.19a.86.86,0,0,1,1.11.52.88.88,0,0,1-.53,1.1c-2.5.88-6-2.5-10.34-10.05A166.5,166.5,0,0,1,305.51,99.35Z" style="fill: #cdcfd0"/>
            <path d="M308.85,98.17C302,78.68,297.7,57.68,302.76,55.26a.85.85,0,1,1,.74,1.54c-2.57,1.24-1.57,16.48,7,40.79,8.4,23.87,17.41,37.17,20.18,36.19a.86.86,0,0,1,.57,1.63c-2.5.87-6-2.51-10.35-10A169.7,169.7,0,0,1,308.85,98.17Z" style="fill: #cdcfd0"/>
            <path d="M312.2,97C305.34,77.51,301,56.5,306.09,54.08a.87.87,0,0,1,1.16.4.85.85,0,0,1-.41,1.15c-2.57,1.23-1.57,16.47,7,40.79,8.39,23.86,17.4,37.16,20.17,36.19a.86.86,0,1,1,.57,1.62c-2.49.87-6-2.51-10.34-10A165.83,165.83,0,0,1,312.2,97Z" style="fill: #cdcfd0"/>
            <path d="M292.14,104.05C285.28,84.56,281,63.56,286,61.14a.86.86,0,1,1,.75,1.54c-2.58,1.24-1.57,16.48,7,40.8,8.39,23.86,17.4,37.15,20.17,36.19a.85.85,0,1,1,.57,1.61c-2.49.88-6-2.5-10.34-10A166.68,166.68,0,0,1,292.14,104.05Z" style="fill: #cdcfd0"/>
            <path d="M295.48,102.88c-6.86-19.49-11.16-40.49-6.1-42.92a.86.86,0,0,1,.75,1.55c-2.58,1.23-1.57,16.47,7,40.79,8.39,23.86,17.39,37.17,20.16,36.19a.86.86,0,1,1,.57,1.62c-2.5.88-6-2.5-10.35-10.05A168.32,168.32,0,0,1,295.48,102.88Z" style="fill: #cdcfd0"/>
            <path d="M298.82,101.7c-6.86-19.49-11.15-40.49-6.09-42.91a.85.85,0,1,1,.74,1.54c-2.58,1.24-1.57,16.47,7,40.79,8.4,23.87,17.42,37.16,20.18,36.19a.87.87,0,0,1,1.1.53.85.85,0,0,1-.54,1.09c-2.5.88-6-2.5-10.34-10.05A169.16,169.16,0,0,1,298.82,101.7Z" style="fill: #cdcfd0"/>
            <path d="M302.17,100.52C295.31,81,291,60,296.07,57.61a.85.85,0,1,1,.74,1.54c-2.58,1.24-1.57,16.48,7,40.8,8.4,23.86,17.41,37.16,20.16,36.19a.86.86,0,1,1,.58,1.62c-2.49.87-6-2.51-10.35-10A167.59,167.59,0,0,1,302.17,100.52Z" style="fill: #cdcfd0"/>
            <path d="M278.76,108.76c-6.86-19.49-11.15-40.49-6.1-42.92a.88.88,0,0,1,1.15.41.86.86,0,0,1-.41,1.14c-2.58,1.24-1.57,16.47,7,40.79,8.39,23.87,17.41,37.16,20.17,36.19a.86.86,0,0,1,1.1.53.85.85,0,0,1-.54,1.09c-2.48.88-6-2.5-10.33-10.05A167.4,167.4,0,0,1,278.76,108.76Z" style="fill: #cdcfd0"/>
            <path d="M282.1,107.58C275.25,88.09,271,67.09,276,64.67a.85.85,0,1,1,.73,1.54c-2.57,1.24-1.57,16.48,7,40.79,8.39,23.87,17.41,37.17,20.17,36.2a.84.84,0,0,1,1.1.52.86.86,0,0,1-.52,1.1c-2.5.87-6-2.5-10.35-10A167.55,167.55,0,0,1,282.1,107.58Z" style="fill: #cdcfd0"/>
            <path d="M285.44,106.4c-6.85-19.48-11.15-40.49-6.09-42.91A.86.86,0,0,1,280.1,65c-2.58,1.23-1.58,16.47,7,40.79,8.39,23.86,17.4,37.16,20.17,36.19a.86.86,0,1,1,.56,1.62c-2.49.87-6-2.5-10.34-10A168.9,168.9,0,0,1,285.44,106.4Z" style="fill: #cdcfd0"/>
            <path d="M288.78,105.23c-6.85-19.49-11.15-40.49-6.09-42.91a.86.86,0,1,1,.75,1.54c-2.59,1.24-1.57,16.47,7,40.79,8.4,23.87,17.41,37.17,20.17,36.19a.86.86,0,1,1,.57,1.62c-2.49.88-6-2.5-10.34-10A167.89,167.89,0,0,1,288.78,105.23Z" style="fill: #cdcfd0"/>
            <path d="M265.39,113.46C258.53,94,254.23,73,259.28,70.55A.86.86,0,1,1,260,72.1c-2.57,1.23-1.57,16.47,7,40.79,8.39,23.86,17.41,37.16,20.17,36.19a.85.85,0,1,1,.57,1.61c-2.49.88-6-2.5-10.34-10A167.2,167.2,0,0,1,265.39,113.46Z" style="fill: #cdcfd0"/>
            <path d="M268.73,112.29c-6.86-19.49-11.16-40.49-6.1-42.92a.87.87,0,0,1,1.15.4.86.86,0,0,1-.41,1.15c-2.57,1.24-1.57,16.47,7,40.79,8.4,23.86,17.41,37.16,20.16,36.19a.86.86,0,1,1,.57,1.62c-2.48.88-6-2.5-10.34-10.05A166.59,166.59,0,0,1,268.73,112.29Z" style="fill: #cdcfd0"/>
            <path d="M272.07,111.11c-6.86-19.49-11.16-40.49-6.1-42.91a.86.86,0,1,1,.75,1.55c-2.58,1.23-1.57,16.46,7,40.79,8.39,23.86,17.4,37.15,20.15,36.19a.86.86,0,0,1,1.11.52.87.87,0,0,1-.53,1.1c-2.49.87-6-2.51-10.35-10A167.59,167.59,0,0,1,272.07,111.11Z" style="fill: #cdcfd0"/>
            <path d="M275.41,109.93c-6.85-19.49-11.15-40.49-6.09-42.91a.86.86,0,1,1,.74,1.55c-2.58,1.23-1.57,16.47,7,40.79,8.39,23.86,17.4,37.16,20.17,36.19a.86.86,0,1,1,.57,1.62c-2.49.88-6-2.51-10.35-10A168,168,0,0,1,275.41,109.93Z" style="fill: #cdcfd0"/>
            <path d="M252,118.17c-6.86-19.49-11.16-40.49-6.11-42.91a.87.87,0,0,1,1.17.4.85.85,0,0,1-.42,1.14c-2.57,1.24-1.57,16.48,7,40.79,8.4,23.87,17.41,37.17,20.18,36.19a.86.86,0,0,1,1.1.53.84.84,0,0,1-.53,1.09c-2.49.88-6-2.5-10.34-10A167.07,167.07,0,0,1,252,118.17Z" style="fill: #cdcfd0"/>
            <path d="M255.34,117C248.5,97.5,244.2,76.5,249.25,74.08a.88.88,0,0,1,1.16.4.85.85,0,0,1-.41,1.14c-2.58,1.24-1.57,16.47,7,40.8,8.4,23.86,17.41,37.16,20.17,36.18a.86.86,0,1,1,.57,1.63c-2.5.87-6-2.5-10.34-10A168.86,168.86,0,0,1,255.34,117Z" style="fill: #cdcfd0"/>
            <path d="M258.7,115.81c-6.86-19.48-11.16-40.49-6.1-42.91a.87.87,0,0,1,1.15.41.85.85,0,0,1-.41,1.14c-2.58,1.23-1.57,16.47,7,40.79,8.41,23.86,17.41,37.16,20.17,36.19a.86.86,0,1,1,.57,1.62c-2.48.88-6-2.51-10.34-10A167.74,167.74,0,0,1,258.7,115.81Z" style="fill: #cdcfd0"/>
            <path d="M262,114.63c-6.85-19.48-11.16-40.48-6.1-42.9a.87.87,0,0,1,1.16.4.86.86,0,0,1-.41,1.14c-2.58,1.24-1.58,16.48,7,40.79,8.39,23.87,17.4,37.17,20.18,36.19a.86.86,0,0,1,.57,1.62c-2.5.88-6-2.5-10.35-10A167.69,167.69,0,0,1,262,114.63Z" style="fill: #cdcfd0"/>
          </g>
          <path d="M322.17,71.71l-2.71-8-81.9,28.81c.4,2.55,1,5.36,1.69,8.37Z" style="fill: #b5b7b8;opacity: 0.4;mix-blend-mode: screen"/>
          <g style="mix-blend-mode: multiply">
            <path d="M342.15,130.78l-7.42-21.93L252.1,137.92c5.77,12.52,11.41,20.53,14.31,19.52Z" style="fill: #b5b7b8"/>
          </g>
          <g>
            <path d="M345.14,131.11l-.49-1c2-5.32-1.21-22.4-8-41.8s-15.06-34.7-19.91-37.62l-.37-1-1.84.7c-4,1.9-1,21.12,6.84,43.34,7.92,22.51,17.75,39.55,22,38.07Z" style="fill: #a5a7aa"/>
            <path d="M345.12,131.13c-4.21,1.49-14.06-15.55-22-38.07s-10.92-42-6.7-43.44,14.06,15.56,22,38.06S349.34,129.65,345.12,131.13Z" style="fill: #cdcfd0"/>
            <path d="M344.66,129c-3.68,1.3-12.77-15-20.29-36.41s-10.66-39.8-7-41.09,12.76,15,20.29,36.4S348.33,127.7,344.66,129Z" style="fill: #b5b7b8"/>
            <g>
              <path d="M336.73,88.24c7.2,20.47,10.37,38.18,7.42,40.81a1.26,1.26,0,0,0,.51-.06c3.67-1.29.56-19.68-7-41.1s-16.61-37.7-20.29-36.4a1.16,1.16,0,0,0-.43.27C320.91,52,329.53,67.76,336.73,88.24Z" style="fill: #737677"/>
              <path d="M324.37,92.58c7.2,20.48,15.82,36.27,19.78,36.47,3-2.63-.22-20.34-7.42-40.81S320.91,52,317,51.76C314,54.4,317.16,72.11,324.37,92.58Z" style="fill: #b5b7b8"/>
            </g>
          </g>
        </g>
        <g>
          <g>
            <g>
              <path d="M234.29,157.67l-.93-.34c-2-4.64-14.53-13.76-30.84-22.12s-31-13.21-36-12.13l-.88-.45-.77,1.59c-1.4,3.68,12.34,14.26,31,23.84,18.94,9.71,35.75,14.7,37.58,11.15C233.53,159.16,234.29,157.67,234.29,157.67Z" style="fill: #a5a7aa"/>
              <path d="M234.28,157.69c-1.82,3.55-18.64-1.43-37.58-11.14s-32.8-20.46-31-24,18.64,1.43,37.58,11.14S236.1,154.14,234.28,157.69Z" style="fill: #cdcfd0"/>
            </g>
            <path d="M266.42,92.41,200.36,57.53l-33.1,64.67c-1.37,3.57,12,13.83,30.07,23.12,18.36,9.41,34.68,14.25,36.44,10.81Z" style="fill: #b5b7b8"/>
          </g>
          <g>
            <path d="M223.43,94.55c-16.39-8.4-32.06-19.35-30.28-24a.78.78,0,0,1,1-.45.76.76,0,0,1,.44,1c-.91,2.38,9.09,11.62,29.55,22.11,20.08,10.29,34.07,13.37,35.26,11a.77.77,0,0,1,1-.34.78.78,0,0,1,.33,1c-1.08,2.1-5.41,2-12.87-.15A150.61,150.61,0,0,1,223.43,94.55Z" style="fill: #cdcfd0"/>
            <path d="M224.87,91.74c-16.39-8.41-32.06-19.36-30.27-24a.76.76,0,1,1,1.42.54c-.9,2.38,9.09,11.62,29.55,22.11,20.08,10.29,34.07,13.36,35.26,11a.77.77,0,0,1,1.37.7c-1.08,2.1-5.41,2.05-12.87-.15A150.61,150.61,0,0,1,224.87,91.74Z" style="fill: #cdcfd0"/>
            <path d="M226.31,88.93c-16.39-8.4-32.06-19.36-30.27-24a.75.75,0,0,1,1-.45.77.77,0,0,1,.45,1c-.91,2.37,9.08,11.62,29.54,22.1,20.08,10.29,34.07,13.37,35.26,11a.77.77,0,0,1,1.37.7c-1.08,2.1-5.41,2-12.86-.15A149.43,149.43,0,0,1,226.31,88.93Z" style="fill: #cdcfd0"/>
            <path d="M217.66,105.8c-16.39-8.4-32.06-19.35-30.27-24a.76.76,0,1,1,1.42.55c-.9,2.38,9.1,11.62,29.55,22.1,20.08,10.29,34.07,13.36,35.26,11a.77.77,0,1,1,1.37.7c-1.08,2.09-5.41,2-12.86-.16A149.43,149.43,0,0,1,217.66,105.8Z" style="fill: #cdcfd0"/>
            <path d="M219.11,103c-16.4-8.4-32.07-19.35-30.28-24a.76.76,0,1,1,1.43.54c-.91,2.38,9.09,11.62,29.55,22.1,20.08,10.29,34.06,13.37,35.25,11a.77.77,0,1,1,1.37.7c-1.08,2.1-5.41,2-12.86-.16A150.25,150.25,0,0,1,219.11,103Z" style="fill: #cdcfd0"/>
            <path d="M220.55,100.18c-16.4-8.4-32.07-19.35-30.28-24a.77.77,0,0,1,1.43.55c-.91,2.38,9.09,11.62,29.54,22.1,20.08,10.29,34.08,13.36,35.26,11a.77.77,0,0,1,1.37.7c-1.08,2.1-5.4,2-12.86-.15A149.36,149.36,0,0,1,220.55,100.18Z" style="fill: #cdcfd0"/>
            <path d="M222,97.36c-16.38-8.4-32-19.35-30.27-24a.76.76,0,0,1,1-.44.75.75,0,0,1,.44,1c-.91,2.39,9.09,11.63,29.55,22.11,20.08,10.29,34.07,13.37,35.25,11a.77.77,0,1,1,1.37.7c-1.07,2.09-5.4,2-12.85-.16A149,149,0,0,1,222,97.36Z" style="fill: #cdcfd0"/>
            <path d="M211.89,117.05c-16.39-8.4-32-19.35-30.27-24a.77.77,0,0,1,1-.44.76.76,0,0,1,.44,1c-.91,2.38,9.09,11.62,29.55,22.1,20.07,10.29,34.06,13.37,35.26,11a.77.77,0,0,1,1-.34.76.76,0,0,1,.32,1c-1.07,2.09-5.39,2-12.85-.16A148.91,148.91,0,0,1,211.89,117.05Z" style="fill: #cdcfd0"/>
            <path d="M213.34,114.24c-16.4-8.4-32.06-19.35-30.28-24a.77.77,0,0,1,1-.45.76.76,0,0,1,.43,1c-.9,2.38,9.09,11.63,29.55,22.11,20.07,10.29,34.06,13.37,35.25,11a.77.77,0,1,1,1.37.7c-1.08,2.09-5.4,2-12.86-.16A149.72,149.72,0,0,1,213.34,114.24Z" style="fill: #cdcfd0"/>
            <path d="M214.78,111.43c-16.4-8.4-32.06-19.35-30.27-24a.76.76,0,1,1,1.42.54c-.91,2.38,9.09,11.62,29.55,22.1,20.08,10.29,34.07,13.37,35.25,11a.77.77,0,0,1,1-.34.75.75,0,0,1,.33,1c-1.08,2.11-5.4,2-12.86-.15A148.84,148.84,0,0,1,214.78,111.43Z" style="fill: #cdcfd0"/>
            <path d="M216.22,108.62c-16.4-8.4-32.06-19.35-30.28-24a.76.76,0,0,1,1-.44.76.76,0,0,1,.43,1c-.91,2.38,9.09,11.61,29.56,22.1C237,117.53,251,120.61,252.17,118.29a.8.8,0,0,1,1.05-.35.76.76,0,0,1,.32,1c-1.07,2.1-5.4,2-12.85-.15A149.43,149.43,0,0,1,216.22,108.62Z" style="fill: #cdcfd0"/>
            <path d="M206.13,128.3c-16.39-8.4-32.06-19.35-30.28-24a.76.76,0,1,1,1.43.54c-.91,2.38,9.09,11.62,29.55,22.11,20.07,10.29,34.07,13.36,35.26,11a.76.76,0,1,1,1.36.7c-1.07,2.1-5.4,2.05-12.86-.15A149.86,149.86,0,0,1,206.13,128.3Z" style="fill: #cdcfd0"/>
            <path d="M207.57,125.5c-16.39-8.41-32.06-19.36-30.28-24a.78.78,0,0,1,1-.45.76.76,0,0,1,.43,1c-.9,2.37,9.1,11.61,29.55,22.1,20.08,10.29,34.07,13.36,35.26,11a.75.75,0,0,1,1-.33.76.76,0,0,1,.33,1c-1.07,2.1-5.4,2-12.86-.15A149.72,149.72,0,0,1,207.57,125.5Z" style="fill: #cdcfd0"/>
            <path d="M209,122.68c-16.39-8.39-32.06-19.35-30.27-24a.76.76,0,1,1,1.43.54c-.91,2.38,9.09,11.62,29.55,22.11,20.07,10.28,34.06,13.36,35.25,11a.76.76,0,1,1,1.36.7c-1.07,2.1-5.39,2-12.86-.15A149.86,149.86,0,0,1,209,122.68Z" style="fill: #cdcfd0"/>
            <path d="M210.45,119.87c-16.39-8.41-32-19.36-30.27-24a.77.77,0,0,1,1-.44.78.78,0,0,1,.44,1c-.91,2.38,9.09,11.62,29.55,22.11,20.07,10.28,34.06,13.36,35.25,11a.78.78,0,0,1,1-.33.75.75,0,0,1,.32,1c-1.07,2.1-5.39,2.05-12.86-.14A151.12,151.12,0,0,1,210.45,119.87Z" style="fill: #cdcfd0"/>
            <path d="M200.36,139.56c-16.39-8.4-32.06-19.35-30.27-24a.77.77,0,0,1,1-.45.76.76,0,0,1,.43,1c-.9,2.38,9.09,11.62,29.55,22.11,20.08,10.29,34.07,13.36,35.26,11a.76.76,0,0,1,1-.34.78.78,0,0,1,.33,1c-1.08,2.09-5.41,2-12.87-.16A150.61,150.61,0,0,1,200.36,139.56Z" style="fill: #cdcfd0"/>
            <path d="M201.8,136.75c-16.39-8.41-32.06-19.36-30.27-24a.78.78,0,0,1,1-.45.76.76,0,0,1,.44,1c-.91,2.39,9.08,11.62,29.54,22.11,20.08,10.29,34.08,13.36,35.26,11a.77.77,0,0,1,1.37.7c-1.08,2.1-5.41,2-12.86-.15A149.79,149.79,0,0,1,201.8,136.75Z" style="fill: #cdcfd0"/>
            <path d="M203.24,133.93c-16.38-8.4-32.06-19.35-30.28-24a.79.79,0,0,1,1-.45.76.76,0,0,1,.44,1c-.91,2.39,9.09,11.62,29.55,22.11,20.07,10.29,34.06,13.37,35.25,11a.77.77,0,1,1,1.37.7c-1.07,2.09-5.4,2-12.86-.16A148.91,148.91,0,0,1,203.24,133.93Z" style="fill: #cdcfd0"/>
            <path d="M204.68,131.12c-16.38-8.4-32.05-19.35-30.27-24a.76.76,0,1,1,1.43.54c-.91,2.38,9.09,11.62,29.55,22.11,20.07,10.29,34.07,13.36,35.26,11a.76.76,0,1,1,1.36.7c-1.07,2.1-5.4,2.05-12.86-.15A151,151,0,0,1,204.68,131.12Z" style="fill: #cdcfd0"/>
          </g>
          <path d="M217.25,66.45l-6.67-3.52-35.31,68.9c1.82,1.39,3.92,2.86,6.23,4.37Z" style="fill: #b5b7b8;opacity: 0.4;mix-blend-mode: screen"/>
          <g style="mix-blend-mode: multiply">
            <path d="M266.42,92.41l-18.25-9.64-35.63,69.51c11.42,4.56,20,6.29,21.23,3.85Z" style="fill: #b5b7b8"/>
          </g>
          <g>
            <path d="M268.56,90.78l-.92-.33c-2-4.64-14.54-13.76-30.84-22.12s-31-13.21-36-12.12l-.88-.45-.77,1.58c-1.4,3.69,12.33,14.26,31,23.84,18.94,9.71,35.75,14.7,37.58,11.15Z" style="fill: #a5a7aa"/>
            <path d="M268.56,90.81c-1.82,3.55-18.64-1.43-37.58-11.14s-32.8-20.46-31-24,18.64,1.44,37.58,11.14S270.38,87.26,268.56,90.81Z" style="fill: #cdcfd0"/>
            <path d="M267,89.71c-1.59,3.1-17.46-1.87-35.47-11.11s-31.31-19.21-29.73-22.31,17.47,1.88,35.47,11.11S268.53,86.62,267,89.71Z" style="fill: #b5b7b8"/>
            <g>
              <path d="M236.81,68.21C254,77,267,86.54,266.66,90.07a1.24,1.24,0,0,0,.29-.36c1.58-3.09-11.72-13.08-29.73-22.31s-33.88-14.2-35.47-11.11a1.19,1.19,0,0,0-.11.45C204.33,54.45,219.59,59.38,236.81,68.21Z" style="fill: #737677"/>
              <path d="M231.48,78.6C248.7,87.43,264,92.37,266.66,90.07,267,86.54,254,77,236.81,68.21s-32.48-13.76-35.17-11.47C201.34,60.27,214.26,69.78,231.48,78.6Z" style="fill: #b5b7b8"/>
            </g>
          </g>
        </g>
        <g>
          <g>
            <g>
              <path d="M54.72,154.9l-.23-1.18c3.55-5,5.18-23.67,3.66-45.82s-5.7-40.45-9.9-44.9l-.09-1.19L46,62c-4.71.84-7.09,21.71-5.34,47.09,1.77,25.72,7.11,46.28,11.93,46Z" style="fill: #a5a7aa"/>
              <path d="M54.68,154.91c-4.81.33-10.16-20.24-11.93-45.95s.71-46.82,5.53-47.15S58.44,82,60.21,107.75,59.5,154.58,54.68,154.91Z" style="fill: #cdcfd0"/>
            </g>
            <path d="M142.51,147.44,137.39,57.1,49.6,63.19c-4.56.82-6.87,21-5.18,45.65,1.72,24.93,6.9,44.89,11.57,44.56Z" style="fill: #b5b7b8"/>
          </g>
          <g>
            <path d="M113.41,104.17c-1.53-22.25,0-45.36,6-46.43a.93.93,0,1,1,.33,1.83c-3,.54-6.38,16.69-4.46,44.48,1.87,27.26,7.43,43.69,10.59,43.48a.92.92,0,0,1,1,.85,1,1,0,0,1-.87,1c-2.85.19-5.5-4.33-7.88-13.44A181.76,181.76,0,0,1,113.41,104.17Z" style="fill: #cdcfd0"/>
            <path d="M117.22,103.91c-1.53-22.26,0-45.36,6-46.42a.92.92,0,1,1,.32,1.81c-3,.55-6.36,16.7-4.46,44.48,1.88,27.26,7.44,43.7,10.6,43.48a.93.93,0,0,1,.13,1.85c-2.85.19-5.5-4.32-7.88-13.44A181.4,181.4,0,0,1,117.22,103.91Z" style="fill: #cdcfd0"/>
            <path d="M121,103.65c-1.53-22.27,0-45.37,6-46.43a.93.93,0,0,1,1.09.75.92.92,0,0,1-.76,1.07c-3,.55-6.37,16.7-4.45,44.48,1.87,27.26,7.42,43.69,10.59,43.48a.91.91,0,0,1,1,.86.93.93,0,0,1-.86,1c-2.86.19-5.51-4.32-7.89-13.44A181.48,181.48,0,0,1,121,103.65Z" style="fill: #cdcfd0"/>
            <path d="M98.13,105.23c-1.54-22.26,0-45.36,6-46.43a.92.92,0,1,1,.33,1.82c-3,.54-6.38,16.7-4.47,44.48,1.89,27.26,7.44,43.69,10.6,43.48a.93.93,0,1,1,.13,1.85c-2.84.19-5.5-4.33-7.88-13.44A181.78,181.78,0,0,1,98.13,105.23Z" style="fill: #cdcfd0"/>
            <path d="M102,105c-1.53-22.26,0-45.35,6-46.42a.9.9,0,0,1,1.07.75.92.92,0,0,1-.74,1.07c-3,.54-6.36,16.69-4.45,44.47,1.88,27.26,7.42,43.7,10.58,43.48a.94.94,0,0,1,1,.86.93.93,0,0,1-.87,1c-2.85.19-5.51-4.32-7.88-13.43A180.81,180.81,0,0,1,102,105Z" style="fill: #cdcfd0"/>
            <path d="M105.76,104.7c-1.53-22.26,0-45.37,6-46.43a.92.92,0,1,1,.33,1.82c-3,.55-6.37,16.7-4.46,44.48,1.88,27.26,7.44,43.7,10.59,43.48a.93.93,0,0,1,.13,1.85c-2.85.19-5.5-4.32-7.88-13.43A181.67,181.67,0,0,1,105.76,104.7Z" style="fill: #cdcfd0"/>
            <path d="M109.59,104.43c-1.54-22.25,0-45.35,6-46.42a.92.92,0,1,1,.33,1.82c-3,.55-6.37,16.7-4.46,44.48,1.88,27.26,7.43,43.7,10.58,43.48a.93.93,0,0,1,1,.86.94.94,0,0,1-.88,1c-2.83.19-5.49-4.33-7.87-13.44A180.67,180.67,0,0,1,109.59,104.43Z" style="fill: #cdcfd0"/>
            <path d="M82.85,106.27c-1.53-22.25,0-45.35,6-46.42a.93.93,0,0,1,.33,1.83c-3,.54-6.38,16.69-4.46,44.47,1.87,27.26,7.43,43.69,10.59,43.47a.93.93,0,1,1,.13,1.86c-2.85.19-5.5-4.33-7.88-13.44A181.61,181.61,0,0,1,82.85,106.27Z" style="fill: #cdcfd0"/>
            <path d="M86.66,106c-1.53-22.26,0-45.35,6-46.43a1,1,0,0,1,1.09.75A.93.93,0,0,1,93,61.41c-3,.54-6.38,16.69-4.47,44.47,1.88,27.26,7.44,43.7,10.6,43.48a.92.92,0,0,1,1,.86.91.91,0,0,1-.86,1c-2.85.2-5.5-4.32-7.88-13.43A182.63,182.63,0,0,1,86.66,106Z" style="fill: #cdcfd0"/>
            <path d="M90.49,105.75c-1.53-22.26,0-45.36,6-46.42a.92.92,0,0,1,1.07.74.93.93,0,0,1-.75,1.08c-3,.54-6.37,16.69-4.46,44.47,1.88,27.26,7.44,43.7,10.58,43.48a.93.93,0,1,1,.13,1.85c-2.85.19-5.49-4.33-7.87-13.43A180.81,180.81,0,0,1,90.49,105.75Z" style="fill: #cdcfd0"/>
            <path d="M94.3,105.49c-1.53-22.26,0-45.36,6-46.43a.93.93,0,1,1,.34,1.82c-3,.55-6.37,16.7-4.46,44.48,1.88,27.26,7.43,43.69,10.59,43.48a.93.93,0,1,1,.12,1.85c-2.84.19-5.49-4.33-7.87-13.43A180.73,180.73,0,0,1,94.3,105.49Z" style="fill: #cdcfd0"/>
            <path d="M67.57,107.33c-1.53-22.26,0-45.36,6-46.43a.93.93,0,0,1,.33,1.83c-3,.54-6.37,16.69-4.46,44.47,1.88,27.26,7.43,43.7,10.6,43.48a.93.93,0,0,1,.12,1.85c-2.85.2-5.5-4.33-7.87-13.43A181.67,181.67,0,0,1,67.57,107.33Z" style="fill: #cdcfd0"/>
            <path d="M71.39,107.07c-1.54-22.26,0-45.36,6-46.43a.94.94,0,0,1,1.09.75.92.92,0,0,1-.76,1.07c-3,.55-6.37,16.7-4.46,44.47,1.88,27.26,7.44,43.7,10.59,43.48a.93.93,0,1,1,.13,1.86c-2.85.19-5.5-4.33-7.88-13.44A179.75,179.75,0,0,1,71.39,107.07Z" style="fill: #cdcfd0"/>
            <path d="M75.2,106.8c-1.53-22.26,0-45.35,6-46.42a.93.93,0,1,1,.34,1.82c-3,.54-6.38,16.69-4.47,44.47,1.88,27.26,7.44,43.7,10.59,43.48a.93.93,0,0,1,1,.87.92.92,0,0,1-.86,1c-2.86.2-5.5-4.32-7.88-13.43A181.67,181.67,0,0,1,75.2,106.8Z" style="fill: #cdcfd0"/>
            <path d="M79,106.54c-1.54-22.26,0-45.36,6-46.43a.93.93,0,1,1,.32,1.83c-3,.54-6.37,16.69-4.46,44.47,1.88,27.26,7.44,43.7,10.59,43.48a.93.93,0,0,1,1,.86.91.91,0,0,1-.86,1c-2.84.2-5.5-4.33-7.89-13.43A181.84,181.84,0,0,1,79,106.54Z" style="fill: #cdcfd0"/>
            <path d="M52.29,108.38c-1.53-22.26,0-45.36,6-46.43a.94.94,0,0,1,1.09.75.93.93,0,0,1-.76,1.08c-3,.54-6.38,16.69-4.46,44.47C56,135.51,61.58,152,64.74,151.73a.91.91,0,0,1,1,.86.93.93,0,0,1-.86,1c-2.86.19-5.51-4.32-7.89-13.43A181.76,181.76,0,0,1,52.29,108.38Z" style="fill: #cdcfd0"/>
            <path d="M56.1,108.12c-1.52-22.26,0-45.36,6-46.43a.94.94,0,0,1,1.09.75.93.93,0,0,1-.75,1.08c-3,.54-6.38,16.69-4.47,44.47,1.88,27.26,7.44,43.69,10.59,43.48a.92.92,0,0,1,1,.86.94.94,0,0,1-.87,1c-2.85.19-5.5-4.33-7.88-13.44A182.5,182.5,0,0,1,56.1,108.12Z" style="fill: #cdcfd0"/>
            <path d="M59.93,107.85c-1.53-22.25,0-45.36,6-46.42a.94.94,0,0,1,1.09.75.93.93,0,0,1-.76,1.07c-3,.54-6.37,16.7-4.46,44.48,1.88,27.25,7.44,43.69,10.59,43.47a.93.93,0,0,1,1,.87.92.92,0,0,1-.88,1c-2.83.2-5.48-4.32-7.87-13.43A181.76,181.76,0,0,1,59.93,107.85Z" style="fill: #cdcfd0"/>
            <path d="M63.75,107.59c-1.53-22.26,0-45.36,6-46.42A.93.93,0,1,1,70.08,63c-3,.54-6.38,16.69-4.47,44.47,1.87,27.26,7.43,43.7,10.6,43.48a.93.93,0,0,1,.13,1.85c-2.86.2-5.51-4.32-7.89-13.43A181.76,181.76,0,0,1,63.75,107.59Z" style="fill: #cdcfd0"/>
          </g>
          <path d="M138.69,80.2l-.52-9.13L44.63,77.51c-.31,2.77-.52,5.86-.65,9.21Z" style="fill: #b5b7b8;opacity: 0.4;mix-blend-mode: screen"/>
          <g style="mix-blend-mode: multiply">
            <path d="M142.51,147.44l-1.42-25L46.7,129c2.41,14.7,6,24.66,9.29,24.43Z" style="fill: #b5b7b8"/>
          </g>
          <g>
            <path d="M145.53,148.64l-.22-1.17c3.56-5,5.18-23.67,3.66-45.82s-5.7-40.46-9.92-44.9L139,55.56l-2.12.2c-4.7.84-7.09,21.7-5.34,47.09,1.77,25.71,7.1,46.28,11.94,46Z" style="fill: #a5a7aa"/>
            <path d="M145.5,148.66c-4.82.33-10.16-20.24-11.93-45.95s.71-46.82,5.53-47.16,10.16,20.24,11.93,46S150.32,148.33,145.5,148.66Z" style="fill: #cdcfd0"/>
            <path d="M145.63,146.29c-4.2.3-9-19.28-10.64-43.73s.35-44.5,4.55-44.79,9,19.29,10.66,43.74S149.84,146,145.63,146.29Z" style="fill: #b5b7b8"/>
            <g>
              <path d="M149.1,101.58c1.61,23.39-.18,42.74-4,44.63a1.25,1.25,0,0,0,.54.08c4.21-.28,6.25-20.32,4.57-44.78s-6.46-44-10.66-43.74a1.26,1.26,0,0,0-.53.16C143.06,59.28,147.49,78.2,149.1,101.58Z" style="fill: #737677"/>
              <path d="M135,102.56c1.6,23.38,6,42.31,10.1,43.65,3.83-1.89,5.62-21.24,4-44.63s-6-42.3-10.09-43.65C135.16,59.82,133.37,79.18,135,102.56Z" style="fill: #b5b7b8"/>
            </g>
          </g>
        </g>
        <g>
          <g>
            <path d="M116.9,106.54a35.49,35.49,0,0,0,5.36,9.76c2.6,3,1,4.65,0,7.13s.76,3.79,3.14,6.06a24.55,24.55,0,0,1,3.24,3.58s-7.89,4.54-5.83,7.78c2.48,3,3,3.14,2,5.52s-1.09,3.78,6.48,5.94,37,.65,49.26-5.54c7.65-3.9,11.25-7.22,11.53-10.83s-4.75-5.33-4.75-5.33,4.18-2,.72-7.35-5-8.23-2.74-10.24,2.45-2.31,1.3-5a60.8,60.8,0,0,1-2.31-7.94Z" style="fill: #b8dc1a"/>
            <g style="mix-blend-mode: multiply">
              <path d="M187.38,130.61s4.18-2,.72-7.35-5-8.23-2.74-10.24,2.45-2.31,1.3-5a60.8,60.8,0,0,1-2.31-7.94l-67.45,6.51s.25.78.79,2c22.79,12.48,56.83,2.32,66-3.73,1.3,3.57,1.41,3.9-.44,7.68s-3.24,4.65-3.13,7-11.5,2.85-11.5,2.85c7.79,0,15.43-.29,16.3,1.44s-5.2,5.34-16.05,12.06c-11.15,6.73-14.38,5.68-23.32,3.08a23.15,23.15,0,0,0,11.67,3.61c-2,2.6-4.17,5.19-14.85,4.19-12-2.36-17.39-4.59-19.76-6.26a2.9,2.9,0,0,0,.19.34c2.48,3,3,3.14,2,5.52s-1.09,3.78,6.48,5.94,37,.65,49.26-5.54c7.65-3.9,11.25-7.22,11.53-10.83S187.38,130.61,187.38,130.61Z" style="fill: #86d018"/>
            </g>
            <path d="M184.33,99.26c.52,4.79-14.16,10.29-32.78,12.3s-34.13-.23-34.65-5,14.16-10.29,32.78-12.3S183.81,94.48,184.33,99.26Z" style="fill: #a7a8ab"/>
            <g style="opacity: 0.5;mix-blend-mode: multiply">
              <path d="M150.36,98.31c15.19-1.64,28-.62,30.76,2.24a1.71,1.71,0,0,0,.22-1c-.39-3.62-14.4-5.08-31.28-3.26s-30.26,6.24-29.87,9.87a1.76,1.76,0,0,0,.52,1C122.51,103.78,135,100,150.36,98.31Z" style="fill: #a7a8ab;mix-blend-mode: multiply"/>
              <path d="M151.47,109.43c15.39-1.66,27.85-5.47,29.65-8.88-2.71-2.86-15.57-3.88-30.76-2.24-15.39,1.66-27.85,5.47-29.65,8.88C123.42,110.06,136.28,111.08,151.47,109.43Z" style="fill: #a7a8ab"/>
            </g>
            <g>
              <path d="M138.52,105.58c3.28-.7,6.16-.71,7.23-.09a.74.74,0,0,0,.1-.49c-.22-1.07-3.66-1.25-7.66-.4s-7.06,2.41-6.83,3.48a.8.8,0,0,0,.42.5C132.35,107.56,135.08,106.31,138.52,105.58Z" style="fill: #a7a8ab;mix-blend-mode: multiply"/>
              <path d="M139,108.49c3.44-.73,6.17-2,6.73-3-1.07-.62-3.95-.61-7.23.09-3.44.73-6.17,2-6.74,3C132.85,109.19,135.74,109.19,139,108.49Z" style="fill: #a7a8ab;mix-blend-mode: multiply"/>
              <path d="M139,108.49c3.44-.73,6.17-2,6.73-3-1.07-.62-3.95-.61-7.23.09-3.44.73-6.17,2-6.74,3C132.85,109.19,135.74,109.19,139,108.49Z" style="fill: #a7a8ab;mix-blend-mode: multiply"/>
            </g>
            <path d="M168.47,102.28a1.89,1.89,0,0,1-.24,1.31c-1,2-4.27,2.54-12.92,2.27-6.27-.2-8.28-1.19-8.9-1.72a.45.45,0,0,0,0,.42s.54,1.79,9.19,2.06,11.91-.23,12.93-2.28A1.85,1.85,0,0,0,168.47,102.28Z" style="fill: #a7a8ab;mix-blend-mode: multiply"/>
            <g style="mix-blend-mode: multiply">
              <path d="M168.69,102.92a8.77,8.77,0,0,0-1.59-1.76c-2.22-2-3.36-2.71-6.16-2.33-2.62.35-13.67,4-14.32,6,.63.52,2.63,1.51,8.91,1.71,8.65.27,11.9-.23,12.92-2.27A2,2,0,0,0,168.69,102.92Zm-6.19,1.64c-6.65.81-10,.93-10.82.49s-1.4-1.19-1.07-1.35c0,0,6.43-2.11,9.19-2.93,2.32-.75,3-.47,4.33.55C166.66,103.27,165.68,104.18,162.5,104.56Z" style="fill: #a7a8ab"/>
            </g>
            <path d="M168.47,102.28a8.23,8.23,0,0,0-1.59-1.77c-2.22-2-3.35-2.71-6.17-2.33-2.61.35-13.66,4-14.3,6,.62.53,2.63,1.52,8.9,1.72,8.65.27,11.9-.23,12.92-2.27A1.89,1.89,0,0,0,168.47,102.28Zm-6.19,1.63c-6.65.81-10,.92-10.81.49s-1.41-1.19-1.09-1.35c0,0,6.44-2.11,9.2-2.92,2.33-.76,3-.47,4.32.54C166.45,102.61,165.46,103.52,162.28,103.91Z" style="fill: #a7a8ab"/>
            <g style="mix-blend-mode: multiply">
              <path d="M123.34,118.08a88.39,88.39,0,0,1,8.44,9.93c3.52,5,12.43,8.62,19.38,12.24s11-1,17.72-4.36,9.83-3.71,9.83-3.71-11.34,4.67-16.86,9.43c-5.3,3.68-21.2-1.41-33.21-8.54,8.22,2.8,13.1,5.83,15.47,5.51s-1.51.54-8.33-4.87C129.29,128.09,125.71,120.85,123.34,118.08Z" style="fill: #86d018"/>
              <path d="M127.89,121.92a51.45,51.45,0,0,0,17.74,5.52c5.73.54,6.7.11,11.79-3.57s8.65-5.62,11.79-5.52c-6.06,1.84-12,5.3-14.71,13.63-1.52-2.7-7.9-2.7-14.06-3.89S133,126.14,127.89,121.92Z" style="fill: #86d018"/>
            </g>
            <path d="M127.11,121.37q2.52,1.44,5.14,2.65a1.92,1.92,0,0,0,.22-.18c-3.37-5.82-6.84-10.93-6.84-10.93l-3.07-.16s1.08,3.38,5.22,7.82Z" style="fill: #fff;opacity: 0.5"/>
            <path d="M140.28,96.73s-20.38,4.45-21,9c-.25,2.85,5.81,5.31,22.24,4.94,7.41.13-12.44,3.29-22.58-2.14C114.62,105.7,119.28,100.07,140.28,96.73Z" style="fill: #fff;opacity: 0.7000000000000001"/>
          </g>
          <path d="M154.27,101.08s-3.93,1.59-4.81,1.89c-.6.23-.36.82.76,1.53,1.11.53-2.06.29-2.71-.3s-.24-.88,2.24-2.06S156.45,99.79,154.27,101.08Z" style="fill: #fff;opacity: 0.7000000000000001"/>
          <path d="M157.47,100s4.2-1.82,6.46.12l1.33-.45a4.64,4.64,0,0,0-3.76-1.27C159.07,98.61,154,101,157.47,100Z" style="fill: #fff;opacity: 0.7000000000000001"/>
        </g>
        <g>
          <g>
            <path d="M283.89,91.11c-1.24,0-9.85,9-9.85,9s-2.08-1.09-2.75-1-4,5.45-4,5.45-3.45-3.39-4.13-3.55-5.48,3.71-5.48,3.71-2.3-10.89-3.31-13.32-.63-3.61-9.05-6.39c-1.65-.52-3.21-1-4.66-1.35-.23,7.13-3.22,34.55-34.95,46.36,1.41,1.28,7.55,6.73,9.75,6.52,2.06-.42,9.71-1.87,9.71-1.87s8.65,10.59,12.79,13.84c0,0,4.21-1,6.94-.25,4.21,1.24,10.69,7.61,15.25,10.7,3.27.3,11.91-2.92,22.38-7.19C312.92,117.31,283.89,91.11,283.89,91.11Z" style="fill: #ee2625"/>
            <path d="M302,119.09c1.76-15.07-11.81-26.3-11.81-26.3s-5.11-1.72-6.34-1.68c0,0,29,26.2-1.36,60.69C293.68,150.92,300.29,134.15,302,119.09Z" style="fill: #a7a8ab"/>
            <path d="M295.58,135c1.93-6.63,3-12.92,2-19.83s-4.31-13.43-7.81-19.33c-.48-.81-2-2.54-1.86-3.79a20,20,0,0,0-4-.93s29,26.2-1.36,60.69c6.36-.5,11.24-6.17,14.59-13.75C295.83,137.59,295,137,295.58,135Z" style="fill: #a7a8ab;mix-blend-mode: multiply"/>
            <g>
              <path d="M271.58,101.53c1.63-1.3,5.69,1.58,13.58,6.71-.41-7.42.54-11.57,1.69-13.89a31.42,31.42,0,0,0-3-3.24c-1.24,0-9.85,9-9.85,9s-2.08-1.09-2.75-1-4,5.45-4,5.45-3.45-3.39-4.13-3.55-5.48,3.71-5.48,3.71-.68-3.22-1.47-6.56l2.94,22.23S270,102.84,271.58,101.53Z" style="fill: #86d018;mix-blend-mode: multiply"/>
              <path d="M295.53,112c-.32,11.73-4.37,23.81-8.23,29.74-5.13,7.89-9.85,7-22.88,5.26s-21.8-2.09-21.8-2.09l-.5-14.05-26.47,2.52-4.06-2.88c29.37-16.31,31.76-37.1,31.22-46.18-.74-.22-1.46-.41-2.15-.59-.23,7.13-3.22,34.55-34.95,46.36,1.41,1.28,7.55,6.73,9.75,6.52,2.06-.42,9.71-1.87,9.71-1.87s8.65,10.59,12.79,13.84c0,0,4.21-1,6.94-.25,4.21,1.24,10.69,7.61,15.25,10.7,3.27.3,11.91-2.92,22.38-7.19C296.18,136.31,297.84,122.49,295.53,112Z" style="fill: #86d018;mix-blend-mode: multiply"/>
            </g>
            <path d="M240.66,83.69a77.83,77.83,0,0,0-10.57-2.11l-28.74,39.53,4.07,8.67.29.27C237.44,118.24,240.43,90.82,240.66,83.69Z" style="fill: #d4d5d6"/>
            <g style="mix-blend-mode: multiply">
              <path d="M235.4,82.46c-3.29-.67-5.31-.88-5.31-.88l-28.74,39.53,4.07,8.67.29.27a56.94,56.94,0,0,0,18.74-11.15,34.75,34.75,0,0,1-4.07-3.93C235.56,100.54,236.09,87.9,235.4,82.46Z" style="fill: #d4d5d6"/>
            </g>
            <g style="mix-blend-mode: multiply">
              <path d="M213.35,125.84a35.59,35.59,0,0,1-7.06-11.52l-4.94,6.79,4.07,8.67.29.27a63.28,63.28,0,0,0,8.14-3.68C213.69,126.19,213.51,126,213.35,125.84Z" style="fill: #d4d5d6"/>
            </g>
            <path d="M224.22,108.08c-8.66,11.19-19.23,17.5-23.63,14.11s-.94-15.23,7.72-26.42,19.23-17.5,23.63-14.1S232.87,96.89,224.22,108.08Z" style="fill: #a7a8ab"/>
            <g style="opacity: 0.5;mix-blend-mode: multiply">
              <path d="M211.62,98.62c7.22-9.33,15.46-15.29,19.38-14.23a3,3,0,0,0-.92-1.3c-3.35-2.58-12.46,3.58-20.35,13.78s-11.57,20.57-8.22,23.16a2.94,2.94,0,0,0,1,.46C201,116.65,204.7,107.58,211.62,98.62Z" style="fill: #a7a8ab;mix-blend-mode: multiply"/>
              <path d="M221.86,106.25c6.91-9,10.6-18,9.14-21.86-3.92-1.06-12.16,4.9-19.38,14.23-6.92,9-10.61,18-9.15,21.87C206.39,121.54,214.63,115.59,221.86,106.25Z" style="fill: #a7a8ab"/>
            </g>
            <g>
              <g>
                <path d="M227.73,92.63a2.78,2.78,0,0,1,.78,1.15,2.63,2.63,0,0,0-.89-2.4c-1.83-1.6-3.55-1-5.68,1.77s-6.74,9.37-6.74,9.37l.73.38c1.32-1.88,4.48-6.34,6.14-8.51C224.19,91.61,225.9,91,227.73,92.63Z" style="fill: #a7a8ab;mix-blend-mode: multiply"/>
                <path d="M225.22,98c2-1.25,3.11-2.8,3.29-4.19a2.78,2.78,0,0,0-.78-1.15c-1.83-1.6-3.54-1-5.66,1.76-1.66,2.17-4.82,6.63-6.14,8.51l.72.37Z" style="fill: #a7a8ab;mix-blend-mode: multiply"/>
                <path d="M225.22,98c2-1.25,3.11-2.8,3.29-4.19a2.78,2.78,0,0,0-.78-1.15c-1.83-1.6-3.54-1-5.66,1.76-1.66,2.17-4.82,6.63-6.14,8.51l.72.37Z" style="fill: #a7a8ab;mix-blend-mode: multiply"/>
              </g>
              <path d="M217.73,105c.87-3.25-1.63-3.6-3.71-1.87a85.88,85.88,0,0,0-6.13,6.3c-3.87,4.3-.39,8.83,2.2,7.32S216.86,108.22,217.73,105ZM212,111.43c-1.4,2.67-2.66,3.82-4.08,2-1.19-1.51,2.64-4.72,2.64-4.72C212.91,107,213.42,108.77,212,111.43Z" style="fill: #818182"/>
              <path d="M217.05,105.07c.86-3.24-1.63-3.59-3.71-1.86a85.8,85.8,0,0,0-6.15,6.29c-3.86,4.31-.38,8.84,2.22,7.33S216.18,108.32,217.05,105.07Zm-5.73,6.46c-1.4,2.67-2.65,3.83-4.08,2-1.19-1.52,2.64-4.73,2.64-4.73C212.22,107.05,212.73,108.87,211.32,111.53Z" style="fill: #a7a8ab"/>
            </g>
            <g style="mix-blend-mode: multiply">
              <path d="M254.51,117.38s4.81,19.25,12.85,22.46a31.88,31.88,0,0,0,3.64-5s-2.93,2.44-5.14,2.34C261.1,131.41,254.51,117.38,254.51,117.38Z" style="fill: #86d018"/>
              <path d="M257.58,105l2.86,11.57S261.56,113.5,257.58,105Z" style="fill: #86d018"/>
              <path d="M262.68,113.71s2.24-4.26,4.54-9C264.7,106.63,263.65,110.23,262.68,113.71Z" style="fill: #86d018"/>
              <path d="M273.5,100.22a67.69,67.69,0,0,0,10.57,6.63C280.66,104.39,278.28,101.34,273.5,100.22Z" style="fill: #86d018"/>
            </g>
            <path d="M233.8,87.63s-1.11,15.62-20,31C221.22,116.06,234.74,97.45,233.8,87.63Z" style="fill: #a7a8ab;mix-blend-mode: multiply"/>
            <path d="M211.15,120.3a16.58,16.58,0,0,1-8,2.86C205.64,123.79,209.43,122.43,211.15,120.3Z" style="fill: #a7a8ab;mix-blend-mode: multiply"/>
            <path d="M216.22,88.49S225,80.32,230,82.18s.71,13.38-2.08,18.38c4.67-6.32,7.54-17.67,2.43-19.36S216.22,88.49,216.22,88.49Z" style="fill: #fff;opacity: 0.7000000000000001"/>
            <path d="M244,91.35s5.39,1.26,7.59,1.67,2.77,2.65,3.8,6.9c-1-7.81-1.09-10.23-4.78-11.72a30.87,30.87,0,0,0-6.3-1.88Z" style="fill: #fff;opacity: 0.5"/>
            <path d="M266.48,111.33s5-10.45,9-7.6a123.92,123.92,0,0,0,11.32,6.54s-1.15-7.07.33-11.17c4.94,7,5.74,9.17,5.74,9.17l-2.41,7s-9.23-2.42-15.17-5.52C272.05,108.7,272.13,106.36,266.48,111.33Z" style="fill: #fff;opacity: 0.5"/>
            <path d="M209.88,107.89s-5,4.47-2.63,6.34l-.64,1.39s-2-1.81.27-5.17C209.45,107.28,211.6,106.77,209.88,107.89Z" style="fill: #fff;opacity: 0.7000000000000001"/>
            <path d="M207.78,114.82a1.63,1.63,0,0,0,2.1,0,3.06,3.06,0,0,1-.18,1.41,2.23,2.23,0,0,1-2.44-.2C207.63,115.27,207.78,114.82,207.78,114.82Z" style="fill: #fff;opacity: 0.7000000000000001"/>
          </g>
          <path d="M292.24,97a36.7,36.7,0,0,1,6.34,31.73c-2,7.12,1.4,1.47,2.79-8.82C303,107.68,292.37,93.57,292.24,97Z" style="fill: #fff;opacity: 0.7000000000000001"/>
        </g>
        <g>
          <g>
            <path d="M284.5,91.11c-1.24,0-9.85,9-9.85,9s-2.08-1.09-2.75-1-4,5.45-4,5.45-3.45-3.39-4.12-3.55-5.49,3.71-5.49,3.71S256,93.86,255,91.43s-.63-3.61-9-6.39c-1.65-.52-3.21-1-4.66-1.35-.23,7.13-3.22,34.55-35,46.36,1.41,1.28,7.55,6.73,9.75,6.52,2.06-.42,9.72-1.87,9.72-1.87s8.64,10.59,12.78,13.84c0,0,4.21-1,6.94-.25,4.21,1.24,10.69,7.61,15.25,10.7,3.27.3,11.91-2.92,22.38-7.19C313.53,117.31,284.5,91.11,284.5,91.11Z" style="fill: #ee2625"/>
            <path d="M302.65,119.09c1.76-15.07-11.81-26.3-11.81-26.3s-5.11-1.72-6.34-1.68c0,0,29,26.2-1.36,60.69C294.29,150.92,300.9,134.15,302.65,119.09Z" style="fill: #a7a8ab"/>
            <path d="M296.19,135c1.93-6.63,3-12.92,2-19.83s-4.31-13.43-7.81-19.33c-.48-.81-2-2.54-1.86-3.79a20,20,0,0,0-4-.93s29,26.2-1.36,60.69c6.36-.5,11.24-6.17,14.59-13.75C296.44,137.59,295.62,137,296.19,135Z" style="fill: #a7a8ab;mix-blend-mode: multiply"/>
            <g>
              <path d="M272.2,101.53c1.62-1.3,5.68,1.58,13.57,6.71-.41-7.42.54-11.57,1.7-13.89a32.06,32.06,0,0,0-3-3.24c-1.24,0-9.85,9-9.85,9s-2.08-1.09-2.75-1-4,5.45-4,5.45-3.45-3.39-4.12-3.55-5.49,3.71-5.49,3.71-.68-3.22-1.47-6.56l2.94,22.23S270.58,102.84,272.2,101.53Z" style="fill: #86d018;mix-blend-mode: multiply"/>
              <path d="M296.14,112c-.32,11.73-4.37,23.81-8.23,29.74-5.13,7.89-9.85,7-22.88,5.26s-21.79-2.09-21.79-2.09l-.51-14.05-26.47,2.52-4.06-2.88c29.37-16.31,31.76-37.1,31.22-46.18-.74-.22-1.46-.41-2.15-.59-.23,7.13-3.22,34.55-35,46.36,1.41,1.28,7.55,6.73,9.75,6.52,2.06-.42,9.72-1.87,9.72-1.87s8.64,10.59,12.78,13.84c0,0,4.21-1,6.94-.25,4.21,1.24,10.69,7.61,15.25,10.7,3.27.3,11.91-2.92,22.38-7.19C296.79,136.31,298.45,122.49,296.14,112Z" style="fill: #86d018;mix-blend-mode: multiply"/>
            </g>
            <path d="M241.27,83.69a77.51,77.51,0,0,0-10.57-2.11L202,121.11l4.07,8.67.29.27C238.05,118.24,241,90.82,241.27,83.69Z" style="fill: #d4d5d6"/>
            <g style="mix-blend-mode: multiply">
              <path d="M236,82.46c-3.3-.67-5.32-.88-5.32-.88L202,121.11l4.07,8.67.29.27a56.94,56.94,0,0,0,18.74-11.15A34.75,34.75,0,0,1,221,115C236.17,100.54,236.7,87.9,236,82.46Z" style="fill: #d4d5d6"/>
            </g>
            <g style="mix-blend-mode: multiply">
              <path d="M214,125.84a35.59,35.59,0,0,1-7.06-11.52L202,121.11l4.07,8.67.29.27a64.06,64.06,0,0,0,8.15-3.68C214.3,126.19,214.12,126,214,125.84Z" style="fill: #d4d5d6"/>
            </g>
            <path d="M224.83,108.08c-8.65,11.19-19.23,17.5-23.63,14.11s-.93-15.23,7.72-26.42,19.23-17.5,23.63-14.1S233.48,96.89,224.83,108.08Z" style="fill: #a7a8ab"/>
            <g style="opacity: 0.5;mix-blend-mode: multiply">
              <path d="M212.23,98.62c7.22-9.33,15.47-15.29,19.38-14.23a2.94,2.94,0,0,0-.92-1.3c-3.35-2.58-12.46,3.58-20.35,13.78s-11.57,20.57-8.22,23.16a2.9,2.9,0,0,0,1,.46C201.63,116.65,205.31,107.58,212.23,98.62Z" style="fill: #a7a8ab;mix-blend-mode: multiply"/>
              <path d="M222.47,106.25c6.92-9,10.61-18,9.14-21.86-3.91-1.06-12.16,4.9-19.38,14.23-6.92,9-10.6,18-9.14,21.87C207,121.54,215.24,115.59,222.47,106.25Z" style="fill: #a7a8ab"/>
            </g>
            <g>
              <g>
                <path d="M228.34,92.63a2.69,2.69,0,0,1,.78,1.15,2.61,2.61,0,0,0-.89-2.4c-1.83-1.6-3.55-1-5.67,1.77s-6.75,9.37-6.75,9.37l.73.38c1.32-1.88,4.48-6.34,6.14-8.51C224.8,91.61,226.51,91,228.34,92.63Z" style="fill: #a7a8ab;mix-blend-mode: multiply"/>
                <path d="M225.83,98c2-1.25,3.11-2.8,3.29-4.19a2.69,2.69,0,0,0-.78-1.15c-1.83-1.6-3.54-1-5.66,1.76-1.66,2.17-4.82,6.63-6.14,8.51l.72.37Z" style="fill: #a7a8ab;mix-blend-mode: multiply"/>
                <path d="M225.83,98c2-1.25,3.11-2.8,3.29-4.19a2.69,2.69,0,0,0-.78-1.15c-1.83-1.6-3.54-1-5.66,1.76-1.66,2.17-4.82,6.63-6.14,8.51l.72.37Z" style="fill: #a7a8ab;mix-blend-mode: multiply"/>
              </g>
              <path d="M218.34,105c.87-3.25-1.63-3.6-3.71-1.87a85.88,85.88,0,0,0-6.13,6.3c-3.87,4.3-.39,8.83,2.2,7.32S217.47,108.22,218.34,105Zm-5.72,6.45c-1.4,2.67-2.66,3.82-4.08,2-1.19-1.51,2.64-4.72,2.64-4.72C213.52,107,214,108.77,212.62,111.43Z" style="fill: #818182"/>
              <path d="M217.66,105.07c.86-3.24-1.63-3.59-3.71-1.86a85.8,85.8,0,0,0-6.15,6.29c-3.86,4.31-.37,8.84,2.22,7.33S216.79,108.32,217.66,105.07Zm-5.72,6.46c-1.4,2.67-2.66,3.83-4.09,2-1.18-1.52,2.65-4.73,2.65-4.73C212.83,107.05,213.34,108.87,211.94,111.53Z" style="fill: #a7a8ab"/>
            </g>
            <g style="mix-blend-mode: multiply">
              <path d="M255.12,117.38s4.81,19.25,12.86,22.46a32.13,32.13,0,0,0,3.63-5s-2.93,2.44-5.14,2.34C261.71,131.41,255.12,117.38,255.12,117.38Z" style="fill: #86d018"/>
              <path d="M258.19,105l2.87,11.57S262.17,113.5,258.19,105Z" style="fill: #86d018"/>
              <path d="M263.29,113.71s2.24-4.26,4.54-9C265.31,106.63,264.27,110.23,263.29,113.71Z" style="fill: #86d018"/>
              <path d="M274.11,100.22a67.69,67.69,0,0,0,10.57,6.63C281.27,104.39,278.89,101.34,274.11,100.22Z" style="fill: #86d018"/>
            </g>
            <path d="M234.41,87.63s-1.11,15.62-20,31C221.83,116.06,235.35,97.45,234.41,87.63Z" style="fill: #a7a8ab;mix-blend-mode: multiply"/>
            <path d="M211.76,120.3a16.53,16.53,0,0,1-8,2.86C206.25,123.79,210,122.43,211.76,120.3Z" style="fill: #a7a8ab;mix-blend-mode: multiply"/>
            <path d="M216.83,88.49s8.81-8.17,13.77-6.31.71,13.38-2.08,18.38c4.67-6.32,7.54-17.67,2.43-19.36S216.83,88.49,216.83,88.49Z" style="fill: #fff;opacity: 0.7000000000000001"/>
            <path d="M244.62,91.35S250,92.61,252.2,93s2.77,2.65,3.8,6.9c-1-7.81-1.09-10.23-4.78-11.72a30.87,30.87,0,0,0-6.3-1.88Z" style="fill: #fff;opacity: 0.5"/>
            <path d="M267.09,111.33s5-10.45,9-7.6a123.92,123.92,0,0,0,11.32,6.54s-1.15-7.07.33-11.17c4.94,7,5.75,9.17,5.75,9.17l-2.42,7s-9.23-2.42-15.16-5.52C272.66,108.7,272.74,106.36,267.09,111.33Z" style="fill: #fff;opacity: 0.5"/>
            <path d="M210.5,107.89s-5,4.47-2.64,6.34l-.64,1.39s-2-1.81.27-5.17C210.06,107.28,212.21,106.77,210.5,107.89Z" style="fill: #fff;opacity: 0.7000000000000001"/>
            <path d="M208.39,114.82a1.64,1.64,0,0,0,2.11,0,3.11,3.11,0,0,1-.19,1.41,2.23,2.23,0,0,1-2.44-.2C208.24,115.27,208.39,114.82,208.39,114.82Z" style="fill: #fff;opacity: 0.7000000000000001"/>
          </g>
          <path d="M292.86,97a36.71,36.71,0,0,1,6.33,31.73c-2,7.12,1.4,1.47,2.79-8.82C303.64,107.68,293,93.57,292.86,97Z" style="fill: #fff;opacity: 0.7000000000000001"/>
        </g>
      </g>
    </g>
  </g>
</svg>
