<svg xmlns="http://www.w3.org/2000/svg" xmlns:xlink="http://www.w3.org/1999/xlink" viewBox="0 0 380 126">
  <defs>
    <filter id="luminosity-noclip" x="191.16" y="-7612.39" width="27.87" height="32766" filterUnits="userSpaceOnUse" color-interpolation-filters="sRGB">
      <feFlood flood-color="#fff" result="bg"/>
      <feBlend in="SourceGraphic" in2="bg"/>
    </filter>
    <mask id="mask" x="191.16" y="-7612.39" width="27.87" height="32766" maskUnits="userSpaceOnUse">
      <g style="filter: url(#luminosity-noclip)"/>
    </mask>
    <radialGradient id="radial-gradient" cx="-295.36" cy="694.21" r="55.82" gradientTransform="translate(152.17 -675.46) rotate(-24.5)" gradientUnits="userSpaceOnUse">
      <stop offset="0.64" stop-color="#fff"/>
      <stop offset="0.98"/>
    </radialGradient>
    <radialGradient id="radial-gradient-2" cx="-272.09" cy="697.7" r="48.92" gradientTransform="translate(152.17 -675.46) rotate(-24.5)" gradientUnits="userSpaceOnUse">
      <stop offset="0.46" stop-color="#fff"/>
      <stop offset="0.94"/>
    </radialGradient>
    <filter id="luminosity-noclip-2" x="176.19" y="-7612.39" width="30.88" height="32766" filterUnits="userSpaceOnUse" color-interpolation-filters="sRGB">
      <feFlood flood-color="#fff" result="bg"/>
      <feBlend in="SourceGraphic" in2="bg"/>
    </filter>
    <mask id="mask-2" x="176.19" y="-7612.39" width="30.88" height="32766" maskUnits="userSpaceOnUse">
      <g style="filter: url(#luminosity-noclip-2)"/>
    </mask>
    <radialGradient id="radial-gradient-3" cx="-224.06" cy="710.99" r="67.98" gradientTransform="translate(152.17 -675.46) rotate(-24.5)" gradientUnits="userSpaceOnUse">
      <stop offset="0.91" stop-color="#fff"/>
      <stop offset="1"/>
    </radialGradient>
    <filter id="luminosity-noclip-3" x="168.24" y="-7612.39" width="37.47" height="32766" filterUnits="userSpaceOnUse" color-interpolation-filters="sRGB">
      <feFlood flood-color="#fff" result="bg"/>
      <feBlend in="SourceGraphic" in2="bg"/>
    </filter>
    <mask id="mask-3" x="168.24" y="-7612.39" width="37.47" height="32766" maskUnits="userSpaceOnUse">
      <g style="filter: url(#luminosity-noclip-3)"/>
    </mask>
    <radialGradient id="radial-gradient-4" cx="-191.94" cy="715.07" r="108.89" gradientTransform="translate(152.17 -675.46) rotate(-24.5)" gradientUnits="userSpaceOnUse">
      <stop offset="0.93"/>
      <stop offset="0.99" stop-color="#fff"/>
    </radialGradient>
    <linearGradient id="linear-gradient" x1="-277.98" y1="687.58" x2="-277.98" y2="803.56" gradientTransform="translate(152.17 -675.46) rotate(-24.5)" gradientUnits="userSpaceOnUse">
      <stop offset="0.27" stop-color="#f0f0f0"/>
      <stop offset="0.91" stop-color="#cfcfcf"/>
      <stop offset="0.94" stop-color="#ececec"/>
      <stop offset="0.98" stop-color="#b3b3b3"/>
    </linearGradient>
    <linearGradient id="linear-gradient-2" x1="-277.98" y1="687.58" x2="-277.98" y2="752.44" gradientTransform="translate(152.17 -675.46) rotate(-24.5)" gradientUnits="userSpaceOnUse">
      <stop offset="0.9" stop-color="#f0f0f0"/>
      <stop offset="0.92" stop-color="#929292"/>
      <stop offset="0.94" stop-color="#3d3d3d"/>
      <stop offset="0.94" stop-color="#1c1c1c"/>
      <stop offset="0.97" stop-color="#cfcfcf"/>
      <stop offset="0.99" stop-color="#ececec"/>
      <stop offset="1" stop-color="#b3b3b3"/>
    </linearGradient>
    <linearGradient id="linear-gradient-3" x1="-279.25" y1="774.52" x2="-276.46" y2="774.52" gradientTransform="translate(152.17 -675.46) rotate(-24.5)" gradientUnits="userSpaceOnUse">
      <stop offset="0.18" stop-color="#585858"/>
      <stop offset="0.54" stop-color="#cfcfcf"/>
      <stop offset="0.68" stop-color="#eaeaea"/>
      <stop offset="0.76" stop-color="#b3b3b3"/>
      <stop offset="0.94" stop-color="#8e8e8e"/>
    </linearGradient>
    <radialGradient id="radial-gradient-5" cx="-277.71" cy="750.83" r="3.71" gradientTransform="translate(152.17 -675.46) rotate(-24.5)" gradientUnits="userSpaceOnUse">
      <stop offset="0.01" stop-color="#ececec"/>
      <stop offset="0.22" stop-color="#b3b3b3"/>
      <stop offset="0.38" stop-color="#cfcfcf"/>
      <stop offset="1" stop-color="#1c1c1c"/>
    </radialGradient>
    <radialGradient id="radial-gradient-6" cx="-77.67" cy="646.13" r="1.93" gradientTransform="matrix(0.82, -0.37, 0.45, 0.99, -15.39, -542.88)" gradientUnits="userSpaceOnUse">
      <stop offset="0.01" stop-color="#ececec"/>
      <stop offset="0.22" stop-color="#b3b3b3"/>
      <stop offset="1" stop-color="#1c1c1c"/>
    </radialGradient>
    <linearGradient id="linear-gradient-4" x1="-277.69" y1="753.37" x2="-277.69" y2="799.89" gradientTransform="translate(152.17 -675.46) rotate(-24.5)" gradientUnits="userSpaceOnUse">
      <stop offset="0.16" stop-color="#1c1c1c"/>
      <stop offset="0.34" stop-color="#8f8f8f"/>
      <stop offset="0.46" stop-color="gray"/>
      <stop offset="0.47" stop-color="#7e7e7e"/>
      <stop offset="0.62" stop-color="#696969"/>
      <stop offset="0.75" stop-color="#575757"/>
      <stop offset="0.87" stop-color="#d8d8d8"/>
      <stop offset="0.94" stop-color="#5e5e5e"/>
      <stop offset="0.99" stop-color="#1c1c1c"/>
    </linearGradient>
    <linearGradient id="linear-gradient-5" x1="-277.95" y1="754.67" x2="-277.95" y2="794.46" gradientTransform="translate(152.17 -675.46) rotate(-24.5)" gradientUnits="userSpaceOnUse">
      <stop offset="0"/>
      <stop offset="0.12" stop-color="#cfcfcf"/>
      <stop offset="0.21" stop-color="#fff"/>
      <stop offset="0.74" stop-color="#eaeaea"/>
      <stop offset="0.92" stop-color="#b3b3b3"/>
      <stop offset="1"/>
    </linearGradient>
    <radialGradient id="radial-gradient-7" cx="-276.91" cy="710.69" r="41.17" gradientTransform="translate(152.17 -675.46) rotate(-24.5)" gradientUnits="userSpaceOnUse">
      <stop offset="0.1" stop-color="#fff"/>
      <stop offset="1"/>
    </radialGradient>
    <mask id="mask-4" x="191.16" y="59.6" width="27.87" height="56.47" maskUnits="userSpaceOnUse">
      <g style="mask: url(#mask)">
        <path d="M214.31,116.07S226.87,104.57,211,78c-6.65-11.14-10.17-15.23-12.17-18.38l-7.67,3.5c3,4.58,5.39,7,10.39,16.1C211.09,96.56,215.64,107,214.31,116.07Z" style="mix-blend-mode: multiply;fill: url(#radial-gradient)"/>
      </g>
    </mask>
    <radialGradient id="radial-gradient-8" cx="-295.36" cy="694.21" r="55.82" gradientTransform="translate(152.17 -675.46) rotate(-24.5)" gradientUnits="userSpaceOnUse">
      <stop offset="0.64" stop-color="#fff"/>
      <stop offset="0.98" stop-color="#fff"/>
    </radialGradient>
    <mask id="mask-5" x="174.91" y="67.01" width="32.16" height="53.03" maskUnits="userSpaceOnUse">
      <path d="M188.79,90A217.42,217.42,0,0,1,180.28,67l-5.37,2.45c4.35,16.28,15.28,48.18,32.16,50.59C207.07,120.05,199.59,114.58,188.79,90Z" style="opacity: 0.8;fill: url(#radial-gradient-2)"/>
    </mask>
    <filter id="luminosity-noclip-4" x="176.19" y="67.58" width="30.88" height="52.47" filterUnits="userSpaceOnUse" color-interpolation-filters="sRGB">
      <feFlood flood-color="#fff" result="bg"/>
      <feBlend in="SourceGraphic" in2="bg"/>
    </filter>
    <mask id="mask-6" x="176.19" y="67.58" width="30.88" height="52.47" maskUnits="userSpaceOnUse">
      <g style="mask: url(#mask-2);filter: url(#luminosity-noclip-4)">
        <path d="M207.07,120.05s-7.48-5.47-18.28-30.09c-3-6.8-4-10.37-7.45-22.38l-5.15,2.34C179.24,83.11,188.11,117.34,207.07,120.05Z" style="mix-blend-mode: multiply;fill: url(#radial-gradient-3)"/>
      </g>
    </mask>
    <radialGradient id="radial-gradient-9" cx="-224.06" cy="710.99" r="67.98" gradientTransform="translate(152.17 -675.46) rotate(-24.5)" gradientUnits="userSpaceOnUse">
      <stop offset="0.91" stop-color="#fff"/>
      <stop offset="1" stop-color="#fff"/>
    </radialGradient>
    <filter id="luminosity-noclip-5" x="168.24" y="71.9" width="37.47" height="49.39" filterUnits="userSpaceOnUse" color-interpolation-filters="sRGB">
      <feFlood flood-color="#fff" result="bg"/>
      <feBlend in="SourceGraphic" in2="bg"/>
    </filter>
    <mask id="mask-7" x="168.24" y="71.9" width="37.47" height="49.39" maskUnits="userSpaceOnUse">
      <g style="mask: url(#mask-3);filter: url(#luminosity-noclip-5)">
        <path d="M181,99.64c-3.9-8.15-8.15-22-9.16-27.74l-3.6,1.64c-.18,1.75,2.9,17.46,7.24,27.75s11,16.63,18,18.94c4.51,1.48,8,1.2,12.18.43C193.29,121.06,185.75,109.55,181,99.64Z" style="mix-blend-mode: multiply;fill: url(#radial-gradient-4)"/>
      </g>
    </mask>
    <radialGradient id="radial-gradient-10" cx="-191.94" cy="715.07" r="108.89" gradientTransform="translate(152.17 -675.46) rotate(-24.5)" gradientUnits="userSpaceOnUse">
      <stop offset="0.93" stop-color="#fff"/>
      <stop offset="0.99" stop-color="#fff"/>
    </radialGradient>
    <radialGradient id="radial-gradient-11" cx="-262.61" cy="717.18" r="21.39" gradientTransform="translate(152.17 -675.46) rotate(-24.5)" gradientUnits="userSpaceOnUse">
      <stop offset="0.47" stop-color="#1e1e1e"/>
      <stop offset="0.54" stop-color="#232323"/>
      <stop offset="0.62" stop-color="#303030"/>
      <stop offset="0.7" stop-color="#474747"/>
      <stop offset="0.79" stop-color="#666"/>
      <stop offset="0.87" stop-color="#8e8e8e"/>
      <stop offset="0.96" stop-color="#bfbfbf"/>
      <stop offset="0.99" stop-color="#d3d3d3"/>
    </radialGradient>
    <radialGradient id="radial-gradient-12" cx="-291.26" cy="731.39" r="28.03" gradientTransform="translate(152.17 -675.46) rotate(-24.5)" gradientUnits="userSpaceOnUse">
      <stop offset="0"/>
      <stop offset="0.88" stop-color="#fff"/>
    </radialGradient>
    <radialGradient id="radial-gradient-13" cx="-3937.45" cy="329.86" r="10.84" gradientTransform="matrix(-0.6, 0.27, 0.59, 1.3, -2342.91, 758.31)" gradientUnits="userSpaceOnUse">
      <stop offset="0.59" stop-color="#f0f0f0"/>
      <stop offset="0.99" stop-color="#d3d3d3"/>
    </radialGradient>
    <radialGradient id="radial-gradient-14" cx="1645.03" cy="329.93" r="10.84" gradientTransform="matrix(0.62, -0.28, 0.59, 1.3, -1012.36, 151.79)" xlink:href="#radial-gradient-13"/>
    <radialGradient id="radial-gradient-15" cx="-281.06" cy="187.15" r="8.89" gradientTransform="matrix(0.91, -0.42, 0.7, 1.53, 334.8, -283.26)" xlink:href="#radial-gradient-13"/>
  </defs>
  <g style="isolation: isolate">
    <g id="Layer_1" data-name="Layer 1">
      <g>
        <g>
          <path d="M261.52,168c1.78,28.32-9.51,60.1-9.51,60.1a6.5,6.5,0,0,1-1.65,1.38c-1.1.65-1.77,2.57-1.2,4.51.22.73-.34,1.45-1,2.9s-2.28,3.39-2.08,4.56,1.3,5.07,9.71,8.05l.15,0,.17.05c8.58,2.35,11.73-.22,12.55-1.07s.61-3.36.88-4.94.23-2.48.82-3c1.58-1.28,2.12-3.22,1.6-4.39a6.53,6.53,0,0,1-.57-2.07s8.85-32.54,26.49-54.79,14.76-18,20.47-36.24L338,80.45c3.11-9.91,3.57-13.54.66-15.57-2.29-1.58-6.81-6.44-21.37-11.09-14.61-4.49-21.09-3.08-23.87-3.08-3.55,0-5.24,3.25-8.35,13.16s-13.94,44.5-19.65,62.7S259.72,139.68,261.52,168Z" style="fill: #613101"/>
          <path d="M261.52,168c1.78,28.32-9.51,60.1-9.51,60.1a6.5,6.5,0,0,1-1.65,1.38c-1.1.65-1.77,2.57-1.2,4.51.22.73-.34,1.45-1,2.9s-2.28,3.39-2.08,4.56,1.28,5,9.44,7.95c-.09-2.37-.64-4.74-.63-7.11a45.49,45.49,0,0,1,1.63-11.18c2.06-7.82,4.8-15.49,7.11-23.24.71-2.34,1.44-4.67,2.21-7,3.11-14,6.65-28,9.14-42.16,1.44-8.22,2.8-16.34,5.05-24.4,2.18-7.83,4.77-15.53,7.32-23.24s5.25-15.36,7-23.25c1.23-5.61,2.28-11.26,3.79-16.8,1.73-6.34,4.33-14.68,9.41-19.68a51.81,51.81,0,0,0-14.12-.66c-3.55,0-5.24,3.25-8.35,13.16l-19.65,62.7C259.69,144.78,259.72,139.68,261.52,168Z" style="fill: #92806a;opacity: 0.5;mix-blend-mode: screen"/>
          <path d="M293.56,58.34A25.5,25.5,0,0,1,300,61.17a54.57,54.57,0,0,0,9.79,4c4,1.23,8.15,2.39,12.25,3.36,2,.49,4.07.9,6.11,1.28l2.91.52.39.08s.1,0,.38,0l.68,0c2.73-.14,6,.19,7.13,3.21.06.13.1.27.16.41,1.26-5.2,1-7.59-1.2-9.1s-6.81-6.44-21.37-11.09c-14.61-4.49-21.09-3.08-23.87-3.08-2.95,0-4.62,2.24-6.87,8.64A9.36,9.36,0,0,1,293.56,58.34Z" style="fill: #351801;opacity: 0.4;mix-blend-mode: multiply"/>
          <path d="M291.31,52.11c.81,2.17,2.89,3.76,4.79,4.93a77.7,77.7,0,0,0,19.46,8.13,128.65,128.65,0,0,0,18.13,3.92c1.83.24,5.37.82,6.51-1.17a3.68,3.68,0,0,0,.21-.45,4.24,4.24,0,0,0-1.78-2.59c-2.29-1.58-6.81-6.44-21.37-11.09-14.61-4.49-21.09-3.08-23.87-3.08a4.29,4.29,0,0,0-2.28.6A4.93,4.93,0,0,0,291.31,52.11Zm8.83,2.49a28.85,28.85,0,0,1,11.06.72c7.67,1.92,14.87,3.72,20.74,8.91.55.5,1.51,2.63-3.27,2.48-5.94-.2-24.63-4.88-29.61-9.77C298.67,56.54,297.69,55,300.14,54.6Z" style="fill: #351801;opacity: 0.4;mix-blend-mode: multiply"/>
          <path d="M302.73,50.7a44.88,44.88,0,0,0-5.52-.18c-3.41,4.21-4.77,9.95-6,15.13-1.95,8.11-4.23,16.14-6.28,24.22-2.19,8.62-4.65,17.12-7.35,25.6s-7.47,20.71-8.92,29.56a96.2,96.2,0,0,0-.94,14.7c-.1,5.63.29,7-.39,12a222.33,222.33,0,0,1-5.57,27.89c-2.73,10-6.62,20.75-7,31.34a93.68,93.68,0,0,1,2.52-13.59c2.14-8.32,5-16.42,7.49-24.64,2.85-9.45,2.84-12.51,4.25-22.27,1.29-9,.48-18.47,4.44-32.26,2.85-9.93,7.25-23.1,10.25-33,2.6-8.53,5.55-17,7.82-25.6,1.49-5.65,2.78-11.37,4.76-16.88C297.81,58.52,299.75,54.17,302.73,50.7Z" style="fill: #92806a;mix-blend-mode: screen"/>
          <path d="M333.27,65.31c-.44,3.19-2.8,9.82-3.69,12.88-1.4,4.79-2.41,9.72-3.59,14.57-2.44,10.08-6.66,21.29-9.76,31.2-2.79,8.92-5.6,21.44-9.11,30.13A60.16,60.16,0,0,1,301,166.17c-2.75,4.11-4.53,6.63-7.34,10.69a127.14,127.14,0,0,0-12.54,23.39c-6.95,16.44-14.21,32.86-18.09,50.32,3.49-.14,5.05-1.45,5.6-2,.83-.85.61-3.36.88-4.94s.23-2.48.82-3c1.58-1.28,2.12-3.22,1.6-4.39a6.53,6.53,0,0,1-.57-2.07s8.85-32.54,26.49-54.79,14.76-18,20.47-36.24L338,80.45c3.11-9.91,3.57-13.54.66-15.57a52.09,52.09,0,0,0-11.91-7.48C330.18,60.37,333.91,60.58,333.27,65.31Z" style="fill: #351801"/>
          <path d="M258.86,250.25a20.46,20.46,0,0,0,4.1.33c.08-.93.19-1.86.35-2.77,1.53-9.08,5.26-17.51,8.57-26,1.86-4.8,3.28-9.78,4.93-14.65a111.37,111.37,0,0,1,5.73-13.84c4.36-8.75,8.48-12.92,13.89-21.06,2.93-4.39,7.52-9.9,9.66-13.8a110.2,110.2,0,0,0,7.29-17.93c2.82-9,6.34-22.1,9.09-31.14,2.48-8.17,5.87-17.65,8.31-25.83,2.22-7.41,4.75-15.17,3.94-19.65-.31-1.68-2.34-3.17-4.45-4.71a67.28,67.28,0,0,0-8-3.62c.81,1.54,4.31.72,3.7,5.61-.94,7.89-6.8,23.1-8.95,30.73-2.24,7.93-12.78,45.18-15.32,53.85-2.82,9.61-8.62,19.42-12.92,28.44-2.23,4.7-5.37,6.84-7.41,11.62-1.93,4.52-3.16,5.6-5,10.17C269.47,213.61,261.77,231.38,258.86,250.25Z" style="fill: #fff6e8;opacity: 0.5"/>
          <path d="M261.52,168c1.78,28.32-9.51,60.1-9.51,60.1a6.5,6.5,0,0,1-1.65,1.38c-1.1.65-1.77,2.57-1.2,4.51.22.73-.34,1.45-1,2.9s-2.28,3.39-2.08,4.56a6.13,6.13,0,0,0,1.19,2.65c4-12.13,8.64-24,12.84-36.1,3.45-9.89,4-18.76,5.31-31.35,1.12-11.08-.73-20.59,1-32,1.55-10.1,4.34-16.79,8.32-29.7,2.9-9.45,7-20.31,9.39-29.88s6.88-22.4,10.2-31.63c1-2.85,10.31-1.84,13-2.12a52.12,52.12,0,0,0-13.9-.62c-3.55,0-5.24,3.25-8.35,13.16l-19.65,62.7C259.69,144.78,259.72,139.68,261.52,168Z" style="fill: #402407"/>
          <path d="M297.91,164.4c1,.73,2,1.43,3,2.13a75.92,75.92,0,0,0,7.6-12.67c3.49-7.57,10-32.42,10-32.42l-4.21-2.21s-2.83,10.44-5.23,18.13-5.78,17.74-7.86,21.53C300.45,160.22,299.2,162.29,297.91,164.4Z" style="fill: #fff"/>
          <path d="M332.29,78l-3.8-2.75s1.54-7.07,2.37-9.7-.44-5.69-7.48-9.45c0,0,11.68,4.55,12.36,8.77S332.29,78,332.29,78Z" style="fill: #fff"/>
        </g>
        <g>
          <path d="M272.26,106C253,85.13,241.74,53.35,241.74,53.35a6.69,6.69,0,0,1,.42-2.11c.44-1.2-.26-3.1-1.92-4.25-.63-.44-.64-1.34-1-2.9S238.85,40,238,39.23s-4.2-3.12-12.6-.12l-.15,0-.16.07c-8.15,3.59-9,7.56-9.07,8.75s1.64,3,2.43,4.39,1.38,2.07,1.23,2.82c-.43,2,.38,3.83,1.52,4.41a6.39,6.39,0,0,1,1.76,1.24s13.63,30.85,14,59.23-.09,23.31,7,41l24.29,61.06c3.84,9.65,5.76,12.76,9.31,12.49,2.77-.2,9.34.72,23.57-4.86s18.31-10.9,20.47-12.65c2.76-2.24,2-5.83-1.82-15.47s-17.23-43.34-24.27-61.07S291.52,126.86,272.26,106Z" style="fill: #496101"/>
          <path d="M272.26,106C253,85.13,241.74,53.35,241.74,53.35a6.69,6.69,0,0,1,.42-2.11c.44-1.2-.26-3.1-1.92-4.25-.63-.44-.64-1.34-1-2.9S238.85,40,238,39.23s-4.14-3.07-12.34-.21c1.56,1.78,3.49,3.27,5,5.11a45,45,0,0,1,5.78,9.72c3.33,7.36,6,15.05,9.13,22.51.93,2.26,1.83,4.54,2.7,6.82,6.44,12.86,12.48,25.92,19.49,38.49,4.06,7.28,8.13,14.45,11.46,22.12,3.25,7.45,6.09,15.07,9,22.66s5.6,15.23,9.24,22.45c2.57,5.13,5.32,10.18,7.64,15.44,2.66,6,5.9,14.11,5.11,21.2a52.12,52.12,0,0,0,11.37-8.39c2.76-2.24,2-5.83-1.82-15.47l-24.27-61.07C288.33,122.88,291.52,126.86,272.26,106Z" style="fill: #86926a;opacity: 0.5;mix-blend-mode: screen"/>
          <path d="M314.24,223a44.41,44.41,0,0,0,4.4-3.34c0-5.41-2.57-10.73-4.87-15.54-3.6-7.53-6.9-15.19-10.4-22.75-3.74-8.07-7.18-16.23-10.43-24.51s-7.26-20.79-11.71-28.57a97.79,97.79,0,0,0-8.54-12c-3.48-4.43-4.66-5.28-7.27-9.58a220.81,220.81,0,0,1-13.27-25.14c-4.2-9.51-7.94-20.29-14.32-28.75A93.79,93.79,0,0,1,244.44,65c3.58,7.81,6.47,15.91,9.72,23.85,3.75,9.13,5.69,11.5,10.75,20,4.65,7.78,11.27,14.64,16.89,27.85,4.05,9.5,8.94,22.49,12.84,32.06,3.36,8.25,6.4,16.68,10.07,24.8,2.4,5.32,5,10.57,6.94,16.1C313.13,213.88,314.36,218.47,314.24,223Z" style="fill: #86926a;mix-blend-mode: screen"/>
          <path d="M281.32,231c-1.67-2.75-4-9.39-5.26-12.33-1.93-4.59-4.25-9.06-6.39-13.56-4.46-9.37-8.25-20.73-12.1-30.38-3.46-8.68-9.17-20.17-11.93-29.13a60.41,60.41,0,0,1-2.86-13.23c-.46-4.92-.66-8-1-12.93a127.57,127.57,0,0,0-5-26.06C231.75,76.2,227,58.88,219,42.88c-2.62,2.31-3,4.31-3.06,5.1-.11,1.18,1.64,3,2.43,4.39s1.38,2.07,1.23,2.82c-.43,2,.38,3.83,1.52,4.41a6.39,6.39,0,0,1,1.76,1.24s13.63,30.85,14,59.23-.09,23.31,7,41l24.29,61.06c3.84,9.65,5.76,12.76,9.31,12.49a51.56,51.56,0,0,0,14-1.69C286.84,232.85,283.8,235,281.32,231Z" style="fill: #2b3501"/>
          <path d="M222.48,40.49a21,21,0,0,0-3.39,2.33c.52.78,1,1.57,1.47,2.38,4.54,8,7,16.9,9.76,25.6,1.58,4.91,3.63,9.66,5.41,14.48A111,111,0,0,1,240,99.63c2.14,9.55,1.57,15.38,2.49,25.11.5,5.25.41,12.42,1.21,16.8a109.31,109.31,0,0,0,5.65,18.51c3.49,8.79,9,21.16,12.58,29.91,3.21,7.91,6.56,17.4,9.83,25.28,3,7.16,5.87,14.78,9.33,17.74,1.3,1.11,3.82,1,6.42.86a65.3,65.3,0,0,0,8.46-2.22c-1.59-.68-3.79,2.16-6.41-2-4.25-6.72-9.28-22.23-12.42-29.5-3.26-7.57-18.57-43.13-22.07-51.46-3.87-9.23-5.54-20.51-7.9-30.22-1.23-5.05-.14-8.69-1.57-13.69-1.35-4.72-1.07-6.34-2.55-11C237.35,75.63,232.12,57,222.48,40.49Z" style="fill: #f7ffe8;opacity: 0.5"/>
          <path d="M272.26,106C253,85.13,241.74,53.35,241.74,53.35a6.69,6.69,0,0,1,.42-2.11c.44-1.2-.26-3.1-1.92-4.25-.63-.44-.64-1.34-1-2.9S238.85,40,238,39.23a6,6,0,0,0-2.59-1.3c4.55,11.93,8.45,24.1,12.8,36.12,3.55,9.85,8.69,17.1,15.64,27.67,6.11,9.32,13.55,15.53,19.38,25.49,5.17,8.82,7.21,15.78,12.28,28.31,3.7,9.16,7.36,20.17,11.54,29.11s8.79,21.72,12,31c1,2.86-6.83,7.93-8.71,9.81a51.87,51.87,0,0,0,11.18-8.28c2.76-2.24,2-5.83-1.82-15.47l-24.27-61.07C288.33,122.88,291.52,126.86,272.26,106Z" style="fill: #314007"/>
          <path d="M241.15,109c0-.09-.06-.19-.09-.27-.71-2-1.18-4.12-1.82-6.17-1.66-5.28-3.25-10.59-5-15.87-1.75-5.44-3.9-10.75-5.82-16.13-.93-2.6-1.91-5.2-3-7.73-.48-1.09-1.07-2-.53-3.11a.27.27,0,0,1,.05-.36,20.19,20.19,0,0,1,6.13-4.15c2.26-1.05,4.66-2.18,7.2-2.3a5.58,5.58,0,0,1,3.77,1.33c-.22-.57-.33-.88-.33-.88a6.69,6.69,0,0,1,.42-2.11,2.38,2.38,0,0,0,.12-.94h0c-.58,1.26-1.59,1.41-2.91,1.49l-.38,0a46.52,46.52,0,0,0-13.93,6c-1.21,1.13-2.77,2.27-3.77,1.18a4.32,4.32,0,0,1-1.08-3c.08-1.35,1.35-2,2.34-2.69a.34.34,0,0,1,.33,0A31.74,31.74,0,0,1,232,48.82a34.37,34.37,0,0,1,8.43-1.69.86.86,0,0,0-.18-.14c-.63-.44-.64-1.34-1-2.9S238.85,40,238,39.23a4.4,4.4,0,0,0-.84-.6,3.65,3.65,0,0,1,.31.43,7.54,7.54,0,0,1,.84,2.94c.16,1,.48,1.89.64,2.84.25,1.58-.46,2-2,2.19a23.8,23.8,0,0,0-5.8,1.67,2.91,2.91,0,0,1-.41.3,2.18,2.18,0,0,1-1.25.4c-.29.11-.57.24-.84.36a66.74,66.74,0,0,0-6,3.05s-.05,0-.08,0L221,53.7c-1.11.64-1.95-.74-2.41-1.53-.92-1.62-2.07-3.36-2-5.29a4.17,4.17,0,0,1,.57-1.93A6.21,6.21,0,0,0,216,48c-.11,1.18,1.64,3,2.43,4.39s1.38,2.07,1.23,2.82c-.43,2,.38,3.83,1.52,4.41a6.39,6.39,0,0,1,1.76,1.24s10.45,23.64,13.27,48.57A34.15,34.15,0,0,0,241.15,109Z" style="fill: #d69827;mix-blend-mode: multiply"/>
          <path d="M245.9,128.71c-.42-3.38-.75-6.22-.75-6.22l-2.61.35c0,.93-.1,3.14,0,6.11C243.63,128.86,244.77,128.77,245.9,128.71Z" style="fill: #fff"/>
          <path d="M223.42,55.37c-.09-.16-.37-.08-.31.11s.07.29.11.43a.58.58,0,0,0,.21.4.2.2,0,0,0,.31-.1C223.81,55.93,223.56,55.6,223.42,55.37Z" style="fill: #fbf69b"/>
          <path d="M224.54,55.37l-.41-.28c-.18-.1-.47.08-.33.28s.18.34.3.5a.32.32,0,0,0,.32.11h0a.3.3,0,0,0,.24-.27v0A.32.32,0,0,0,224.54,55.37Z" style="fill: #fbf69b"/>
          <path d="M226.7,53.16a.34.34,0,0,0-.45,0s0,0,0,0a.56.56,0,0,0-1,.34c0,.14,0,.28,0,.42a.56.56,0,0,0-.21-.09.16.16,0,0,0-.23.09c-.14.22,0,.53.09.76a3.65,3.65,0,0,0,.54,1,.54.54,0,0,0,.91-.19,4,4,0,0,0,0-.46.54.54,0,0,0,.59-.24A1.25,1.25,0,0,0,226.7,53.16Z" style="fill: #fbf69b"/>
          <path d="M230.83,52a5.18,5.18,0,0,0-.57-.89.26.26,0,0,0-.41,0,.3.3,0,0,0-.4.35,6.25,6.25,0,0,0,.17.72l-.68-.33a.41.41,0,0,0-.51.1.54.54,0,0,0-.75.48v.12l-.17-.15c-.31-.24-.65.16-.53.48a4.09,4.09,0,0,0,.92,1.28.63.63,0,0,0,.89-.07l.08.06a.57.57,0,0,0,.81-.72c0-.05,0-.11-.05-.17a.5.5,0,0,0,.42-.06.56.56,0,0,0,.38.07.45.45,0,0,0,.32-.24.31.31,0,0,0,.29-.22A1.16,1.16,0,0,0,230.83,52Z" style="fill: #fbf69b"/>
          <path d="M234.41,50.62a1.45,1.45,0,0,0-.84-.77.3.3,0,0,0-.32.48,1.2,1.2,0,0,1,.23.54h0a1.93,1.93,0,0,1-.41-.61c-.22-.54-1-.29-1,.21v0h-.18a.3.3,0,0,0-.17.12c0-.06-.1.06-.1.06a.11.11,0,0,0,.06.19s0,0,0,0l0,0a1.61,1.61,0,0,1,.09.29v0a2.8,2.8,0,0,0-.46-.39c-.23-.16-.48.15-.32.37.33.41.5.89.79,1.31a.31.31,0,0,0,.54-.11.5.5,0,0,0,.61-.34s0-.1,0-.15a.9.9,0,0,0,.19.15.5.5,0,0,0,.7-.1.52.52,0,0,0,.7-.15C234.86,51.47,234.59,50.94,234.41,50.62Z" style="fill: #fbf69b"/>
          <path d="M235.74,49.78a.33.33,0,0,0-.62.12.42.42,0,0,1,0,.06l-.09-.12c-.14-.24-.59-.13-.5.18s.35.51.46.81a.32.32,0,0,0,.52.1.47.47,0,0,0,.21.16.32.32,0,0,0,.35-.12.61.61,0,0,0,0-.57C235.94,50.19,235.84,50,235.74,49.78Z" style="fill: #fbf69b"/>
          <path d="M236.57,49.28c-.18-.18-.54,0-.4.27a2.11,2.11,0,0,1,.22.54c.06.22,0,.41.24.57s.3,0,.39-.08,0-.49,0-.7A1.62,1.62,0,0,0,236.57,49.28Z" style="fill: #fbf69b"/>
          <path d="M237.6,49.24a.21.21,0,0,0-.19.37.3.3,0,0,1,.12.19c.14.21.51.11.44-.16A.51.51,0,0,0,237.6,49.24Z" style="fill: #fbf69b"/>
          <path d="M230.28,38.53c-3.41-.6-6.72,1.85-9.12,4-.07.07,0,.22.11.16a41.49,41.49,0,0,1,9-3.92A.11.11,0,0,0,230.28,38.53Z" style="fill: #fbf69b"/>
          <path d="M224.36,51.06a24,24,0,0,1-1.31-2,2.09,2.09,0,0,0-.1-.21l-.07-.08c-.41-.7-.81-1.43-1.24-2.13,0,0-.12,0-.09.05.33.7.66,1.41,1,2.1a.24.24,0,0,0-.07.2,5.61,5.61,0,0,1-.85-1.32.09.09,0,0,0-.17.06A4.17,4.17,0,0,0,223,50.26a.23.23,0,0,0,.34,0c.22.38.46.74.71,1.1S224.53,51.28,224.36,51.06Z" style="fill: #fbf69b"/>
          <path d="M222.12,51.24a28.09,28.09,0,0,1-2-3.44c-.05-.1-.23,0-.2.07a9.45,9.45,0,0,0,1.77,3.76C221.94,51.91,222.34,51.54,222.12,51.24Z" style="fill: #fbf69b"/>
          <path d="M221.43,51.33a8,8,0,0,1-.86-1,10,10,0,0,0-.63-1c-.09-.12-.31,0-.22.15.43.7.72,1.8,1.57,2.1A.14.14,0,0,0,221.43,51.33Z" style="fill: #fbf69b"/>
          <path d="M229.41,44.67c-.07-.12-.3-.1-.28,0a1.11,1.11,0,0,1,0,.48,2.38,2.38,0,0,1-.94-1,.33.33,0,0,0-.57,0,4.49,4.49,0,0,0-.52,2.36c-.46-.5-.74-1.13-1.25-1.61-.16-.16-.53-.16-.59.12a6,6,0,0,0,.24,2.69c-.46-.66-.87-1.36-1.33-2-.11-.18-.43,0-.32.16a18.32,18.32,0,0,0,2,3.06.24.24,0,0,0,.42-.21,14.61,14.61,0,0,1-.46-2.59,4.37,4.37,0,0,0,1.37,1.53.41.41,0,0,0,.61-.22c.2-.78.05-1.65.25-2.42a3.14,3.14,0,0,0,1.2.75.25.25,0,0,0,.31-.16A1.2,1.2,0,0,0,229.41,44.67Z" style="fill: #fbf69b"/>
          <path d="M224,47c-.15-.29-.33-.57-.51-.85s-.35,0-.26.18a4.8,4.8,0,0,0,.91,1.66.16.16,0,0,0,.25-.17A3.84,3.84,0,0,0,224,47Z" style="fill: #fbf69b"/>
          <path d="M233.51,43.14a3.45,3.45,0,0,0-1.11-1.55c-.26-.18-.55.13-.44.4s.2.43.3.64A.36.36,0,0,0,232,43a3.25,3.25,0,0,1,0,.44L231.8,43a.23.23,0,0,0-.39,0l0,0a.17.17,0,0,0,0,.21,1.09,1.09,0,0,1,0,.51l-.37-.3c-.18-.15-.47.17-.28.33h0s0,0,0,.06a.55.55,0,0,0,0,.22.23.23,0,0,0-.06.44.5.5,0,0,0,.24,0v0a3.55,3.55,0,0,0,.38.62c.17.21.44,0,.41-.2a2.71,2.71,0,0,0-.12-.58.22.22,0,0,0,.21-.24,3.68,3.68,0,0,0,.39.58.32.32,0,0,0,.55-.19c0-.28,0-.56,0-.85a4,4,0,0,0,.53,1.42.38.38,0,0,0,.64-.13A2.7,2.7,0,0,0,233.51,43.14Z" style="fill: #fbf69b"/>
          <path d="M234,40.9c-.11-.18-.41-.09-.35.12.32,1.38.74,2.71,1.1,4.07.14.59,1.05.41.9-.18A13.92,13.92,0,0,0,234,40.9Z" style="fill: #fbf69b"/>
          <path d="M229.73,58.68c-.14-.24-.55-.12-.47.16A97.85,97.85,0,0,0,233,69.35c1.44,3.81,3,7.6,4.43,11.41,2.84,7.51,5.6,15.12,8,22.76,0,.13.25.14.25,0,0-3.5-1.84-7.11-2.89-10.4-1.19-3.74-2.39-7.46-3.69-11.16s-2.87-7.64-4.38-11.42C233.16,66.57,231.8,62.41,229.73,58.68Z" style="fill: #fbf69b"/>
        </g>
        <g>
          <path d="M146,68.68C126.77,47.81,115.5,16,115.5,16a6.48,6.48,0,0,1,.41-2.11c.44-1.2-.25-3.11-1.92-4.26-.63-.43-.65-1.34-1-2.9s-.37-4.07-1.25-4.85S107.5-1.21,99.1,1.78L99,1.84l-.16.07c-8.16,3.59-9,7.56-9.07,8.74s1.65,3,2.43,4.39,1.39,2.07,1.23,2.82c-.42,2,.38,3.84,1.52,4.41a6.74,6.74,0,0,1,1.76,1.25s13.64,30.84,14,59.23-.09,23.3,7,41l24.28,61.07c3.84,9.64,5.77,12.76,9.31,12.49,2.77-.21,9.34.72,23.57-4.86s18.31-10.9,20.47-12.66c2.76-2.23,2-5.82-1.81-15.47S176.19,121,169.13,103.29,165.27,89.54,146,68.68Z" style="fill: #613101"/>
          <path d="M146,68.68C126.77,47.81,115.5,16,115.5,16a6.48,6.48,0,0,1,.41-2.11c.44-1.2-.25-3.11-1.92-4.26-.63-.43-.65-1.34-1-2.9s-.37-4.07-1.25-4.85-4.14-3.07-12.35-.22c1.57,1.78,3.49,3.28,5,5.12a45.55,45.55,0,0,1,5.78,9.71c3.33,7.36,6,15.05,9.13,22.52.94,2.26,1.83,4.54,2.7,6.81,6.44,12.87,12.48,25.93,19.49,38.49,4.06,7.29,8.13,14.46,11.47,22.13,3.24,7.45,6.08,15.06,9,22.66s5.61,15.23,9.24,22.44c2.58,5.14,5.32,10.19,7.64,15.44,2.66,6,5.9,14.12,5.11,21.21a52,52,0,0,0,11.37-8.4c2.76-2.23,2-5.82-1.81-15.47l-24.29-61.06C162.08,85.55,165.27,89.54,146,68.68Z" style="fill: #92806a;opacity: 0.5;mix-blend-mode: screen"/>
          <path d="M188,185.72a46,46,0,0,0,4.4-3.34c0-5.42-2.57-10.73-4.86-15.55-3.6-7.52-6.9-15.18-10.41-22.75-3.73-8.07-7.18-16.22-10.43-24.5S159.43,98.79,155,91a96.5,96.5,0,0,0-8.55-12c-3.47-4.43-4.65-5.27-7.26-9.57a220.87,220.87,0,0,1-13.26-25.15c-4.21-9.5-8-20.28-14.32-28.75a95.71,95.71,0,0,1,6.61,12.15c3.58,7.81,6.46,15.9,9.72,23.85,3.74,9.12,5.68,11.5,10.74,20,4.65,7.77,11.27,14.64,16.89,27.84,4.06,9.5,8.94,22.5,12.83,32.06,3.37,8.25,6.41,16.68,10.08,24.81,2.4,5.32,5,10.57,6.94,16.1A38.47,38.47,0,0,1,188,185.72Z" style="fill: #92806a;mix-blend-mode: screen"/>
          <path d="M155.07,193.63c-1.67-2.75-4-9.38-5.25-12.32-1.93-4.6-4.26-9.06-6.4-13.57-4.47-9.36-8.25-20.73-12.09-30.37-3.47-8.68-9.18-20.17-11.93-29.13A60.54,60.54,0,0,1,116.53,95c-.46-4.92-.66-8-1-12.92a127,127,0,0,0-5-26.07c-5-17.14-9.69-34.46-17.69-50.46-2.62,2.31-3,4.31-3.06,5.1-.11,1.18,1.65,3,2.43,4.39s1.39,2.07,1.23,2.82c-.42,2,.38,3.84,1.52,4.41a6.74,6.74,0,0,1,1.76,1.25s13.64,30.84,14,59.23-.09,23.3,7,41l24.28,61.07c3.84,9.64,5.77,12.76,9.31,12.49a52,52,0,0,0,14-1.69C160.59,195.52,157.56,197.72,155.07,193.63Z" style="fill: #351801"/>
          <path d="M96.23,3.17A19.8,19.8,0,0,0,92.84,5.5c.52.77,1,1.57,1.47,2.37,4.54,8,7,16.91,9.76,25.61,1.58,4.9,3.62,9.65,5.41,14.48a110.51,110.51,0,0,1,4.28,14.35c2.14,9.55,1.57,15.38,2.49,25.11.5,5.25.41,12.42,1.21,16.8a110.52,110.52,0,0,0,5.65,18.51c3.49,8.78,9,21.15,12.57,29.9,3.23,7.91,6.57,17.41,9.84,25.29,2.95,7.15,5.88,14.77,9.33,17.73,1.3,1.12,3.82,1,6.42.86a65.06,65.06,0,0,0,8.46-2.21c-1.59-.68-3.79,2.16-6.41-2-4.24-6.72-9.28-22.23-12.42-29.5-3.27-7.56-18.57-43.12-22.06-51.45-3.87-9.24-5.55-20.52-7.91-30.23-1.23-5-.13-8.69-1.57-13.69-1.35-4.72-1.07-6.34-2.55-11C111.1,38.3,105.87,19.65,96.23,3.17Z" style="fill: #fff6e8;opacity: 0.5"/>
          <path d="M146,68.68C126.77,47.81,115.5,16,115.5,16a6.48,6.48,0,0,1,.41-2.11c.44-1.2-.25-3.11-1.92-4.26-.63-.43-.65-1.34-1-2.9s-.37-4.07-1.25-4.85A6.05,6.05,0,0,0,109.11.6c4.55,11.94,8.45,24.11,12.79,36.12,3.56,9.85,8.7,17.1,15.66,27.68,6.11,9.31,13.54,15.53,19.38,25.49,5.16,8.82,7.21,15.78,12.27,28.31,3.7,9.15,7.37,20.16,11.54,29.11s8.79,21.72,12,31c1,2.86-6.83,7.93-8.72,9.82a51.77,51.77,0,0,0,11.18-8.29c2.76-2.23,2-5.82-1.81-15.47l-24.29-61.06C162.08,85.55,165.27,89.54,146,68.68Z" style="fill: #402407"/>
          <path d="M114.9,71.67q0-.15-.09-.27c-.72-2-1.18-4.12-1.82-6.17-1.66-5.29-3.24-10.6-4.95-15.88-1.75-5.44-3.9-10.74-5.82-16.12-.93-2.61-1.91-5.2-3-7.73-.47-1.09-1.06-2.06-.53-3.12a.29.29,0,0,1,.06-.36,20,20,0,0,1,6.12-4.14,19.86,19.86,0,0,1,7.21-2.31,5.55,5.55,0,0,1,3.76,1.33c-.22-.56-.32-.87-.32-.87a6.48,6.48,0,0,1,.41-2.11A2.24,2.24,0,0,0,116,13v0c-.59,1.26-1.61,1.4-2.91,1.49l-.39,0a46.77,46.77,0,0,0-13.93,6C97.59,21.7,96,22.83,95,21.74A4.37,4.37,0,0,1,94,18.79c.08-1.34,1.36-2,2.33-2.68a.33.33,0,0,1,.34,0,31.74,31.74,0,0,1,9.12-4.57,34.39,34.39,0,0,1,8.43-1.7,1.41,1.41,0,0,0-.18-.14c-.63-.43-.65-1.34-1-2.9s-.37-4.07-1.25-4.85a5.45,5.45,0,0,0-.85-.61c.11.14.21.28.31.43A7.59,7.59,0,0,1,112,4.68c.16,1,.48,1.88.63,2.84.26,1.58-.44,2-2,2.18a24.41,24.41,0,0,0-5.8,1.68,2,2,0,0,1-.41.29,2,2,0,0,1-1.25.4l-.84.36c-2.1.92-4.06,2-6,3.05,0,0-.05,0-.09,0l-1.49.85c-1.11.63-2-.74-2.4-1.54-.93-1.62-2.08-3.35-2.06-5.28a4.07,4.07,0,0,1,.58-1.93,6.24,6.24,0,0,0-1.19,3c-.11,1.18,1.65,3,2.43,4.39s1.39,2.07,1.23,2.82c-.42,2,.38,3.84,1.52,4.41a6.74,6.74,0,0,1,1.76,1.25s10.45,23.63,13.28,48.56A32.72,32.72,0,0,0,114.9,71.67Z" style="fill: #d62739;mix-blend-mode: multiply"/>
          <path d="M119.65,91.38c-.43-3.37-.76-6.22-.76-6.22l-2.6.36c0,.92-.1,3.13,0,6.1Z" style="fill: #fff"/>
          <path d="M120.05,94.42c-1.24.07-2.46.16-3.68.25a75.77,75.77,0,0,0,2.08,14.63c2.07,8.07,12.72,31.44,12.72,31.44l4.66-.94s-4.39-9.89-7.37-17.38S121.77,105,121,100.76C120.71,99.27,120.38,96.88,120.05,94.42Z" style="fill: #fff"/>
          <path d="M97.18,18.05a.18.18,0,0,0-.33.11l.12.43a.63.63,0,0,0,.21.39.22.22,0,0,0,.32-.1C97.56,18.6,97.3,18.28,97.18,18.05Z" style="fill: #fbae9b"/>
          <path d="M98.29,18.05a4.43,4.43,0,0,0-.42-.29c-.16-.09-.46.08-.32.29s.18.34.3.5a.35.35,0,0,0,.32.11h0a.29.29,0,0,0,.24-.27v0A.31.31,0,0,0,98.29,18.05Z" style="fill: #fbae9b"/>
          <path d="M100.45,15.83a.32.32,0,0,0-.44,0s0,0,0,0a.56.56,0,0,0-1,.34c0,.14,0,.29,0,.43a.4.4,0,0,0-.21-.09c-.08-.07-.18,0-.22.09s0,.53.09.75a3.93,3.93,0,0,0,.52,1,.55.55,0,0,0,.92-.2,1.8,1.8,0,0,0,0-.46.58.58,0,0,0,.6-.23A1.27,1.27,0,0,0,100.45,15.83Z" style="fill: #fbae9b"/>
          <path d="M104.58,14.66a4.82,4.82,0,0,0-.57-.89.26.26,0,0,0-.41,0,.3.3,0,0,0-.4.35,6.09,6.09,0,0,0,.17.71l-.69-.32a.39.39,0,0,0-.49.09.56.56,0,0,0-.76.49.4.4,0,0,1,0,.11l-.17-.14c-.31-.25-.65.16-.53.47a3.87,3.87,0,0,0,.92,1.28.61.61,0,0,0,.89-.07.27.27,0,0,0,.08.07.57.57,0,0,0,.81-.73c0-.05,0-.11-.05-.16a.54.54,0,0,0,.42-.07.51.51,0,0,0,.38.07.45.45,0,0,0,.32-.24.28.28,0,0,0,.28-.21A1.06,1.06,0,0,0,104.58,14.66Z" style="fill: #fbae9b"/>
          <path d="M108.17,13.29a1.45,1.45,0,0,0-.85-.76A.3.3,0,0,0,107,13a1.35,1.35,0,0,1,.24.53h0a1.87,1.87,0,0,1-.41-.61c-.22-.53-1-.28-1,.21v0a.37.37,0,0,0-.18,0,.26.26,0,0,0-.17.12c0-.06-.1.05-.1.06a.1.1,0,0,0,.06.18h0a.05.05,0,0,1,0,0,1.52,1.52,0,0,1,.09.28v.06a3.31,3.31,0,0,0-.45-.4.25.25,0,0,0-.33.37,14.84,14.84,0,0,1,.79,1.32.31.31,0,0,0,.54-.12.51.51,0,0,0,.62-.33l0-.16a1,1,0,0,0,.19.16.54.54,0,0,0,.71-.1.52.52,0,0,0,.69-.15C108.61,14.15,108.34,13.61,108.17,13.29Z" style="fill: #fbae9b"/>
          <path d="M109.49,12.45a.34.34,0,0,0-.63.13v.06l-.1-.12c-.14-.24-.59-.14-.5.17s.35.52.46.81a.3.3,0,0,0,.51.1.76.76,0,0,0,.23.17.33.33,0,0,0,.34-.12.61.61,0,0,0,0-.57C109.7,12.87,109.59,12.66,109.49,12.45Z" style="fill: #fbae9b"/>
          <path d="M110.32,12c-.18-.18-.54,0-.39.27a2.6,2.6,0,0,1,.21.55c.06.22,0,.4.24.56s.3,0,.39-.08,0-.48,0-.69A1.54,1.54,0,0,0,110.32,12Z" style="fill: #fbae9b"/>
          <path d="M111.35,11.91a.21.21,0,0,0-.18.37.37.37,0,0,1,.11.19c.14.22.51.12.45-.15A.56.56,0,0,0,111.35,11.91Z" style="fill: #fbae9b"/>
          <path d="M104,1.2c-3.4-.59-6.72,1.86-9.11,4-.08.06,0,.21.1.16a41.35,41.35,0,0,1,9-3.92A.11.11,0,0,0,104,1.2Z" style="fill: #fbae9b"/>
          <path d="M98.11,13.74c-.48-.65-.9-1.34-1.32-2l-.09-.21s0-.06-.07-.07c-.41-.71-.81-1.43-1.23-2.13a.06.06,0,0,0-.1,0c.33.69.67,1.4,1,2.09a.25.25,0,0,0-.07.21,6.19,6.19,0,0,1-.85-1.32.09.09,0,0,0-.17.06,4.24,4.24,0,0,0,1.54,2.55.22.22,0,0,0,.33,0c.22.38.46.74.71,1.1S98.28,14,98.11,13.74Z" style="fill: #fbae9b"/>
          <path d="M95.87,13.92a27.61,27.61,0,0,1-2-3.45c-.06-.1-.24,0-.21.07a9.52,9.52,0,0,0,1.77,3.76A.29.29,0,0,0,95.87,13.92Z" style="fill: #fbae9b"/>
          <path d="M95.19,14a8,8,0,0,1-.87-1,9,9,0,0,0-.63-1c-.09-.13-.3,0-.22.14.43.7.72,1.8,1.57,2.11C95.18,14.29,95.27,14.12,95.19,14Z" style="fill: #fbae9b"/>
          <path d="M103.16,7.34c-.06-.12-.29-.09-.28.06a1.06,1.06,0,0,1,0,.47,2.24,2.24,0,0,1-.93-1,.34.34,0,0,0-.58,0,4.63,4.63,0,0,0-.53,2.37c-.45-.5-.73-1.14-1.24-1.61-.16-.16-.53-.17-.58.12a5.91,5.91,0,0,0,.22,2.68c-.45-.66-.87-1.36-1.32-2-.12-.18-.43-.05-.31.16a18,18,0,0,0,2,3.06.25.25,0,0,0,.43-.21,13.1,13.1,0,0,1-.46-2.6,4.46,4.46,0,0,0,1.36,1.54.42.42,0,0,0,.61-.22c.2-.78,0-1.66.26-2.43a3,3,0,0,0,1.18.76.26.26,0,0,0,.32-.17A1.21,1.21,0,0,0,103.16,7.34Z" style="fill: #fbae9b"/>
          <path d="M97.77,9.7c-.15-.29-.33-.57-.51-.85s-.34,0-.26.17a4.62,4.62,0,0,0,.91,1.66c.11.1.28,0,.25-.16A3.09,3.09,0,0,0,97.77,9.7Z" style="fill: #fbae9b"/>
          <path d="M107.27,5.82a3.49,3.49,0,0,0-1.12-1.55c-.25-.19-.55.13-.43.39s.19.44.29.65a.36.36,0,0,0-.26.38c0,.15,0,.3,0,.45l-.23-.44a.23.23,0,0,0-.39,0s0,0,0,0a.17.17,0,0,0-.05.2,1.25,1.25,0,0,1,0,.51l-.38-.29c-.19-.16-.47.16-.28.33h0a.08.08,0,0,0,0,0,.44.44,0,0,0,0,.22.23.23,0,0,0-.06.45.65.65,0,0,0,.24,0l0,0a3.06,3.06,0,0,0,.37.63c.16.2.43,0,.41-.2a3.63,3.63,0,0,0-.11-.59c.1,0,.21-.12.21-.24a2.42,2.42,0,0,0,.38.58.32.32,0,0,0,.55-.19c0-.27,0-.56,0-.85A3.68,3.68,0,0,0,107,7.79a.37.37,0,0,0,.63-.14A2.72,2.72,0,0,0,107.27,5.82Z" style="fill: #fbae9b"/>
          <path d="M107.75,3.58a.19.19,0,0,0-.35.12c.32,1.37.74,2.71,1.1,4.07.14.58,1,.41.9-.18A13.8,13.8,0,0,0,107.75,3.58Z" style="fill: #fbae9b"/>
          <path d="M103.48,21.35c-.14-.24-.54-.12-.47.16A98.79,98.79,0,0,0,106.73,32c1.45,3.81,3,7.59,4.42,11.41,2.85,7.51,5.61,15.11,8,22.76,0,.13.25.13.25,0,0-3.5-1.85-7.1-2.89-10.4-1.18-3.73-2.39-7.46-3.69-11.15C111.5,40.78,110,37,108.49,33.21,106.91,29.25,105.55,25.08,103.48,21.35Z" style="fill: #fbae9b"/>
        </g>
        <g>
          <path d="M98.59,183.48c21.19,18.89,35.51,49.42,35.51,49.42a6.47,6.47,0,0,1-.2,2.14c-.32,1.24.55,3.07,2.33,4.05.66.37.76,1.27,1.3,2.78s.76,4,1.72,4.72,4.49,2.69,12.56-1.11l.15-.07.15-.09c7.77-4.36,8.2-8.4,8.18-9.58s-1.93-2.82-2.85-4.14-1.59-1.92-1.5-2.68c.22-2-.76-3.78-1.95-4.24a6.57,6.57,0,0,1-1.87-1.07S135.54,194.24,132.43,166s-2.18-23.21-10.93-40.16L91.37,67.46c-4.76-9.22-7-12.13-10.48-11.52-2.74.48-9.37.2-23,7.14S40.74,75.72,38.76,77.67c-2.53,2.5-1.44,6,3.32,15.22s21.38,41.45,30.13,58.41S77.39,164.6,98.59,183.48Z" style="fill: #496101"/>
          <path d="M98.59,183.48c21.19,18.89,35.51,49.42,35.51,49.42a6.47,6.47,0,0,1-.2,2.14c-.32,1.24.55,3.07,2.33,4.05.66.37.76,1.27,1.3,2.78s.76,4,1.72,4.72,4.42,2.64,12.31-1c-1.73-1.62-3.79-2.92-5.45-4.6a45.05,45.05,0,0,1-6.7-9.11c-4-7-7.48-14.38-11.29-21.51-1.15-2.16-2.26-4.34-3.35-6.52-7.66-12.17-15-24.58-23.15-36.4-4.75-6.86-9.5-13.59-13.57-20.9-4-7.1-7.53-14.4-11.14-21.68s-7.06-14.61-11.38-21.44c-3.07-4.86-6.3-9.61-9.11-14.62-3.23-5.71-7.26-13.47-7.15-20.6a52,52,0,0,0-10.51,9.46c-2.53,2.5-1.44,6,3.32,15.22L72.21,151.3C81,168.25,77.39,164.6,98.59,183.48Z" style="fill: #86926a;opacity: 0.5;mix-blend-mode: screen"/>
          <path d="M44.25,83a26.08,26.08,0,0,1,6.59-2.54,54.38,54.38,0,0,0,9.78-4c3.73-2,7.47-4,11.07-6.23,1.79-1.08,3.53-2.22,5.24-3.39l2.44-1.68.33-.21s0-.1.24-.3.32-.33.47-.49c1.84-2,4.4-4.09,7.33-2.74l.4.19c-2.75-4.59-4.65-6.08-7.25-5.62s-9.37.2-23,7.14S40.74,75.72,38.76,77.67s-1.7,4.83,1.2,11A9.39,9.39,0,0,1,44.25,83Z" style="fill: #2b3501;opacity: 0.4;mix-blend-mode: multiply"/>
          <path d="M38.26,80.12c2.11,1,4.71.65,6.88.14a77.33,77.33,0,0,0,19.55-7.9,129,129,0,0,0,15.65-10c1.47-1.11,4.39-3.19,3.8-5.41,0-.16-.1-.32-.16-.47a4.16,4.16,0,0,0-3.09-.58c-2.74.48-9.37.2-23,7.14S40.74,75.72,38.76,77.67a4.36,4.36,0,0,0-1.2,2A5.35,5.35,0,0,0,38.26,80.12Zm8-4.43a29,29,0,0,1,8.37-7.27c6.8-4,13.18-7.81,21-8.24.74,0,2.92.81-.59,4.05-4.36,4-20.94,13.85-27.91,13.87C46.61,78.1,44.84,77.71,46.3,75.69Z" style="fill: #2b3501;opacity: 0.4;mix-blend-mode: multiply"/>
          <path d="M45.39,71.1a46.26,46.26,0,0,0-4,3.75c.54,5.39,3.6,10.43,6.36,15C52,97,56.05,104.29,60.27,111.47c4.51,7.67,8.73,15.45,12.78,23.37s9.26,20,14.44,27.3a97.19,97.19,0,0,0,9.67,11.11c3.9,4.07,5.16,4.79,8.17,8.82A221,221,0,0,1,121,205.8c5.11,9,9.89,19.41,17.06,27.21a95.49,95.49,0,0,1-7.77-11.44c-4.33-7.42-8-15.19-12-22.78-4.62-8.72-6.78-10.9-12.64-18.82-5.39-7.29-12.65-13.47-19.53-26.06-5-9.06-11.09-21.52-15.9-30.66-4.15-7.88-8-16-12.44-23.7-2.92-5.07-6-10-8.49-15.35C47.4,80.11,45.72,75.66,45.39,71.1Z" style="fill: #86926a;mix-blend-mode: screen"/>
          <path d="M77.38,60c1.93,2.57,4.92,8.95,6.43,11.75,2.38,4.39,5.13,8.6,7.7,12.87,5.36,8.89,10.23,19.83,15,29.06,4.29,8.3,11.1,19.18,14.71,27.83a59.76,59.76,0,0,1,4.14,12.89c.94,4.85,1.45,7.89,2.3,12.76a127.29,127.29,0,0,0,7.55,25.45c6.61,16.57,13,33.35,22.53,48.49,2.37-2.55,2.56-4.58,2.55-5.37,0-1.19-1.93-2.82-2.85-4.14s-1.59-1.92-1.5-2.68c.22-2-.76-3.78-1.95-4.24a6.57,6.57,0,0,1-1.87-1.07S135.54,194.24,132.43,166s-2.18-23.21-10.93-40.16L91.37,67.46c-4.76-9.22-7-12.13-10.48-11.52A51.65,51.65,0,0,0,67.16,59C71.71,58.67,74.51,56.19,77.38,60Z" style="fill: #2b3501"/>
          <path d="M154.53,243.82a20.09,20.09,0,0,0,3.15-2.65c-.6-.72-1.17-1.46-1.7-2.22-5.29-7.53-8.57-16.14-12.21-24.53-2.05-4.72-4.55-9.25-6.79-13.88a112.58,112.58,0,0,1-5.67-13.86c-3.05-9.3-3.06-15.16-4.92-24.75-1-5.17-1.63-12.33-2.84-16.61a110.74,110.74,0,0,0-7.43-17.87c-4.34-8.4-11-20.16-15.44-28.53-4-7.56-8.23-16.68-12.25-24.21-3.64-6.83-7.29-14.13-11-16.74-1.41-1-3.9-.61-6.48-.22a65.55,65.55,0,0,0-8.2,3c1.65.52,3.56-2.52,6.58,1.37,4.87,6.28,11.4,21.22,15.24,28.15,4,7.21,22.68,41.11,27,49.06,4.75,8.82,7.52,19.87,10.82,29.31,1.71,4.9,1,8.63,2.89,13.47,1.81,4.57,1.69,6.21,3.62,10.73C136.31,210.3,143.33,228.35,154.53,243.82Z" style="fill: #f7ffe8;opacity: 0.5"/>
          <path d="M98.59,183.48c21.19,18.89,35.51,49.42,35.51,49.42a6.47,6.47,0,0,1-.2,2.14c-.32,1.24.55,3.07,2.33,4.05.66.37.76,1.27,1.3,2.78s.76,4,1.72,4.72a6.25,6.25,0,0,0,2.72,1c-5.7-11.43-10.77-23.17-16.26-34.7-4.51-9.46-10.33-16.17-18.28-26-7-8.68-15-14.14-21.78-23.48-6-8.27-8.71-15-15-27-4.58-8.75-9.3-19.35-14.33-27.84S45.49,87.86,41.37,79c-1.29-2.75,6-8.56,7.72-10.63a52.17,52.17,0,0,0-10.33,9.34c-2.53,2.5-1.44,6,3.32,15.22L72.21,151.3C81,168.25,77.39,164.6,98.59,183.48Z" style="fill: #314007"/>
          <path d="M121.93,155.33c1.21-.19,2.42-.4,3.63-.61a75.52,75.52,0,0,0-3.5-14.35c-2.85-7.83-15.73-30.05-15.73-30.05l-4.54,1.39s5.33,9.41,9,16.57,8.37,16.67,9.56,20.83C120.79,150.57,121.36,152.91,121.93,155.33Z" style="fill: #fff"/>
          <path d="M85.62,69.72,81,70.44s-3.87-6.11-5.14-8.56-4.31-3.73-12-1.46c0,0,11.51-5,14.95-2.46S85.62,69.72,85.62,69.72Z" style="fill: #fff"/>
        </g>
        <g>
          <path d="M254.72,100c-.84-28.38,11.51-59.76,11.51-59.76a6.41,6.41,0,0,1,1.69-1.32c1.12-.62,1.84-2.51,1.35-4.47-.2-.74.39-1.43,1.11-2.87s2.4-3.32,2.25-4.49-1.13-5.11-9.42-8.36a.76.76,0,0,1-.16-.06l-.17,0c-8.51-2.64-11.73-.18-12.59.64s-.72,3.34-1,4.92-.31,2.47-.92,2.93c-1.62,1.22-2.23,3.15-1.73,4.33a6.7,6.7,0,0,1,.49,2.09s-10,32.22-28.31,53.87-15.36,17.53-21.66,35.53-18.31,52.22-21.75,62-4,13.41-1.18,15.53c2.24,1.67,6.59,6.68,21,11.81,14.45,5,21,3.78,23.76,3.88,3.55.12,5.34-3.07,8.78-12.87s15.43-44,21.74-62S255.55,128.34,254.72,100Z" style="fill: #242424"/>
          <path d="M224.74,86A158,158,0,0,0,212,106.12c-5.07,9.81-10.36,22.77-5.9,33.76a21.59,21.59,0,0,0,11.77,11.82A12.91,12.91,0,0,0,230.28,150c3.91-2.83,6.81-6.88,9.14-11.05a76.31,76.31,0,0,0,6.05-14.13,80.77,80.77,0,0,0,3.31-14.72c.61-4.9,1-10.49-.25-15.52q-2.52-.57-5-1.28A113,113,0,0,1,224.74,86Z" style="fill: #323232"/>
          <g style="opacity: 0.5;mix-blend-mode: screen">
            <path d="M254.72,100c-.84-28.38,11.51-59.76,11.51-59.76a6.41,6.41,0,0,1,1.69-1.32c1.12-.62,1.84-2.51,1.35-4.47-.2-.74.39-1.43,1.11-2.87s2.4-3.32,2.25-4.49-1.11-5-9.18-8.26c0,2.37.49,4.77.4,7.13a44.82,44.82,0,0,1-2,11.12c-2.32,7.75-5.32,15.32-7.88,23q-1.17,3.48-2.43,6.91C248,80.89,244,94.71,241,108.79,239.25,117,237.64,125,235.12,133c-2.45,7.75-5.28,15.37-8.1,23s-5.76,15.17-7.76,23c-1.42,5.56-2.66,11.17-4.36,16.66-1.93,6.28-4.81,14.53-10.06,19.36a53,53,0,0,0,14.1,1.13c3.55.12,5.34-3.07,8.78-12.87l21.74-62C255.76,123.26,255.55,128.34,254.72,100Z" style="fill: #5c5c5c"/>
          </g>
          <g style="mix-blend-mode: screen">
            <path d="M209.6,215.84a44.28,44.28,0,0,0,5.51.37c3.54-4.09,5.11-9.78,6.53-14.93,2.22-8,4.76-16,7.07-24,2.49-8.54,5.23-17,8.21-25.34s8.15-20.46,9.9-29.24a96.16,96.16,0,0,0,1.44-14.66c.29-5.63-.06-7,.8-12a222.36,222.36,0,0,1,6.48-27.68c3.06-9.93,7.31-20.52,8.06-31.09a94.56,94.56,0,0,1-3,13.5C258.2,59,255.07,67,252.31,75.16c-3.16,9.34-3.25,12.4-5,22.11-1.59,8.91-1.11,18.44-5.52,32.1-3.18,9.82-8,22.84-11.35,32.61-2.88,8.44-6.12,16.79-8.68,25.33-1.68,5.59-3.14,11.27-5.32,16.7C214.78,208.19,212.69,212.48,209.6,215.84Z" style="fill: #5c5c5c"/>
          </g>
          <path d="M179.56,200.21c.55-3.16,3.13-9.71,4.13-12.74,1.56-4.74,2.73-9.63,4.06-14.44,2.78-10,7.38-21.05,10.81-30.85,3.08-8.84,6.31-21.25,10.11-29.82a61.31,61.31,0,0,1,6.52-11.86c2.88-4,4.75-6.48,7.7-10.44a127.9,127.9,0,0,0,13.31-23c7.49-16.2,15.29-32.37,19.76-49.69-3.5,0-5.1,1.29-5.67,1.83-.84.82-.72,3.34-1,4.92s-.31,2.47-.92,2.93c-1.62,1.22-2.23,3.15-1.73,4.33a6.7,6.7,0,0,1,.49,2.09s-10,32.22-28.31,53.87-15.36,17.53-21.66,35.53l-21.75,62c-3.43,9.8-4,13.41-1.18,15.53a52.65,52.65,0,0,0,11.65,7.89C182.49,205.26,178.76,204.93,179.56,200.21Z" style="fill: #141414"/>
          <g style="opacity: 0.5">
            <path d="M260.12,17.88a19.31,19.31,0,0,0-4.07-.47c-.13.92-.28,1.84-.46,2.75-1.83,9-5.85,17.31-9.44,25.73-2,4.74-3.59,9.66-5.42,14.48A110.67,110.67,0,0,1,234.55,74c-4.65,8.6-8.91,12.63-14.59,20.58-3.07,4.28-7.84,9.64-10.11,13.46A110.11,110.11,0,0,0,202,125.73c-3.13,8.93-7.07,21.87-10.13,30.82-2.75,8.09-6.46,17.44-9.17,25.54-2.47,7.34-5.26,15-4.59,19.5.25,1.7,2.23,3.26,4.28,4.87a66.59,66.59,0,0,0,7.84,3.88c-.75-1.55-4.27-.86-3.52-5.73,1.21-7.85,7.58-22.87,10-30.42,2.5-7.84,14.29-44.72,17.11-53.31,3.13-9.51,9.27-19.11,13.85-28,2.4-4.62,5.61-6.66,7.81-11.37,2.08-4.45,3.35-5.49,5.31-10C248.29,54.13,256.57,36.63,260.12,17.88Z" style="fill: #b2b2b2"/>
          </g>
          <path d="M254.72,100c-.84-28.38,11.51-59.76,11.51-59.76a6.41,6.41,0,0,1,1.69-1.32c1.12-.62,1.84-2.51,1.35-4.47-.2-.74.39-1.43,1.11-2.87s2.4-3.32,2.25-4.49a6,6,0,0,0-1.11-2.68c-4.38,12-9.43,23.73-14,35.65-3.77,9.77-4.65,18.61-6.35,31.16-1.5,11,0,20.59-2.1,31.94-1.88,10-4.9,16.64-9.3,29.42-3.21,9.34-7.68,20.05-10.39,29.55s-7.63,22.14-11.26,31.26c-1.13,2.82-10.36,1.51-13,1.69a52.84,52.84,0,0,0,13.88,1.09c3.55.12,5.34-3.07,8.78-12.87l21.74-62C255.76,123.26,255.55,128.34,254.72,100Z" style="fill: #1a1a1a"/>
          <path d="M254.75,101.17l0-1.19c-.06-1.92-.06-3.85,0-5.78-11.07-2.32-18.45,2.23-18.45,2.23-2.29-6-10.72-11.44-14-13.38q-1.68,2.22-3.47,4.33c-.24.27-.47.55-.7.82,3.45,2.58,8.9,5.61,17.49,8.63A73.45,73.45,0,0,0,254.75,101.17Z" style="fill: #2b3501"/>
          <path d="M250.56,98.4c.06-1.58.06-3.18.09-4.78-8.77-.64-14.38,2.81-14.38,2.81-1.36-3.58-4.91-7-8.25-9.51q-1.68,2.67-3.56,5.2a85.83,85.83,0,0,0,11.11,4.71,82.44,82.44,0,0,0,14.9,3.86Z" style="fill: #496101"/>
          <path d="M243.36,94a22.5,22.5,0,0,0-7.09,2.43,17.29,17.29,0,0,0-3.81-5.59c-.66,1.35-1.3,2.71-2,4.07,1.56.63,3.24,1.28,5.07,1.92,2.45.86,4.73,1.56,6.84,2.13C242.71,97.31,243,95.65,243.36,94Z" style="fill: #468802"/>
          <path d="M254.79,102.75c0-.51,0-1,0-1.58a73.45,73.45,0,0,1-19.18-4.34c-8.59-3-14-6-17.49-8.63-.34.41-.68.8-1,1.18,3.42,2.66,9,5.84,18,9A72.27,72.27,0,0,0,254.79,102.75Z" style="fill: #fcae18"/>
          <path d="M236.27,96.43s7.38-4.55,18.45-2.23c0-1.34.11-2.68.19-4a50.44,50.44,0,0,1-8.79-.07,12.71,12.71,0,0,0-5.81-4.82,8.2,8.2,0,0,0-7.24.49,71,71,0,0,1-8.87-5.42c-.63.89-1.29,1.79-1.95,2.68C225.55,85,234,90.43,236.27,96.43Z" style="fill: #759b00"/>
          <path d="M230.2,84.24c-2.45-1.42-4.64-2.91-6-3.87-.63.89-1.29,1.79-1.95,2.68a58.6,58.6,0,0,1,6.28,4.26Z" style="fill: #556804"/>
          <path d="M251.41,93.69a32.58,32.58,0,0,1,3.31.51c0-1.34.11-2.68.19-4a25.21,25.21,0,0,1-3,.18C251.79,91.48,251.61,92.58,251.41,93.69Z" style="fill: #556804"/>
          <path d="M244.19,87.81a12.76,12.76,0,0,0-3.88-2.51,8,8,0,0,0-4.08-.57,36.71,36.71,0,0,0-2.08,3.42c-.49,1-1,1.95-1.46,2.93a17,17,0,0,1,3.58,5.35,22.26,22.26,0,0,1,7-2.41C243.53,92,243.82,89.87,244.19,87.81Z" style="fill: #cad632"/>
          <path d="M240.31,85.3a12.71,12.71,0,0,1,5.81,4.82,50.44,50.44,0,0,0,8.79.07c0-.57.08-1.13.12-1.69a67.52,67.52,0,0,1-8.11-.36,10.4,10.4,0,0,0-6-5,11,11,0,0,0-8.12.74,42.54,42.54,0,0,1-7.56-5c-.34.49-.69,1-1.05,1.49a71,71,0,0,0,8.87,5.42A8.2,8.2,0,0,1,240.31,85.3Z" style="fill: #fcae18"/>
          <path d="M240.93,83.13a10.4,10.4,0,0,1,6,5,67.52,67.52,0,0,0,8.11.36c1.93-24.74,11.2-48.28,11.2-48.28a6.41,6.41,0,0,1,1.69-1.32c1.12-.62,1.84-2.51,1.35-4.47-.2-.74.39-1.43,1.11-2.87s2.4-3.32,2.25-4.49-1.13-5.11-9.42-8.36a.76.76,0,0,1-.16-.06l-.17,0c-8.51-2.64-11.73-.18-12.59.64s-.72,3.34-1,4.92-.31,2.47-.92,2.93c-1.62,1.22-2.23,3.15-1.73,4.33a6.7,6.7,0,0,1,.49,2.09s-7.62,24.69-21.84,45.37a42.54,42.54,0,0,0,7.56,5A11,11,0,0,1,240.93,83.13Z" style="fill: #d69827"/>
          <path d="M255,88.5c1.93-24.74,11.2-48.28,11.2-48.28a6.41,6.41,0,0,1,1.69-1.32c1.12-.62,1.84-2.51,1.35-4.47-.2-.74.39-1.43,1.11-2.87s2.4-3.32,2.25-4.49a7.43,7.43,0,0,0-2.73-4.5,2,2,0,0,1,.16,1.89c0,.07-.15.17-.21.09a8.17,8.17,0,0,0-3.62-2.62c1.61,1.41,3.16,2.23,2.75,4.17a17,17,0,0,1-1.56,3.1,3.21,3.21,0,0,1-1.31,1.57.16.16,0,0,1-.23-.15,9.72,9.72,0,0,0,.32-2.11c-.43.8-.94,2.1-2,1.82-1.26-.36-1-1.61-.93-2.64-.65,1-1,2.31-2.54,2-.56-.12-1.2-.26-1.41-.87a4.27,4.27,0,0,1-.06-1.48,2.9,2.9,0,0,1-.9,1,2.3,2.3,0,0,1-1.74-.31,1.71,1.71,0,0,1-1.11-1.2,9.9,9.9,0,0,1,0-1.72,14.19,14.19,0,0,0-.79,2.27.18.18,0,0,1-.17.11c-1.32-.13-1.55-1.11-1.51-2.17a3.16,3.16,0,0,1-.88,1.84.17.17,0,0,1-.27-.09,7,7,0,0,1,.25-4c.33-1,.88-2.5,2-3a11.24,11.24,0,0,1,5.28-.31c1.77.29,3.09.73,4.86,1A39.2,39.2,0,0,0,254,18.74c-.1,0-.1-.19,0-.26,1.49-1.13,3.65-.89,5.37-.58,1.5.26,3,.7,4.45,1.05-.2-.07-.39-.16-.59-.24a.76.76,0,0,1-.16-.06l-.17,0c-8.51-2.64-11.73-.18-12.59.64s-.72,3.34-1,4.92-.31,2.47-.92,2.93c-1.62,1.22-2.23,3.15-1.73,4.33a6.7,6.7,0,0,1,.49,2.09s-7.62,24.69-21.84,45.37a42.54,42.54,0,0,0,7.56,5,8.92,8.92,0,0,1,1-.44c.49-1,.94-2.05,1.43-3.07,1-2.06,2-4.07,3-6.14,2-4.26,3.84-8.62,5.55-13s3.31-8.85,4.93-13.29c.82-2.23,1.71-4.44,2.56-6.66.69-1.77,1.08-3.8,2.37-5.25a.17.17,0,0,1,.12-.06,2.21,2.21,0,0,1,.6-.55c.55-.33.71.25.73.81a5.55,5.55,0,0,1,.29-.6c.07-.12.22-.07.28,0s.29.39.43.59c.8-.87,2.62-.11,2.86,1a1.38,1.38,0,0,1,1.6-.23c.45.22,1.36.69,1.3,1.32a19.41,19.41,0,0,1-.89,3,14.1,14.1,0,0,0-.69,3.74c1-1.69,1.35-3.66,2.42-5.32.1-.15.32,0,.28.15-2.54,10.18-6.14,20.09-8.15,30.39-.5,2.57-.94,5.14-1.4,7.71-.32,1.82-.75,3.64-.89,5.48a20.24,20.24,0,0,1-.58,4.18,5.73,5.73,0,0,1-.3.81C252.78,88.53,254,88.54,255,88.5Zm9.54-52.26c-1,.37-1.68-.51-2.53-.9-1.69-.78-3.46-1.35-5.22-2a14.42,14.42,0,0,0-2.8-.87,5.21,5.21,0,0,1-1.75-.32c-.51-.26-.73-1.08-1.39-.61a.76.76,0,0,1-.73.18c-.74-.21-.36-1.56-.18-2a2.54,2.54,0,0,1,1.78-1.81.16.16,0,0,1,.19.16,7.44,7.44,0,0,0,.09,1.7,7.16,7.16,0,0,1,.95-1.46.14.14,0,0,1,.23,0,1.34,1.34,0,0,1,.44-.13,6.34,6.34,0,0,1,2.07.54,22.12,22.12,0,0,1,2.39.63c.33.13.77.29.92.62,1-.36,2.59.47,3.37.84s2.21,1,2.43,1.94a1,1,0,0,1,1.29,1.08A2.9,2.9,0,0,1,264.57,36.24Z" style="fill: #d69827;mix-blend-mode: multiply"/>
          <path d="M229.27,81.82l.1-.27c.8-2,1.83-3.88,2.69-5.85,2.22-5.07,4.5-10.13,6.67-15.23,2.25-5.25,4.1-10.66,6.19-16,1-2.56,2-5.18,2.79-7.81.36-1.13.55-2.25,1.65-2.7a.26.26,0,0,1,.27-.23,20.1,20.1,0,0,1,7.35.88c2.39.7,4.95,1.42,6.94,3a5.52,5.52,0,0,1,2,3.48c.21-.57.34-.87.34-.87a6.41,6.41,0,0,1,1.69-1.32,2.21,2.21,0,0,0,.71-.63h0c-1.26.57-2.13,0-3.17-.78l-.32-.23a46.49,46.49,0,0,0-14.48-4.57c-1.65.06-3.57-.11-3.62-1.58a4.31,4.31,0,0,1,1.13-2.95c.93-1,2.31-.58,3.52-.49a.34.34,0,0,1,.28.2,31.69,31.69,0,0,1,9.89,2.53,34.41,34.41,0,0,1,7.46,4.25,1.7,1.7,0,0,0,0-.22c-.2-.74.39-1.43,1.11-2.87s2.4-3.32,2.25-4.49a5,5,0,0,0-.24-1,3.17,3.17,0,0,1-.05.53,7.7,7.7,0,0,1-1.3,2.78c-.5.82-.87,1.73-1.38,2.55-.85,1.37-1.65,1.21-2.91.37a24.29,24.29,0,0,0-5.48-2.55,2.23,2.23,0,0,1-.5,0,2.13,2.13,0,0,1-1.21-.53l-.88-.27a65.69,65.69,0,0,0-6.53-1.65l-.1,0-1.68-.35c-1.25-.24-1-1.83-.81-2.73.37-1.84.64-3.89,1.92-5.33a4,4,0,0,1,1.7-1.09,6.43,6.43,0,0,0-2.89,1.5c-.84.82-.72,3.34-1,4.92s-.31,2.47-.92,2.93c-1.62,1.22-2.23,3.15-1.73,4.33a6.7,6.7,0,0,1,.49,2.09s-7.62,24.69-21.84,45.37A34.91,34.91,0,0,0,229.27,81.82Z" style="fill: #d69827;mix-blend-mode: multiply"/>
          <path d="M224.69,92.25a46.81,46.81,0,0,1-6.61-4c-.34.41-.68.8-1,1.18a44.13,44.13,0,0,0,6.82,4.28C224.15,93.19,224.42,92.72,224.69,92.25Z" style="fill: #a76008;opacity: 0.7000000000000001;mix-blend-mode: multiply"/>
          <path d="M250.56,101.28c0,.35-.05.69-.07,1,1.57.22,3,.36,4.3.43,0-.51,0-1,0-1.58-1.26-.09-2.65-.23-4.15-.46C250.59,100.9,250.57,101.1,250.56,101.28Z" style="fill: #a76008;opacity: 0.7000000000000001;mix-blend-mode: multiply"/>
          <path d="M241.19,98.63c-1.77-.52-3.64-1.11-5.62-1.8-1.42-.5-2.74-1-4-1.49-.26.48-.53,1-.8,1.44,1.33.53,2.74,1.06,4.26,1.59,2.07.73,4,1.34,5.86,1.87C241,99.7,241.08,99.16,241.19,98.63Z" style="fill: #fbf69b"/>
          <path d="M230.09,82.33a35.58,35.58,0,0,1-4.84-3.45c-.34.49-.69,1-1.05,1.49,1.2.85,3,2.11,5.14,3.36C229.6,83.27,229.84,82.8,230.09,82.33Z" style="fill: #a76008;opacity: 0.7000000000000001;mix-blend-mode: multiply"/>
          <path d="M251.93,90.37a27.59,27.59,0,0,0,3-.18c0-.57.08-1.13.12-1.69-.86,0-1.8,0-2.75,0C252.17,89.12,252.05,89.75,251.93,90.37Z" style="fill: #a76008;opacity: 0.7000000000000001;mix-blend-mode: multiply"/>
          <path d="M244.24,84.91a10.16,10.16,0,0,0-3.31-1.78,9.77,9.77,0,0,0-2.52-.47c-.35.68-.71,1.34-1.07,2a8.09,8.09,0,0,1,3,.63,12.35,12.35,0,0,1,3.38,2.07C243.88,86.55,244.06,85.73,244.24,84.91Z" style="fill: #fbf69b"/>
          <path d="M219.93,99.81c1.88-2.83,3.5-5.19,3.5-5.19l-2.2-1.44c-.62.68-2.13,2.3-4,4.58C218.11,98.44,219,99.11,219.93,99.81Z" style="fill: #bababa"/>
          <path d="M218.22,102.36c-1-.75-1.95-1.48-2.93-2.23a76.67,76.67,0,0,0-8,12.41c-3.74,7.45-11,32.08-11,32.08l4.12,2.34s3.18-10.34,5.85-17.94,6.36-17.54,8.56-21.26C215.55,106.45,216.85,104.43,218.22,102.36Z" style="fill: #bababa"/>
          <path d="M251.07,29.72c0-.18-.22-.31-.31-.12s-.13.26-.2.39a.58.58,0,0,0-.09.44.2.2,0,0,0,.3.12C251,30.4,251,30,251.07,29.72Z" style="fill: #fbf69b"/>
          <path d="M251.92,30.44a4.94,4.94,0,0,0-.13-.48c-.07-.18-.4-.24-.43,0s-.09.37-.11.57a.32.32,0,0,0,.18.29s0,0,0,0a.32.32,0,0,0,.36-.05s0,0,0,0A.38.38,0,0,0,251.92,30.44Z" style="fill: #fbf69b"/>
          <path d="M255,30.2a.32.32,0,0,0-.34-.27v0a.56.56,0,0,0-1-.38c-.1.11-.2.21-.29.33a.29.29,0,0,0-.09-.21c0-.1-.13-.13-.22-.08-.27.07-.36.39-.44.62a3.89,3.89,0,0,0-.26,1.12.53.53,0,0,0,.81.45,2.17,2.17,0,0,0,.36-.32.55.55,0,0,0,.59.22A1.25,1.25,0,0,0,255,30.2Z" style="fill: #fbf69b"/>
          <path d="M258.88,32A3.75,3.75,0,0,0,259,31a.26.26,0,0,0-.31-.26.3.3,0,0,0-.53,0c-.12.2-.23.43-.34.65-.09-.24-.2-.47-.3-.7a.42.42,0,0,0-.44-.26.55.55,0,0,0-.88-.13l-.08.09a1.55,1.55,0,0,0,0-.21c-.08-.4-.59-.31-.71,0a4,4,0,0,0-.14,1.57.61.61,0,0,0,.71.53.3.3,0,0,0,0,.1.57.57,0,0,0,1.09,0,1.22,1.22,0,0,1,.07-.17.49.49,0,0,0,.36.22.53.53,0,0,0,.23.31.5.5,0,0,0,.41,0,.3.3,0,0,0,.35,0A1.08,1.08,0,0,0,258.88,32Z" style="fill: #fbf69b"/>
          <path d="M262.5,33.34a1.53,1.53,0,0,0-.14-1.13.3.3,0,0,0-.56.15,1.47,1.47,0,0,1-.18.56h0a2.32,2.32,0,0,1,.09-.73c.19-.55-.54-.85-.9-.51,0,0,0,0,0,0a.43.43,0,0,0-.12-.11.26.26,0,0,0-.21,0c.08,0-.11,0-.12,0a.11.11,0,0,0-.07.19h0s0,0,0,.05a.83.83,0,0,1-.12.27l0,.05a2.89,2.89,0,0,0-.09-.6c-.06-.27-.47-.2-.48.07a15.23,15.23,0,0,1-.28,1.5.32.32,0,0,0,.5.27.48.48,0,0,0,.67.15.6.6,0,0,0,.13-.09c0,.08,0,.17.05.25a.5.5,0,0,0,.58.37.54.54,0,0,0,.64.34C262.27,34.28,262.4,33.7,262.5,33.34Z" style="fill: #fbf69b"/>
          <path d="M264,33.58a.34.34,0,0,0-.56-.32s0,0,0,0a.76.76,0,0,1,0-.15c0-.28-.37-.49-.49-.19s-.07.61-.19.9.11.41.32.42a.6.6,0,0,0,.06.27.31.31,0,0,0,.33.13.59.59,0,0,0,.37-.44C263.92,34,264,33.8,264,33.58Z" style="fill: #fbf69b"/>
          <path d="M265,33.74c0-.25-.42-.34-.48-.05a2.13,2.13,0,0,1-.2.55c-.09.21-.22.34-.19.58a.29.29,0,0,0,.35.2c.25,0,.35-.33.44-.54A1.53,1.53,0,0,0,265,33.74Z" style="fill: #fbf69b"/>
          <path d="M265.8,34.39a.21.21,0,0,0-.38.16,1,1,0,0,1,0,.23c-.05.24.3.41.42.17A.54.54,0,0,0,265.8,34.39Z" style="fill: #fbf69b"/>
          <path d="M267.3,21.5c-2.18-2.68-6.28-3-9.49-3-.1,0-.13.16,0,.18a42.11,42.11,0,0,1,9.38,3C267.29,21.73,267.38,21.6,267.3,21.5Z" style="fill: #fbf69b"/>
          <path d="M254.61,27.08a21.15,21.15,0,0,1,.34-2.39l.06-.22a.33.33,0,0,0,0-.1c.15-.81.32-1.61.46-2.42a.05.05,0,1,0-.1,0c-.21.74-.42,1.49-.62,2.24a.2.2,0,0,0-.18.11,5.77,5.77,0,0,1,.23-1.56.1.1,0,0,0-.18-.07,4.22,4.22,0,0,0-.51,2.93.23.23,0,0,0,.27.21c-.07.43-.15.86-.19,1.29S254.59,27.36,254.61,27.08Z" style="fill: #fbf69b"/>
          <path d="M252.81,25.75a27,27,0,0,1,.73-3.91c0-.12-.14-.2-.19-.09a9.44,9.44,0,0,0-1.14,4A.3.3,0,0,0,252.81,25.75Z" style="fill: #fbf69b"/>
          <path d="M252.22,25.37a7.74,7.74,0,0,1,.05-1.36,11.27,11.27,0,0,0,.14-1.15c0-.15-.23-.19-.25,0-.13.82-.64,1.84-.2,2.63A.14.14,0,0,0,252.22,25.37Z" style="fill: #fbf69b"/>
          <path d="M262.62,25.57c0-.14-.16-.26-.26-.14a1,1,0,0,1-.32.34,2.33,2.33,0,0,1-.07-1.34.34.34,0,0,0-.41-.41,4.81,4.81,0,0,0-1.95,1.45c0-.68.18-1.34.12-2,0-.24-.3-.48-.53-.3a5.93,5.93,0,0,0-1.58,2.18c.08-.8.24-1.59.34-2.39,0-.23-.3-.33-.35-.1a17.48,17.48,0,0,0-.53,3.6.25.25,0,0,0,.46.11,12.74,12.74,0,0,1,1.35-2.26,4.58,4.58,0,0,0,0,2,.41.41,0,0,0,.61.24c.66-.45,1.13-1.21,1.79-1.67a3.09,3.09,0,0,0,.4,1.36.24.24,0,0,0,.34.08A1.26,1.26,0,0,0,262.62,25.57Z" style="fill: #fbf69b"/>
          <path d="M257,23.8a7.87,7.87,0,0,0,.17-1c0-.17-.26-.2-.3,0a4.68,4.68,0,0,0-.41,1.85.17.17,0,0,0,.3,0A3.9,3.9,0,0,0,257,23.8Z" style="fill: #fbf69b"/>
          <path d="M266.72,27.12a3.77,3.77,0,0,0,.17-1.91.31.31,0,0,0-.59,0c-.07.22-.14.46-.2.69a.35.35,0,0,0-.45.12l-.27.35c0-.16.08-.32.11-.48a.21.21,0,0,0-.27-.27h0a.18.18,0,0,0-.17.13,1,1,0,0,1-.3.4,3.89,3.89,0,0,1-.09-.47c0-.23-.46-.18-.43.06h0a.11.11,0,0,1-.06,0A.61.61,0,0,0,264,26a.23.23,0,0,0-.34.29.58.58,0,0,0,.17.18v0a2.87,2.87,0,0,0-.13.71c0,.27.32.29.45.12a3.25,3.25,0,0,0,.28-.52.25.25,0,0,0,.33,0,4.07,4.07,0,0,0-.1.7.32.32,0,0,0,.54.21c.19-.2.4-.4.59-.61a3.59,3.59,0,0,0-.54,1.41.38.38,0,0,0,.58.32C266.34,28.43,266.53,27.68,266.72,27.12Z" style="fill: #fbf69b"/>
          <path d="M268.55,25.73a.19.19,0,0,0-.35-.13c-.64,1.25-1.21,2.53-1.84,3.79-.27.54.53,1,.82.46A14.91,14.91,0,0,0,268.55,25.73Z" style="fill: #fbf69b"/>
          <path d="M250.24,87.7c0-.4.09-.81.14-1.22a33.17,33.17,0,0,0,1.06-6c.33-2.53,1-5,1.5-7.54,1.13-5.37,2.37-10.71,3.66-16,1.23-5.08,2.83-10.08,3.89-15.2.26-1.25,1.41-4.44-.93-4.36a.27.27,0,0,0-.25.34.17.17,0,0,0-.12.1l-.07.13a6.61,6.61,0,0,0-1.28,3.24c-.21.62-.41,1.25-.62,1.86q-1.05,2.91-2,5.85c-1.27,3.94-2.44,7.91-3.65,11.87s-2.37,7.91-3.48,11.9-1.81,7.88-3.07,11.71a.36.36,0,0,0,0,.17.27.27,0,0,0-.07.48,3.44,3.44,0,0,1,1.32,1.3.46.46,0,0,0,.23.39c.12.23.24.46.35.7a.34.34,0,0,0,.2.15.28.28,0,0,0,.24.19c.88.1,1.7,0,2.57.19A.33.33,0,0,0,250.24,87.7Z" style="fill: #fbf69b"/>
          <path d="M253.66,36.35a.25.25,0,0,0-.46-.19,100,100,0,0,0-4.08,10.39c-1.41,3.82-2.74,7.68-4.15,11.5-2.79,7.54-5.7,15.09-8.87,22.46,0,.12.1.27.2.15,2.27-2.67,3.28-6.57,4.65-9.74,1.55-3.6,3.09-7.2,4.53-10.85s2.84-7.64,4.18-11.49C251.06,44.56,252.78,40.52,253.66,36.35Z" style="fill: #fbf69b"/>
        </g>
        <g>
          <path d="M186.7,91.22c-8.14-27.2-4.32-60.71-4.32-60.71a6.52,6.52,0,0,1,1.29-1.71c.92-.89,1.14-2.9.15-4.67-.38-.66,0-1.48.33-3.05s1.47-3.83,1-4.92-2.42-4.65-11.27-5.64l-.17,0h-.18c-8.9-.36-11.37,2.85-12,3.87s.16,3.41.26,5,.34,2.47-.13,3.07c-1.25,1.59-1.34,3.62-.57,4.64a6.56,6.56,0,0,1,1,1.88s-1.28,33.7-13.43,59.36-10.3,20.9-11.75,39.92-4.18,55.17-5,65.53-.42,14,2.88,15.31c2.59,1,8.09,4.75,23.32,6,15.25,1.08,21.25-1.76,24-2.39,3.46-.8,4.37-4.35,5.15-14.71s3.53-46.5,5-65.53S194.84,118.4,186.7,91.22Z" style="fill: #a03800"/>
          <path d="M154.12,85.41A158.74,158.74,0,0,0,147,108.2c-2.36,10.79-4.12,24.68,3,34.13a21.51,21.51,0,0,0,14.42,8.38A12.9,12.9,0,0,0,176,145.82c3-3.74,4.79-8.41,6-13a76,76,0,0,0,2.19-15.23,81.63,81.63,0,0,0-.6-15.07c-.68-4.88-1.78-10.38-4.26-14.93-1.72.07-3.43.09-5.14.06A112.7,112.7,0,0,1,154.12,85.41Z" style="fill: #c27300"/>
          <g style="opacity: 0.5;mix-blend-mode: screen">
            <path d="M186.7,91.22c-8.14-27.2-4.32-60.71-4.32-60.71a6.52,6.52,0,0,1,1.29-1.71c.92-.89,1.14-2.9.15-4.67-.38-.66,0-1.48.33-3.05s1.47-3.83,1-4.92-2.39-4.58-11-5.6c.63,2.27,1.7,4.47,2.23,6.77a44.85,44.85,0,0,1,.93,11.27c-.23,8.08-1.17,16.16-1.67,24.24-.14,2.44-.34,4.88-.56,7.31.14,14.38-.16,28.77.62,43.14.45,8.33,1,16.55.6,24.9-.36,8.12-1.13,16.21-1.88,24.3s-1.64,16.14-1.55,24.23c.06,5.74.31,11.48.1,17.22-.25,6.57-.9,15.28-4.72,21.3a52.38,52.38,0,0,0,13.91-2.55c3.46-.8,4.37-4.35,5.15-14.71l5-65.53C193.73,113.43,194.84,118.4,186.7,91.22Z" style="fill: #ff7b24"/>
          </g>
          <g style="mix-blend-mode: screen">
            <path d="M173.07,214.8a44.49,44.49,0,0,0,5.42-1.06c2.37-4.87,2.4-10.77,2.45-16.11.06-8.33.46-16.67.63-25,.19-8.9.66-17.74,1.37-26.6s2.6-21.88,2-30.82a96.81,96.81,0,0,0-2.41-14.53c-1.17-5.51-1.88-6.78-2.33-11.8a222.67,222.67,0,0,1-.89-28.41c.39-10.38,1.76-21.71-.25-32.12a95.17,95.17,0,0,1,.61,13.82c-.21,8.59-1.17,17.12-1.73,25.69-.64,9.84.06,12.83.9,22.65.77,9,3.69,18.11,3,32.44-.53,10.31-1.84,24.14-2.53,34.44-.6,8.89-1.57,17.79-1.84,26.7-.17,5.84-.13,11.71-.82,17.52C176.09,206.08,175.18,210.76,173.07,214.8Z" style="fill: #ff7b24"/>
          </g>
          <path d="M140,207.47c-.3-3.19.51-10.19.69-13.37.28-5,.15-10,.19-15,.11-10.38,1.69-22.25,2.46-32.6.7-9.33.61-22.16,2.06-31.42a60.75,60.75,0,0,1,3.23-13.14c1.75-4.63,2.91-7.48,4.74-12.07a126.63,126.63,0,0,0,6.92-25.63c3.07-17.58,6.42-35.22,6.25-53.11-3.36.93-4.59,2.57-5,3.24-.61,1,.16,3.41.26,5s.34,2.47-.13,3.07c-1.25,1.59-1.34,3.62-.57,4.64a6.56,6.56,0,0,1,1,1.88s-1.28,33.7-13.43,59.36-10.3,20.9-11.75,39.92l-5,65.53c-.78,10.36-.42,14,2.88,15.31a52.67,52.67,0,0,0,13.29,4.61C144.14,211.59,140.45,212.23,140,207.47Z" style="fill: #7a2400"/>
          <g style="opacity: 0.5">
            <path d="M170.71,10.51a19.23,19.23,0,0,0-4.07.6c.12.93.23,1.85.28,2.78.56,9.19-1.18,18.24-2.47,27.29-.73,5.11-1,10.27-1.49,15.39a110.17,110.17,0,0,1-2.45,14.77c-2.27,9.52-5.34,14.51-8.78,23.65-1.86,4.93-5.08,11.35-6.29,15.63a110.38,110.38,0,0,0-3,19.11c-.71,9.43-1.18,23-1.81,32.39-.58,8.53-1.74,18.52-2.27,27-.48,7.72-1.2,15.85.6,20,.68,1.56,3,2.56,5.4,3.58a66.31,66.31,0,0,0,8.58,1.73c-1.13-1.31-4.35.27-4.88-4.63-.86-7.89,1.41-24,1.79-32,.38-8.22,2.23-46.9,2.75-55.92.56-10,4-20.86,6.14-30.62,1.11-5.08,3.7-7.88,4.6-13,.86-4.84,1.82-6.17,2.55-11C168.64,48.59,172.13,29.55,170.71,10.51Z" style="fill: #fff4eb"/>
          </g>
          <path d="M186.7,91.22c-8.14-27.2-4.32-60.71-4.32-60.71a6.52,6.52,0,0,1,1.29-1.71c.92-.89,1.14-2.9.15-4.67-.38-.66,0-1.48.33-3.05s1.47-3.83,1-4.92a6.19,6.19,0,0,0-1.77-2.31c-1.14,12.73-3,25.37-4.34,38.07-1.13,10.42.31,19.18,1.91,31.74,1.41,11,5.35,19.89,6.23,31.4.77,10.2-.44,17.35-1.38,30.83-.69,9.85-2.24,21.35-2.4,31.23s-1.64,23.36-2.79,33.11c-.36,3-9.63,4.13-12.15,5a52.23,52.23,0,0,0,13.69-2.54c3.46-.8,4.37-4.35,5.15-14.71l5-65.53C193.73,113.43,194.84,118.4,186.7,91.22Z" style="fill: #893200"/>
          <path d="M187,92.36c-.11-.37-.22-.75-.34-1.14-.55-1.84-1-3.71-1.49-5.59-11.28.63-17.24,6.93-17.24,6.93-3.77-5.21-13.31-8.28-17-9.31q-1.05,2.58-2.23,5.09c-.16.32-.31.65-.47,1,4,1.6,10.06,3.13,19.14,3.82A73.58,73.58,0,0,0,187,92.36Z" style="fill: #c2ab9e"/>
          <path d="M182.28,90.77c-.35-1.54-.77-3.09-1.15-4.64C172.49,87.78,168,92.56,168,92.56c-2.24-3.1-6.54-5.45-10.43-7q-.94,3-2.1,5.94a85.85,85.85,0,0,0,12,1.68A83.63,83.63,0,0,0,182.8,93C182.62,92.26,182.45,91.52,182.28,90.77Z" style="fill: #d3c1b8"/>
          <path d="M174.19,88.38A22.28,22.28,0,0,0,168,92.56a17.38,17.38,0,0,0-5.14-4.42c-.28,1.48-.55,3-.83,4.44,1.67.21,3.46.4,5.4.55,2.58.19,5,.28,7.16.29C174.41,91.74,174.28,90.06,174.19,88.38Z" style="fill: #e2e2d5"/>
          <path d="M187.5,93.88c-.14-.5-.3-1-.46-1.52a73.58,73.58,0,0,1-19.64.77c-9.08-.69-15.13-2.22-19.14-3.82-.22.48-.45,1-.66,1.41,4,1.68,10.17,3.32,19.67,4A72.49,72.49,0,0,0,187.5,93.88Z" style="fill: #fcae18"/>
          <path d="M168,92.56s6-6.3,17.24-6.93c-.31-1.3-.59-2.61-.85-3.92a49.94,49.94,0,0,1-8.51,2.2A12.75,12.75,0,0,0,169,80.76a8.28,8.28,0,0,0-6.88,2.34,68.83,68.83,0,0,1-10-2.94c-.39,1-.78,2.07-1.2,3.09C154.66,84.28,164.2,87.35,168,92.56Z" style="fill: #333125"/>
          <path d="M159,82.35c-2.73-.73-5.23-1.61-6.79-2.19-.39,1-.78,2.07-1.2,3.09a60.37,60.37,0,0,1,7.17,2.5C158.4,84.62,158.67,83.49,159,82.35Z" style="fill: #010103"/>
          <path d="M181.89,86a30.62,30.62,0,0,1,3.32-.37c-.31-1.3-.59-2.61-.85-3.92a25.87,25.87,0,0,1-2.82.94C181.67,83.76,181.79,84.88,181.89,86Z" style="fill: #010103"/>
          <path d="M173.39,82.18A12.87,12.87,0,0,0,169,80.76a8.12,8.12,0,0,0-4.11.51c-.4,1.28-.83,2.55-1.11,3.84-.22,1.06-.44,2.14-.65,3.21A17.19,17.19,0,0,1,168,92.56a22.35,22.35,0,0,1,6.12-4.13C173.83,86.35,173.56,84.27,173.39,82.18Z" style="fill: #333125;opacity: 0.5;mix-blend-mode: screen"/>
          <path d="M169,80.76a12.75,12.75,0,0,1,6.85,3.15,49.94,49.94,0,0,0,8.51-2.2c-.11-.55-.21-1.1-.32-1.66a68.92,68.92,0,0,1-7.92,1.75A10.45,10.45,0,0,0,169,78.5a10.94,10.94,0,0,0-7.65,2.82,42.32,42.32,0,0,1-8.6-2.87c-.2.57-.41,1.14-.62,1.71a68.83,68.83,0,0,0,10,2.94A8.28,8.28,0,0,1,169,80.76Z" style="fill: #fcae18"/>
          <path d="M169,78.5a10.45,10.45,0,0,1,7.09,3.3A68.92,68.92,0,0,0,184,80.05c-4.53-24.4-1.66-49.54-1.66-49.54a6.52,6.52,0,0,1,1.29-1.71c.92-.89,1.14-2.9.15-4.67-.38-.66,0-1.48.33-3.05s1.47-3.83,1-4.92-2.42-4.65-11.27-5.64l-.17,0h-.18c-8.9-.36-11.37,2.85-12,3.87s.16,3.41.26,5,.34,2.47-.13,3.07c-1.25,1.59-1.34,3.62-.57,4.64a6.56,6.56,0,0,1,1,1.88s-1,25.83-9.38,49.47a42.32,42.32,0,0,0,8.6,2.87A10.94,10.94,0,0,1,169,78.5Z" style="fill: #4b4232"/>
          <g style="opacity: 0.5;mix-blend-mode: multiply">
            <path d="M184,80.05c-4.53-24.4-1.66-49.54-1.66-49.54a6.52,6.52,0,0,1,1.29-1.71c.92-.89,1.14-2.9.15-4.67-.38-.66,0-1.48.33-3.05s1.47-3.83,1-4.92a7.46,7.46,0,0,0-3.81-3.65A2.07,2.07,0,0,1,182,14.3c0,.08-.1.2-.17.15a8.21,8.21,0,0,0-4.19-1.6c1.92,1,3.63,1.34,3.74,3.32a16.28,16.28,0,0,1-.72,3.39,3.06,3.06,0,0,1-.85,1.86.16.16,0,0,1-.26-.09,11.28,11.28,0,0,0-.23-2.12c-.21.88-.37,2.27-1.43,2.26-1.3,0-1.35-1.3-1.59-2.3-.35,1.17-.37,2.49-1.92,2.6-.58,0-1.23.06-1.59-.47a4.54,4.54,0,0,1-.44-1.42,2.67,2.67,0,0,1-.6,1.24,2.33,2.33,0,0,1-1.76.15,1.73,1.73,0,0,1-1.38-.87,8.51,8.51,0,0,1-.42-1.67,16.06,16.06,0,0,0-.18,2.4.17.17,0,0,1-.13.15c-1.31.22-1.78-.67-2-1.71a3.19,3.19,0,0,1-.38,2,.17.17,0,0,1-.28,0,7,7,0,0,1-.78-3.89c0-1.08.2-2.64,1.12-3.38a11.36,11.36,0,0,1,5-1.66c1.79-.18,3.17-.09,5-.26a39.08,39.08,0,0,0-10.53.55c-.1,0-.14-.16-.08-.24,1.14-1.48,3.29-1.8,5-1.95,1.52-.13,3-.09,4.58-.13l-.64-.08-.17,0h-.18c-8.9-.36-11.37,2.85-12,3.87s.16,3.41.26,5,.34,2.47-.13,3.07c-1.25,1.59-1.34,3.62-.57,4.64a6.56,6.56,0,0,1,1,1.88s-1,25.83-9.38,49.47a42.32,42.32,0,0,0,8.6,2.87,8.79,8.79,0,0,1,.82-.67c.21-1.12.38-2.23.58-3.34.41-2.24.93-4.46,1.33-6.71.84-4.64,1.48-9.32,2-14s.9-9.41,1.32-14.12c.21-2.36.5-4.73.75-7.09.21-1.89.06-3.95.93-5.69a.15.15,0,0,1,.1-.08,2.27,2.27,0,0,1,.44-.69c.45-.47.74.06.91.59,0-.22.08-.44.13-.65s.2-.13.28-.05a6.65,6.65,0,0,0,.57.45c.53-1,2.49-.78,3,.24a1.37,1.37,0,0,1,1.49-.64c.49.09,1.5.31,1.59.93a17.57,17.57,0,0,1-.08,3.16,14.65,14.65,0,0,0,.31,3.8c.48-1.89.37-3.89,1-5.77.06-.18.3-.1.31.07.18,10.49-.74,21,0,31.47.18,2.61.41,5.2.64,7.8.16,1.84.21,3.72.55,5.53a19.12,19.12,0,0,1,.51,4.18,5.19,5.19,0,0,1-.07.87C181.88,80.66,183.05,80.36,184,80.05Zm-4.3-52.95c-.86.62-1.75-.05-2.68-.22-1.83-.31-3.68-.4-5.53-.54a14.4,14.4,0,0,0-2.93-.11,5.38,5.38,0,0,1-1.78.13c-.56-.12-1-.85-1.5-.23a.76.76,0,0,1-.66.37c-.77,0-.75-1.42-.7-1.92a2.54,2.54,0,0,1,1.25-2.21.17.17,0,0,1,.23.12A7.57,7.57,0,0,0,166,24.1a7.41,7.41,0,0,1,.54-1.65c.06-.11.16-.09.23,0a1.22,1.22,0,0,1,.4-.24,6.09,6.09,0,0,1,2.13,0,22.8,22.8,0,0,1,2.48,0,1.59,1.59,0,0,1,1,.37c.84-.6,2.62-.23,3.46-.06s2.4.39,2.86,1.24a1,1,0,0,1,1.52.71A2.88,2.88,0,0,1,179.74,27.1Z" style="fill: #4b4232"/>
          </g>
          <g style="mix-blend-mode: multiply">
            <path d="M157.43,80.25l0-.28c.25-2.13.76-4.22,1.08-6.34.83-5.48,1.73-10.95,2.51-16.44.82-5.66,1.22-11.37,1.85-17,.31-2.74.56-5.51.68-8.26,0-1.2-.06-2.32.89-3a.28.28,0,0,1,.2-.3,20.21,20.21,0,0,1,7.32-1c2.5.05,5.15.09,7.49,1.09a5.56,5.56,0,0,1,2.8,2.85c.06-.6.1-.93.1-.93a6.52,6.52,0,0,1,1.29-1.71,2.1,2.1,0,0,0,.52-.79h0c-1.08.88-2.06.56-3.27.07l-.37-.14a46.56,46.56,0,0,0-15.16-.67c-1.59.48-3.49.81-3.91-.6a4.3,4.3,0,0,1,.32-3.13c.66-1.17,2.08-1.17,3.28-1.39a.33.33,0,0,1,.32.12,31.74,31.74,0,0,1,10.2-.1,34,34,0,0,1,8.32,2.17l-.1-.21c-.38-.66,0-1.48.33-3.05s1.47-3.83,1-4.92a5.57,5.57,0,0,0-.5-.92,4.89,4.89,0,0,1,.09.53,7.68,7.68,0,0,1-.54,3c-.27.93-.4,1.9-.68,2.82-.46,1.54-1.27,1.6-2.71,1.11a23.85,23.85,0,0,0-6-1,3.07,3.07,0,0,1-.49.09,2.1,2.1,0,0,1-1.3-.19l-.93,0a65.59,65.59,0,0,0-6.73.09.11.11,0,0,1-.1,0l-1.72.1c-1.27.08-1.43-1.51-1.48-2.43-.12-1.87-.39-3.93.48-5.65A3.93,3.93,0,0,1,164,12.18a6.18,6.18,0,0,0-2.39,2.19c-.61,1,.16,3.41.26,5s.34,2.47-.13,3.07c-1.25,1.59-1.34,3.62-.57,4.64a6.56,6.56,0,0,1,1,1.88s-1,25.83-9.38,49.47A33.92,33.92,0,0,0,157.43,80.25Z" style="fill: #4b4232"/>
          </g>
          <path d="M155.7,91.52a47.15,47.15,0,0,1-7.44-2.21c-.22.48-.45,1-.66,1.41a44.47,44.47,0,0,0,7.7,2.36C155.43,92.55,155.57,92,155.7,91.52Z" style="fill: #a76008;opacity: 0.7000000000000001;mix-blend-mode: multiply"/>
          <path d="M183,93.55c.06.35.13.68.2,1,1.57-.19,3-.42,4.27-.69-.14-.5-.3-1-.46-1.52-1.23.25-2.61.46-4.12.63C183,93.18,183,93.37,183,93.55Z" style="fill: #a76008;opacity: 0.7000000000000001;mix-blend-mode: multiply"/>
          <path d="M173.29,93.41q-2.76-.06-5.89-.28c-1.5-.12-2.91-.26-4.25-.41-.13.53-.27,1.06-.41,1.6,1.42.16,2.93.31,4.53.43,2.19.17,4.23.26,6.13.29C173.37,94.5,173.32,94,173.29,93.41Z" style="fill: #fbf69b"/>
          <path d="M158.36,80.54a37,37,0,0,1-5.58-2.09c-.2.57-.41,1.14-.62,1.71,1.38.51,3.48,1.25,5.84,1.93C158.12,81.57,158.23,81.06,158.36,80.54Z" style="fill: #a76008;opacity: 0.7000000000000001;mix-blend-mode: multiply"/>
          <path d="M181.53,82.65a26.06,26.06,0,0,0,2.83-.94c-.11-.55-.21-1.1-.32-1.66-.81.26-1.73.5-2.65.71C181.43,81.39,181.48,82,181.53,82.65Z" style="fill: #a76008;opacity: 0.7000000000000001;mix-blend-mode: multiply"/>
          <path d="M172.69,79.37A10.42,10.42,0,0,0,169,78.5a9.56,9.56,0,0,0-2.55.21L166,80.93a8,8,0,0,1,3-.17,12.71,12.71,0,0,1,3.8,1.13C172.76,81.05,172.73,80.21,172.69,79.37Z" style="fill: #fbf69b"/>
          <path d="M153.05,100.05c1.09-3.22,2-5.92,2-5.92l-2.49-.83c-.43.83-1.47,2.78-2.71,5.48C151,99.2,152,99.61,153.05,100.05Z" style="fill: #fff"/>
          <path d="M152.07,103c-1.13-.48-2.28-.94-3.42-1.4a76.13,76.13,0,0,0-4.54,14.06c-1.68,8.17-2.35,33.84-2.35,33.84l4.58,1.19s.4-10.81,1-18.84,1.62-18.58,2.79-22.74C150.55,107.6,151.28,105.31,152.07,103Z" style="fill: #fff"/>
          <path d="M165,24.29c0-.19-.3-.24-.33,0l-.09.43a.58.58,0,0,0,0,.45.21.21,0,0,0,.33,0C165.13,25,165,24.55,165,24.29Z" style="fill: #88877b"/>
          <path d="M166,24.77c-.08-.14-.16-.3-.25-.43s-.45-.13-.42.12,0,.38,0,.57a.36.36,0,0,0,.25.24h0a.29.29,0,0,0,.33-.14s0,0,0,0A.34.34,0,0,0,166,24.77Z" style="fill: #88877b"/>
          <path d="M168.94,23.74a.34.34,0,0,0-.41-.18v0a.56.56,0,0,0-1-.12,2,2,0,0,0-.19.39.44.44,0,0,0-.14-.18.16.16,0,0,0-.25,0c-.23.14-.25.47-.26.72a4,4,0,0,0,0,1.14.54.54,0,0,0,.9.23,1.89,1.89,0,0,0,.26-.39.56.56,0,0,0,.63.05A1.27,1.27,0,0,0,168.94,23.74Z" style="fill: #88877b"/>
          <path d="M173.17,24.49a4.64,4.64,0,0,0-.13-1,.26.26,0,0,0-.37-.17.3.3,0,0,0-.52.14q-.09.35-.15.72l-.47-.6a.41.41,0,0,0-.49-.13.55.55,0,0,0-.89.1.39.39,0,0,1-.06.11,1.19,1.19,0,0,0-.08-.2c-.18-.36-.67-.14-.69.19a3.93,3.93,0,0,0,.27,1.55.61.61,0,0,0,.82.33.73.73,0,0,0,.05.09.57.57,0,0,0,1-.29c0-.06,0-.11,0-.17a.62.62,0,0,0,.42.12.52.52,0,0,0,.3.23.5.5,0,0,0,.4-.07.27.27,0,0,0,.34-.07A1.16,1.16,0,0,0,173.17,24.49Z" style="fill: #88877b"/>
          <path d="M177,24.84a1.45,1.45,0,0,0-.43-1.06.3.3,0,0,0-.49.29,1.63,1.63,0,0,1,0,.58h0a1.9,1.9,0,0,1-.08-.72c0-.58-.75-.68-1-.26,0,0,0,0,0,0a.38.38,0,0,0-.15-.09.28.28,0,0,0-.2,0c.06,0-.12,0-.13,0a.11.11,0,0,0,0,.2h0v0a1.57,1.57,0,0,1-.05.3s0,0,0,0a2.75,2.75,0,0,0-.23-.55.25.25,0,0,0-.45.19c.12.51,0,1,.12,1.52.05.28.37.29.55.13a.5.5,0,0,0,.69,0,1.13,1.13,0,0,0,.1-.13,1.2,1.2,0,0,0,.11.23.5.5,0,0,0,.66.21.52.52,0,0,0,.7.16C177,25.8,177,25.2,177,24.84Z" style="fill: #88877b"/>
          <path d="M178.55,24.66a.33.33,0,0,0-.62-.15l0,0a.54.54,0,0,1,0-.15c0-.27-.46-.37-.52-.06s.09.62.06.93.21.37.41.32a.4.4,0,0,0,.14.24.26.26,0,0,0,.34,0,.59.59,0,0,0,.24-.52C178.55,25.13,178.54,24.9,178.55,24.66Z" style="fill: #88877b"/>
          <path d="M179.51,24.58c-.09-.24-.48-.23-.47.07a3,3,0,0,1,0,.59c-.05.22-.14.37,0,.6a.28.28,0,0,0,.39.1c.23-.1.26-.4.28-.63A1.52,1.52,0,0,0,179.51,24.58Z" style="fill: #88877b"/>
          <path d="M180.45,25a.21.21,0,0,0-.32.26.53.53,0,0,1,0,.22c0,.25.41.33.46.06A.53.53,0,0,0,180.45,25Z" style="fill: #88877b"/>
          <path d="M178.57,12.16c-2.79-2-6.84-1.28-9.93-.43-.1,0-.08.2,0,.19a42.57,42.57,0,0,1,9.83.43C178.62,12.38,178.67,12.23,178.57,12.16Z" style="fill: #88877b"/>
          <path d="M167.76,20.83c-.15-.8-.23-1.6-.3-2.4a1.77,1.77,0,0,0,0-.23.29.29,0,0,0,0-.1c-.06-.82-.1-1.63-.18-2.45,0-.07-.1-.07-.11,0,0,.77,0,1.55,0,2.33a.18.18,0,0,0-.14.15,6,6,0,0,1-.19-1.56.09.09,0,0,0-.18,0,4.13,4.13,0,0,0,.26,3,.22.22,0,0,0,.32.13c0,.43.08.87.14,1.3C167.4,21.21,167.81,21.1,167.76,20.83Z" style="fill: #88877b"/>
          <path d="M165.67,20a26.63,26.63,0,0,1-.3-4,.11.11,0,0,0-.21,0,9.38,9.38,0,0,0-.06,4.15A.3.3,0,0,0,165.67,20Z" style="fill: #88877b"/>
          <path d="M165,19.79a7.35,7.35,0,0,1-.31-1.33c0-.39-.07-.77-.14-1.15,0-.14-.29-.11-.27,0,.08.82-.14,1.93.49,2.59C164.88,20,165,19.92,165,19.79Z" style="fill: #88877b"/>
          <path d="M175.1,17.3a.16.16,0,0,0-.29-.08,1,1,0,0,1-.21.42,2.2,2.2,0,0,1-.42-1.28.33.33,0,0,0-.5-.28A4.72,4.72,0,0,0,172.17,18c-.19-.65-.17-1.34-.41-2-.08-.21-.41-.38-.58-.14a5.83,5.83,0,0,0-1,2.51c-.13-.8-.19-1.6-.29-2.4,0-.23-.37-.24-.36,0a17.44,17.44,0,0,0,.42,3.6.24.24,0,0,0,.47,0,13.46,13.46,0,0,1,.72-2.53,4.55,4.55,0,0,0,.55,2,.41.41,0,0,0,.65.07c.52-.61.77-1.46,1.3-2.07a2.94,2.94,0,0,0,.73,1.21.26.26,0,0,0,.36,0A1.2,1.2,0,0,0,175.1,17.3Z" style="fill: #88877b"/>
          <path d="M169.22,17.05a8.09,8.09,0,0,0-.09-1c0-.17-.31-.13-.3,0a4.83,4.83,0,0,0,.08,1.9.18.18,0,0,0,.31,0A3.47,3.47,0,0,0,169.22,17.05Z" style="fill: #88877b"/>
          <path d="M179.46,17.73a3.54,3.54,0,0,0-.32-1.88.31.31,0,0,0-.57.15c0,.24,0,.48,0,.72a.37.37,0,0,0-.41.23l-.16.42c0-.17,0-.33,0-.5a.23.23,0,0,0-.34-.19l0,0c-.08,0-.11.09-.12.17a1.26,1.26,0,0,1-.19.47c-.07-.14-.15-.28-.21-.43s-.49-.06-.4.17h0l0,0a.36.36,0,0,0-.12.19.23.23,0,0,0-.26.37.61.61,0,0,0,.22.13v0a3.5,3.5,0,0,0,.06.72c.06.26.38.2.46,0a2.74,2.74,0,0,0,.15-.58.23.23,0,0,0,.3-.11,2.84,2.84,0,0,0,.09.69.31.31,0,0,0,.57.06c.13-.24.28-.49.41-.74a3.72,3.72,0,0,0-.16,1.51.39.39,0,0,0,.65.16A2.78,2.78,0,0,0,179.46,17.73Z" style="fill: #88877b"/>
          <path d="M180.88,15.92c0-.2-.33-.26-.38,0-.29,1.37-.52,2.76-.8,4.14a.47.47,0,0,0,.91.23A14.64,14.64,0,0,0,180.88,15.92Z" style="fill: #88877b"/>
          <path d="M179.21,80.52,179,79.3a33,33,0,0,0-.52-6c-.34-2.54-.37-5.13-.51-7.68-.29-5.48-.46-11-.6-16.44-.13-5.22.13-10.47-.17-15.68-.08-1.28.22-4.66-2-4a.27.27,0,0,0-.15.4A.18.18,0,0,0,175,30l0,.14a6.64,6.64,0,0,0-.4,3.46c0,.66-.07,1.32-.12,2-.17,2.05-.3,4.11-.41,6.16-.2,4.14-.3,8.27-.45,12.41s-.25,8.26-.29,12.39.3,8.09.06,12.12a.47.47,0,0,0,0,.17.26.26,0,0,0,.06.47,3.55,3.55,0,0,1,1.61.92.43.43,0,0,0,.32.32,7,7,0,0,1,.51.58.31.31,0,0,0,.24.1.3.3,0,0,0,.28.12c.86-.13,1.64-.42,2.53-.48C179,80.85,179.24,80.71,179.21,80.52Z" style="fill: #88877b"/>
          <path d="M169.24,30c0-.27-.44-.35-.5-.06a100.34,100.34,0,0,0-1.26,11.09c-.37,4.06-.65,8.13-1,12.19-.74,8-1.6,16.05-2.76,24,0,.14.17.23.24.1,1.5-3.16,1.46-7.19,2-10.61.57-3.88,1.11-7.76,1.56-11.65.47-4.05.77-8.12,1.08-12.18C168.85,38.63,169.46,34.28,169.24,30Z" style="fill: #88877b"/>
        </g>
        <g>
          <path d="M251.22,160.07c-1.55-.32-8,1.59-13.71,2.26s-7.13.08-8.68-3.31-13-28.49-14.61-32.06-.38-5,.91-7.4c1.18-2.26,4.55-6.46,6.24-11.57,3.18-9.64,1.8-17.15-6.3-32.3-3.32-6.2-10.24-14.67-13.15-18.18L167.14,73.36c.68,3.52,2.94,20.49,9.19,32.32,4.23,8,7.81,10.95,12.55,13.84s14.62,4.17,17.11,4.71,4,.38,5.58,3.94,13.07,28.66,14.61,32.05,1.08,4.84-3.19,8.73-9.93,7.48-10.7,8.87c-.36.64-.13,1.83.76,1.6s6.61-1.78,20.11-7.38c13.09-6.52,18-9.83,18.77-10.34S251.94,160.22,251.22,160.07Zm-60.57-40.49c-8.11-3.88-11.91-9.72-15.68-18.6a95.43,95.43,0,0,1-7-27.45l33.78-15.39S212.23,70.43,217.53,82c4.95,10.88,8.74,21.38-2.35,33.94C208.59,123.44,197.75,123,190.65,119.58Z" style="fill: url(#linear-gradient)"/>
          <g style="mix-blend-mode: multiply">
            <path d="M213.3,122.64l.69-.94c.32-.68.72-1.36,1.14-2.14,1.18-2.26,4.55-6.46,6.24-11.57,3.18-9.64,1.8-17.15-6.3-32.3-3.32-6.2-10.24-14.67-13.15-18.18L167.14,73.36c.68,3.52,2.94,20.49,9.19,32.32,4.23,8,7.81,10.95,12.55,13.84s14.62,4.17,17.11,4.71c.67.15,1.25.24,1.79.37l.95.09A4.41,4.41,0,0,0,213.3,122.64Zm-22.65-3.06c-8.11-3.88-11.91-9.72-15.68-18.6a95.43,95.43,0,0,1-7-27.45l33.78-15.39S212.23,70.43,217.53,82c4.95,10.88,8.74,21.38-2.35,33.94C208.59,123.44,197.75,123,190.65,119.58Z" style="fill: url(#linear-gradient-2)"/>
          </g>
          <path d="M228.83,159c-1.54-3.39-13-28.49-14.61-32.06-.15-.33-.27-.64-.38-.93a1.52,1.52,0,0,0-2.12-.69,1.56,1.56,0,0,0-.73,1.73,9.28,9.28,0,0,1,.58,1.1c1.63,3.56,13.07,28.66,14.61,32.05a5.7,5.7,0,0,1,.71,3.78.68.68,0,0,0,.11.26c.21.31.9.2,2.09-.35,1-.45,2.43-1.29,2.28-1.81A5.5,5.5,0,0,1,228.83,159Z" style="opacity: 0.5;mix-blend-mode: multiply;fill: url(#linear-gradient-3)"/>
          <path d="M207.65,124.57a4.81,4.81,0,0,1,3.34,2.5,1.56,1.56,0,0,1,.73-1.73,1.52,1.52,0,0,1,2.12.69c-.58-1.7-.63-3,0-4,0,0,0,0,0,0-1.13,1.46-1.46,2.07-2.3,2.46C210,125.28,209.32,124.65,207.65,124.57Z" style="mix-blend-mode: multiply;fill: url(#radial-gradient-5)"/>
          <path d="M209.09,125a4,4,0,0,0,4.24-1.89,3.29,3.29,0,0,0-.28,1.36,5.34,5.34,0,0,0-1.64.55c-1.18.54-1.06.72-1.06.72A3.6,3.6,0,0,0,209.09,125Z" style="mix-blend-mode: multiply;fill: url(#radial-gradient-6)"/>
          <path d="M228.83,159c-1.54-3.39-13-28.49-14.61-32.06-.15-.33-.27-.64-.38-.93a1.52,1.52,0,0,0-2.12-.69,1.56,1.56,0,0,0-.73,1.73,9.28,9.28,0,0,1,.58,1.1c1.63,3.56,13.07,28.66,14.61,32.05a5.7,5.7,0,0,1,.71,3.78.68.68,0,0,0,.11.26c.21.31.9.2,2.09-.35,1-.45,2.43-1.29,2.28-1.81A5.5,5.5,0,0,1,228.83,159Zm0,4.4c-.6.27-1.26.63-1.44-.12-.13-.49-.06-1-.16-1.52a9,9,0,0,0-.62-1.76l-1.23-2.7c-1-2.22-2-4.44-3-6.65l-3.84-8.42-3.58-7.89c-.87-1.91-1.7-3.84-2.65-5.71-.4-.8-1.91-2.52-.41-3.2a1,1,0,0,1,1.51.42c.8,1.43,1.29,3.07,2,4.56l1.26,2.74c1.17,2.61,2.36,5.22,3.55,7.84s2.5,5.52,3.75,8.28L227,156c.47,1,.95,2.08,1.41,3.12a.16.16,0,0,1,0,.07,7.16,7.16,0,0,0,1.09,1.67c.3.35,1.19.8,1.15,1.33S229.32,163.2,228.84,163.42Z" style="mix-blend-mode: multiply;fill: url(#linear-gradient-4)"/>
          <path d="M212,126.77s7,15.46,9.32,20.6,6.19,13.29,6.46,14.19.3,1.71,1.09,1.49c0,0-.38.51-.75-1.51s-4.46-10.39-7.19-16.66-8.48-18.93-8.76-18.94S211.71,125.62,212,126.77Z" style="mix-blend-mode: screen;fill: url(#linear-gradient-5)"/>
          <path d="M190.65,119.58c-8.11-3.88-11.91-9.72-15.68-18.6a95.43,95.43,0,0,1-7-27.45l33.78-15.39S212.23,70.43,217.53,82c4.95,10.88,8.74,21.38-2.35,33.94C208.59,123.44,197.75,123,190.65,119.58Z" style="opacity: 0.30000000000000004;mix-blend-mode: multiply;fill: url(#radial-gradient-7)"/>
          <g style="mask: url(#mask-4)">
            <path d="M214.31,116.07S226.87,104.57,211,78c-6.65-11.14-10.17-15.23-12.17-18.38l-7.67,3.5c3,4.58,5.39,7,10.39,16.1C211.09,96.56,215.64,107,214.31,116.07Z" style="mix-blend-mode: screen;fill: url(#radial-gradient-8)"/>
          </g>
          <g style="mask: url(#mask-5)">
            <g style="mask: url(#mask-6)">
              <path d="M207.07,120.05s-7.48-5.47-18.28-30.09c-3-6.8-4-10.37-7.45-22.38l-5.15,2.34C179.24,83.11,188.11,117.34,207.07,120.05Z" style="fill: url(#radial-gradient-9)"/>
            </g>
          </g>
          <g style="mask: url(#mask-7)">
            <path d="M181,99.64c-3.9-8.15-8.15-22-9.16-27.74l-3.6,1.64c-.18,1.75,2.9,17.46,7.24,27.75s11,16.63,18,18.94c4.51,1.48,8,1.2,12.18.43C193.29,121.06,185.75,109.55,181,99.64Z" style="opacity: 0.6000000000000001;fill: url(#radial-gradient-10)"/>
          </g>
          <path d="M201.71,58.14a128.2,128.2,0,0,1,11,14.69,76.75,76.75,0,0,1,4.73,8.44A78,78,0,0,1,220.71,89a31.49,31.49,0,0,1,1.87,8.87,21,21,0,0,1-1.23,8.35,25.11,25.11,0,0,1-2.83,5.53,40,40,0,0,1-3.34,4.23,35,35,0,0,0,4.69-7,22.81,22.81,0,0,0,2.25-8.64c.25-5.85-1.85-11.42-4.19-16.67a99.18,99.18,0,0,0-9.81-16.93C206.07,63.78,204,60.92,201.71,58.14Z" style="opacity: 0.9;mix-blend-mode: multiply;fill: url(#radial-gradient-11)"/>
          <path d="M201.61,121.93a25,25,0,0,1-8.23-1.11,26.56,26.56,0,0,1-8.1-4.27c-4.88-3.74-7.85-9.2-10.25-14.74a88.76,88.76,0,0,1-5.79-18.76c-.6-3.15-1-6.33-1.31-9.52a108.72,108.72,0,0,0,3.84,17.92c1,3.15,2.13,6.24,3.39,9.29a55,55,0,0,0,4.51,8.85,26.7,26.7,0,0,0,14.83,11.3A25.91,25.91,0,0,0,201.61,121.93Z" style="mix-blend-mode: multiply;fill: url(#radial-gradient-12)"/>
          <path d="M221,107.17c-2.52,6.88-5.61,9.67-10.4,12.73a28,28,0,0,0,3.8-2.44c1-.76,1.61-.8,1.63-.24C216.05,117.22,218.94,114.17,221,107.17Z" style="opacity: 0.30000000000000004;fill: url(#radial-gradient-13)"/>
          <path d="M191.87,120.46c7,2.55,11.66,2.36,16.84.32a14.54,14.54,0,0,1-3.39,1.18c-3.27.67-3.38.85-2.37,1.23C203,123.19,198.65,123.41,191.87,120.46Z" style="opacity: 0.30000000000000004;fill: url(#radial-gradient-14)"/>
          <path d="M200.21,123.07s5.84,1.12,8.1,1.44c0,0-1.71-.55,1.65-2.23,3.63-1.83,3.6-.49,3.49,0,0,0,2.38-4.19,4-6.93a22.19,22.19,0,0,1-3.94,4.54c-1.78,1.28-5.59,3.27-7.42,3.53A29.82,29.82,0,0,1,200.21,123.07Z" style="opacity: 0.8;fill: url(#radial-gradient-15)"/>
        </g>
      </g>
    </g>
  </g>
</svg>
