<svg xmlns="http://www.w3.org/2000/svg" viewBox="0 0 380 126">
  <g style="isolation: isolate">
    <g id="Layer_1" data-name="Layer 1">
      <g>
        <g>
          <g>
            <path d="M108.34,99.29s24.19-6.77,25.16-6.77,42.25,5.81,42.25,5.81l18.71.32,20-8.06,60.32-21,20.64-1.28L265.1,63.17l-32.91-2.58-38.7-4.51-25.16,4.51L118,62.21,94.15,73.82,82.86,75.75l-10,4.19L53.51,87,80.6,90.59Z" style="fill: #fabe79"/>
            <g>
              <path d="M213.16,137l1.93-11-3.86-7.42,7.41-12.58-4.19-15.48-20,8.06-18.71-.32s-41.29-5.81-42.25-5.81-25.16,6.77-25.16,6.77L80.6,90.59,53.51,87l10,19.36L59,125.74l10,23.87L175.75,159l14.19,3.23,23.22,1.29,2.58-20.32Z" style="fill: #f7ab62"/>
              <path d="M288.63,96.72c-.64-1-1-4.52-1-4.52l7.74-23.86-20.64,1.28-60.32,21,4.19,15.48-7.41,12.58,3.86,7.42-1.93,11,2.58,6.12-2.58,20.32,21.94-7.74,21.28-9.68,44.51-26.44S289.28,97.69,288.63,96.72Z" style="fill: #f7ab62"/>
              <path d="M288.63,96.72c-.64-1-1-4.52-1-4.52l7.74-23.86-20.64,1.28-60.32,21,4.19,15.48-7.41,12.58,3.86,7.42-1.93,11,2.58,6.12-2.58,20.32,21.94-7.74,21.28-9.68,44.51-26.44S289.28,97.69,288.63,96.72Z" style="fill: #ae7b46;opacity: 0.6000000000000001;mix-blend-mode: multiply"/>
            </g>
            <g>
              <polygon points="165.1 60.59 120.12 62.37 247.67 79.14 262.03 73.98 165.1 60.59" style="fill: #b48049"/>
              <path d="M247.67,79.14l2.74,28.7,1.46-3.22,2.74,1.45,2.57-3.71,1.14-1.45,2.09,1.45,1.13-.48,1-2.9s1-1.14,1.45-.65S262,74,262,74Z" style="fill: #9b6f3f"/>
            </g>
            <path d="M288.63,96.72c-.64-1-1-4.52-1-4.52l7.74-23.86L265.1,63.17l-32.91-2.58-38.7-4.51-25.16,4.51L118,62.21,94.15,73.82,82.86,75.75l-10,4.19L53.51,87l.5,1c9.63,3.37,19.77,5,29.83,6.83,5.91,1.06,11.87,2.14,17.67,3.74,2.7.74,5.28,1.68,7.92,2.58,2.44.84,5.35,2,7.95,1.28,5.19-1.41,9.31-5.33,14.6-6.51,4.67-1,9.84,0,14.39,1.16,6.57,1.72,13,4,19.5,5.78,3.59.35,7.19.54,10.79.62,2.8.07,5.61.1,8.41.14,2.52,0,5.18.34,7.65-.2,5-1.1,9.35-3.67,13.88-5.88a.65.65,0,0,1,1,.38c.9,2.42.78,4.42.73,6.91,0,1-2.05,2.21-2.72,2.73-5,3.8-11.32,5.87-16.81,8.84-6.69,3.6-13.38,7.3-19.85,11.27-.55.34-1.09.69-1.63,1.05,5.26-.79,10.57-1.28,15.87-1.82,8.1-.83,16.11-2.9,24.22-3.43a.65.65,0,0,1,.62.81c-.36,2.52.1,5.89-1.22,8.18-1.51,2.66-4.38,3.51-7.07,4.62-4.32,1.78-8.74,3.27-13.09,5-1.35.54-2.7,1.12-4.06,1.64,9.93,0,19.85-.05,29.77.63a.66.66,0,0,1,.64.64,18.09,18.09,0,0,1-.88,7.27.69.69,0,0,1-.63.47c-11.61.35-23.16-.9-34.74-1.58-10.13-.6-20.14-3.53-29.92-6.05-10.39-2.67-20.66-6.28-31.3-7.84q-8.4-1.23-16.87-2.07c7.51,3.88,15.1,7.6,22.85,11,.64.28.25,1.17-.33,1.2-7.19.36-14.33-.54-21.5-1-6.73-.43-13.54-.65-20.16-2a.65.65,0,0,1-.39-.95,33.34,33.34,0,0,0,3.13-4.82c-3,1.75-6.16,3.42-8.57,6a.66.66,0,0,1-1-.12c-4.14-5.67-6.26-12.5-10.54-18.07-.27-.35,0-.82.39-.94,5.26-1.84,9.68-5.43,14.8-7.64l1.46-.62c-1.34-1.08-2.64-2.17-3.92-3.3-4.76-4.25-9.46-8.58-14.12-12.94l2.81,5.45L59,125.74l10,23.87L175.75,159l14.19,3.23,23.22,1.29,21.94-7.74,21.28-9.68,44.51-26.44S289.28,97.69,288.63,96.72ZM188.8,60l2.28-.58c5.21-2.08,10.73-2,16.22-.94,6.85,1.33,13.53,3.15,20.47,4.16,7.81,1.13,15.68,2.21,23.58,2.67,6,.34,12.14.12,17.77,2.43a.65.65,0,0,1,0,1.24c-12.74,5.2-27.93,2.45-41.12.5-7.6-1.11-15-3-22.61-4.19-5.69-.87-11.71-1-16.74-4.11A.65.65,0,0,1,188.8,60Zm17,30.09c-4.38,1.67-8.95,3.81-13.63,4.43a56.07,56.07,0,0,1-12,.09c-15.43-1.17-30.94-1.16-46.31-2.89-2.9.64-5.82,1.19-8.71,1.86-5.45,1.27-10.49,2.58-15.52,1.31-6.06-.24-12-2.2-17.89-3.63C84.93,89.58,78.15,87.88,71.4,86a.64.64,0,0,1-.15-1.17C82.12,79.94,94,80.4,105.69,80.08a41.9,41.9,0,0,1-6.06-2.48.66.66,0,0,1,0-1.12c4.3-2.7,8.52-5.51,12.84-8.18a17.48,17.48,0,0,1,6.78-3.39c4.83-1,10.63,1.52,15.07,3.12a.65.65,0,0,1,.14,1.18,52.87,52.87,0,0,1-5.93,3.52c5.42-.88,10.73-2.52,16.14-3.43a37.83,37.83,0,0,1,7-1.1c9-.46,18,2.29,26.77,3.61,17.25,2.6,35.36,1.13,52.07,6.76.46.16.7.94.15,1.18C222.44,83.3,214.18,86.85,205.79,90.06Zm76.38-2a195.18,195.18,0,0,0-13.28,18.27c2.52-1.66,4.68-3.83,7.16-5.58a.65.65,0,0,1,.95.73,41.65,41.65,0,0,1-5,9.28.42.42,0,0,1,0,.12c-4.57,9.27-12.54,17.66-20.1,24.6-7,6.43-15,10.56-24.54,11.63-.65.07-.85-.91-.32-1.2,4.57-2.54,9.35-4.71,13.6-7.75-7.63-.61-15-2.94-22.73-2.88a.65.65,0,0,1-.63-.47c-.6-4.41-1.15-7.55,2.69-9.94a10.52,10.52,0,0,1-3.49-4.1.65.65,0,0,1,.39-.94c11.21-3,23.31-2.6,34.13-7.08-4.79-1.79-9.7-3.25-14.58-4.75-4.48-1.37-9.7-4.19-14.43-3.9a.65.65,0,0,1-.65-.64c-.2-3.52-.25-7-.64-10.53a.61.61,0,0,1,.47-.62c.29-.11.58-.2.87-.3a.62.62,0,0,1,.42-.78c5.69-1.79,11.26-3.87,16.81-6,.88-.47,1.75-1,2.6-1.46a.57.57,0,0,1,.79.15c4-1.55,8-3.1,12-4.58,10.35-3.81,21.11-5.92,31.68-9,.52-.15.86.33.8.8C286.28,76.84,286,83.49,282.17,88.09Z" style="fill: #ae7b46;opacity: 0.30000000000000004;mix-blend-mode: multiply"/>
            <g style="opacity: 0.30000000000000004;mix-blend-mode: multiply">
              <path d="M74.77,113.65a51,51,0,0,0-10.4-7.71c5.09,4.38,9.85,9.44,15.63,12.84l.06,0C78.28,117.11,76.56,115.36,74.77,113.65Z" style="fill: #9c6f3e"/>
              <path d="M185.68,122.09c3.15-1.37,6.33-2.63,9.49-3.91,5-2,10-4.09,14.94-6.27q4-1.95,8-4c.37-.28.74-.57,1.1-.87-13.82,4.51-27,11.32-40.18,17.39a1,1,0,0,0-.44.43A52.44,52.44,0,0,0,185.68,122.09Z" style="fill: #9c6f3e"/>
              <path d="M236.81,115.83a25.71,25.71,0,0,0,3.82-1.71c-10.18.73-20.13,2.92-30.18,4.31-.93.34-1.85.72-2.77,1.11,3.5.4,7.68-.72,11.07-1.13C224.79,117.69,230.81,116.85,236.81,115.83Z" style="fill: #9c6f3e"/>
              <path d="M289.21,87.48C285.66,94,280.29,99.73,276,105.8c-4.59,6.59-8.9,13.36-13.08,20.22-.2.32-.17.56,0,.69,1.24-1.52,2.39-3.14,3.61-4.65,1-1.27,2.08-2.5,3.13-3.75,2.66-4,5.26-7.94,7.89-11.9,3.77-5.67,8.48-11.09,11.3-17.33C289,88.55,289.1,88,289.21,87.48Z" style="fill: #9c6f3e"/>
            </g>
            <g>
              <path d="M94.34,124.66a1.33,1.33,0,0,0-1.68-.63s0-.1,0-.15c-.5-1.09-2.32-.59-2.93.07a1.11,1.11,0,0,0-1,.79.91.91,0,0,0,.35,1,2.23,2.23,0,0,0,1.45.2,2,2,0,0,0,.09,1.41c.84,1.48,2.85.39,3.48-.71A2.11,2.11,0,0,0,94.34,124.66Z" style="fill: #9b6f3f;opacity: 0.30000000000000004;mix-blend-mode: multiply"/>
              <path d="M102.45,125.8c-.49-1-2.08-.87-3-.26a1.48,1.48,0,0,0-.62.5.83.83,0,0,0,.3,1.23,3,3,0,0,0,1.26.15,3.52,3.52,0,0,0,1.29-.2C102.21,127,102.72,126.34,102.45,125.8Z" style="fill: #9b6f3f;opacity: 0.30000000000000004;mix-blend-mode: multiply"/>
              <path d="M88.31,116.89c-.81,0-1.6,1.59-.58,1.59C88.54,118.48,89.33,116.89,88.31,116.89Z" style="fill: #9b6f3f;opacity: 0.30000000000000004;mix-blend-mode: multiply"/>
              <path d="M166.71,78.13c-3.37-.08-5.23.09-7.63-2.71a3.88,3.88,0,0,0-2.43-1.3c-2.06-1.45-4.67.07-6.19,1.75-1,1.1-1,2.74-2.09,3.88A5.35,5.35,0,0,1,146.08,81c-3.21.2-7.18-.07-8.76.65-2.34,1-1.61,2.9-.31,4.5,1,1.28,6.27.07,6.92.09,3.95.1,6.82,2.46,10.75,2.24,3.21-.19,6.49-1.5,9.62-2.12,1.8-.35,4.68-.36,6.07-1.85C173.66,81,170.63,78.23,166.71,78.13Z" style="fill: #9b6f3f;opacity: 0.30000000000000004;mix-blend-mode: multiply"/>
              <path d="M180.16,76c-.76-1-2.25-1-3.44-.49l-.6,0a1.75,1.75,0,0,0-1.47,1.11c-.53,1.46,1.68,1.68,2.57,1.8C178.43,78.64,181.43,77.76,180.16,76Z" style="fill: #9b6f3f;opacity: 0.30000000000000004;mix-blend-mode: multiply"/>
              <path d="M182,80.54a3.32,3.32,0,0,0-2.45.46,2.21,2.21,0,0,0-.6.17c-.68.33-1.32,1.21-.75,1.94a2.56,2.56,0,0,0,2,.77c1.24-.1,3.29-.47,3.53-1.95C183.94,80.93,182.66,80.72,182,80.54Z" style="fill: #9b6f3f;opacity: 0.30000000000000004;mix-blend-mode: multiply"/>
              <path d="M172.61,85.57c-.68,0-1.34,1.33-.49,1.33C172.8,86.9,173.45,85.57,172.61,85.57Z" style="fill: #9b6f3f;opacity: 0.30000000000000004;mix-blend-mode: multiply"/>
              <path d="M71.51,122.38h0a.71.71,0,0,0-.38.18h0a1.08,1.08,0,0,0-.24.18c-.28.14-.49.5-.32.74s.4.56.81.4l-.23.07a1.1,1.1,0,0,0,1.07-.95A.55.55,0,0,0,71.51,122.38Z" style="fill: #9b6f3f;opacity: 0.30000000000000004;mix-blend-mode: multiply"/>
              <path d="M246.15,125l0,0a.06.06,0,0,0,0,0h0a.66.66,0,0,0-.59-.15,1.31,1.31,0,0,0-1,1.09,1.63,1.63,0,0,0,0,.54.65.65,0,0,0,.63.58h.05a1.39,1.39,0,0,0,1.32-1.17s0,0,0-.07A.72.72,0,0,0,246.15,125Z" style="fill: #9b6f3f;opacity: 0.30000000000000004;mix-blend-mode: multiply"/>
              <path d="M282.92,109.41c-.7,0-1.39,1.38-.51,1.38C283.12,110.79,283.8,109.41,282.92,109.41Z" style="fill: #9b6f3f;opacity: 0.30000000000000004;mix-blend-mode: multiply"/>
              <path d="M280.1,117.7h0a1.15,1.15,0,0,0-.18.16,1.08,1.08,0,0,0-.25.41.82.82,0,0,0,0,.44.39.39,0,0,0,.33.4c.53.23,1.2-.47,1.26-1C281.29,117.47,280.55,117.37,280.1,117.7Z" style="fill: #9b6f3f;opacity: 0.30000000000000004;mix-blend-mode: multiply"/>
              <path d="M290,117.59a1.42,1.42,0,0,0-.62.29c-.22.2-.46.52-.31.83a.47.47,0,0,0,.65.12.66.66,0,0,0,.44-.23l.12-.11C290.57,118.2,290.58,117.43,290,117.59Z" style="fill: #9b6f3f;opacity: 0.30000000000000004;mix-blend-mode: multiply"/>
              <path d="M285.26,118.76c-.05,0-.1.1,0,.1S285.33,118.76,285.26,118.76Z" style="fill: #9b6f3f;opacity: 0.30000000000000004;mix-blend-mode: multiply"/>
              <path d="M287,116.13a1.36,1.36,0,0,0-.5.39s0,.11.05.07a.84.84,0,0,1,.45-.25C287.14,116.3,287.17,116.07,287,116.13Z" style="fill: #9b6f3f;opacity: 0.30000000000000004;mix-blend-mode: multiply"/>
              <path d="M290.22,112.63h-.07a.71.71,0,0,0-.66.58,1,1,0,0,1,0,.17.22.22,0,0,0,.27.25l.19,0a.69.69,0,0,0,.53-.57s0-.07,0-.1S290.39,112.62,290.22,112.63Z" style="fill: #9b6f3f;opacity: 0.30000000000000004;mix-blend-mode: multiply"/>
              <path d="M285.22,120.57c-.83,0-1.65,1.64-.6,1.64C285.46,122.21,286.28,120.57,285.22,120.57Z" style="fill: #9b6f3f;opacity: 0.30000000000000004;mix-blend-mode: multiply"/>
            </g>
          </g>
          <polygon points="60.28 95.1 65.23 102.84 85.23 121.77 68.45 100.91 65.88 93.6 58.78 91.88 60.28 95.1" style="fill: #f7ab62;opacity: 0.5;mix-blend-mode: screen"/>
          <polygon points="152.53 132.09 201.34 107.79 204.56 100.69 193.38 104.99 152.53 132.09" style="fill: #f7ab62;opacity: 0.5;mix-blend-mode: screen"/>
          <path d="M90,98.54c.86.65,26.23,6.45,26.23,6.45l12.9-3.86L160.7,108l-32.25-3.66-17.64,3Z" style="fill: #f7ab62;opacity: 0.5;mix-blend-mode: screen"/>
          <polygon points="76.84 84.35 111.46 92.52 129.09 90.16 113.39 89.51 86.73 82.21 76.84 84.35" style="fill: #fabe79;opacity: 0.4;mix-blend-mode: screen"/>
          <path d="M173,71.67c-.54.54,29.9,3.22,29.9,3.22l23.64,3.87-5,1.72-4.29-1.29-38.49-6S173.38,71.24,173,71.67Z" style="fill: #fabe79;opacity: 0.4;mix-blend-mode: screen"/>
          <path d="M107.06,131.55c1.28.32,49,14.19,49,14.19s22.89,4.19,23.54,4.19-37.41-11.28-45.8-16.77S91.24,118,91.24,118Z" style="fill: #f7ab62;opacity: 0.5;mix-blend-mode: screen"/>
        </g>
        <path d="M295.41,68.34,265.1,63.17l-32.91-2.58-38.7-4.51-25.16,4.51-2.61.09-.62-.09L151,61.15l-33,1.06L94.15,73.82,82.86,75.75l-1.2.51A517.85,517.85,0,0,0,130,102.76c5.54,2.71,11.14,5.39,16.69,8.17,8.71-1.79,17.72-1.79,26.57-2.4a257.37,257.37,0,0,0,28-3.92c1.25-.37,2.49-.74,3.74-1.09,7.21-2.06,14.38-4.25,21.5-6.64,6.55-2.19,12.9-4.64,19.92-4.46,5.76.15,11.48.78,17.21,1.27,5.5-.82,11-1.59,16.53-2.24.62-.08.61.89,0,1-4.06.47-8.11,1-12.15,1.61.48,0,1,.07,1.46.09,6.15.35,12.36.43,18.57.31-.19-1.13-.29-2.22-.29-2.22l.7-2.14c.15-.33.33-.65.48-1,.13-.53.25-1.06.36-1.6,0,0,0,0,0,.08Z" style="fill: #453015;opacity: 0.30000000000000004;mix-blend-mode: multiply"/>
        <g>
          <g>
            <path d="M256.07,43.52s-24.18-6.78-25.16-6.78-42.25,5.81-42.25,5.81l-18.7.32-20-8.06-60.32-21L69,12.56,99.32,7.39l32.9-2.57L170.93.3l25.15,4.52,50.32,1.6L270.26,18,281.55,20l10,4.19,19.35,7.1-27.09,3.55Z" style="fill: #fabe79"/>
            <g>
              <path d="M151.25,81.25l-1.94-11,3.88-7.41-7.42-12.58L150,34.81l20,8.06,18.7-.32s41.29-5.81,42.25-5.81,25.16,6.78,25.16,6.78l27.74-8.71,27.09-3.55-10,19.35L305.42,70l-10,23.87-106.76,9.35-14.19,3.23-23.22,1.29-2.58-20.32Z" style="fill: #f7ab62"/>
              <path d="M75.78,40.93c.64-1,1-4.51,1-4.51L69,12.56l20.64,1.29,60.32,21-4.19,15.48,7.42,12.58-3.88,7.41,1.94,11-2.58,6.13,2.58,20.32L129.32,100,108,90.28,63.52,63.83S75.14,41.91,75.78,40.93Z" style="fill: #f7ab62"/>
              <path d="M75.78,40.93c.64-1,1-4.51,1-4.51L69,12.56l20.64,1.29,60.32,21-4.19,15.48,7.42,12.58-3.88,7.41,1.94,11-2.58,6.13,2.58,20.32L129.32,100,108,90.28,63.52,63.83S75.14,41.91,75.78,40.93Z" style="fill: #ae7b46;opacity: 0.6000000000000001;mix-blend-mode: multiply"/>
            </g>
            <g>
              <polygon points="199.31 4.82 244.3 6.59 116.74 23.36 102.39 18.2 199.31 4.82" style="fill: #b48049"/>
              <path d="M116.74,23.36,114,52.06l-1.46-3.22-2.74,1.45-2.57-3.71-1.13-1.45L104,46.58l-1.13-.48-1-2.91s-1-1.13-1.45-.64,1.94-24.35,1.94-24.35Z" style="fill: #9b6f3f"/>
            </g>
            <path d="M63.52,63.83,108,90.28,129.32,100l21.93,7.74,23.22-1.29,14.19-3.23,106.76-9.35,10-23.87-4.51-19.35,2.81-5.44c-4.68,4.36-9.36,8.7-14.13,12.94-1.27,1.13-2.58,2.22-3.91,3.3l1.45.62c5.11,2.21,9.54,5.8,14.8,7.64.35.12.66.59.39.94-4.27,5.58-6.4,12.4-10.53,18.07a.67.67,0,0,1-1,.12c-2.42-2.61-5.53-4.27-8.56-6a32.83,32.83,0,0,0,3.12,4.83.65.65,0,0,1-.38,1c-6.62,1.38-13.44,1.6-20.17,2-7.17.46-14.31,1.36-21.5,1-.58,0-1-.92-.32-1.2,7.75-3.36,15.34-7.07,22.85-11-5.65.54-11.27,1.24-16.87,2.06C238.29,83,228,86.65,217.64,89.33c-9.8,2.52-19.8,5.44-29.93,6-11.58.68-23.12,1.92-34.74,1.58a.66.66,0,0,1-.62-.48,17.7,17.7,0,0,1-.88-7.26.65.65,0,0,1,.64-.64c9.91-.68,19.84-.67,29.76-.63-1.36-.52-2.7-1.1-4.06-1.64-4.34-1.72-8.77-3.2-13.09-5-2.69-1.1-5.55-1.94-7.08-4.6-1.32-2.3-.85-5.67-1.21-8.19-.05-.38.17-.85.63-.81,8.11.53,16.11,2.59,24.21,3.43,5.3.54,10.61,1,15.88,1.82-.54-.36-1.09-.71-1.63-1-6.48-4-13.17-7.68-19.85-11.28-5.51-3-11.82-5-16.81-8.84-.68-.52-2.72-1.71-2.73-2.73,0-2.5-.17-4.49.74-6.91a.64.64,0,0,1,.94-.38c4.54,2.22,8.91,4.77,13.88,5.88,2.48.55,5.13.24,7.65.2,2.8,0,5.61-.07,8.42-.14,3.6-.08,7.2-.27,10.78-.61,6.52-1.82,12.93-4.07,19.51-5.79,4.54-1.18,9.72-2.2,14.38-1.16,5.3,1.19,9.41,5.1,14.6,6.5,2.61.71,5.51-.43,7.95-1.27,2.64-.9,5.23-1.84,7.92-2.58,5.81-1.6,11.75-2.68,17.68-3.74,10.05-1.79,20.19-3.46,29.82-6.83l.5-1-19.35-7.1-10-4.19L270.26,18,246.4,6.42l-50.32-1.6L170.93.3,132.22,4.82,99.32,7.39,69,12.56l7.75,23.86s-.33,3.55-1,4.51S63.52,63.83,63.52,63.83ZM175.76,5.38c-5,3.09-11,3.23-16.73,4.1-7.57,1.16-15,3.08-22.62,4.19-13.19,1.94-28.38,4.69-41.13-.49a.66.66,0,0,1,0-1.25c5.65-2.31,11.8-2.09,17.78-2.43C121,9,128.83,8,136.65,6.83c6.93-1,13.6-2.83,20.47-4.15,5.48-1.06,11-1.15,16.21.93l2.28.58A.66.66,0,0,1,175.76,5.38ZM133.72,24c-.55-.24-.31-1,.16-1.18,16.7-5.62,34.82-4.15,52.06-6.75,8.8-1.33,17.82-4.08,26.77-3.62a38,38,0,0,1,7,1.1c5.42.91,10.72,2.55,16.14,3.43a52.39,52.39,0,0,1-5.94-3.52.66.66,0,0,1,.16-1.18c4.44-1.6,10.23-4.15,15.06-3.12A17.66,17.66,0,0,1,252,12.52c4.31,2.68,8.53,5.48,12.83,8.19a.64.64,0,0,1,0,1.11,41.9,41.9,0,0,1-6.06,2.48c11.67.32,23.57-.14,34.44,4.79a.65.65,0,0,1-.15,1.18c-6.75,1.83-13.53,3.53-20.33,5.18-5.85,1.43-11.81,3.39-17.87,3.63-5,1.27-10.08,0-15.53-1.31-2.89-.66-5.81-1.23-8.7-1.86-15.37,1.73-30.89,1.72-46.32,2.89a57.3,57.3,0,0,1-12-.08c-4.68-.64-9.26-2.77-13.64-4.44C150.23,31.07,142,27.52,133.72,24ZM77.3,15.42c-.06-.47.28-.95.81-.8,10.56,3.05,21.33,5.15,31.68,9,4,1.48,8,3,12,4.58a.58.58,0,0,1,.79-.16q1.29.78,2.61,1.47c5.56,2.14,11.13,4.21,16.81,6a.63.63,0,0,1,.42.79l.87.29a.67.67,0,0,1,.48.62c-.39,3.51-.45,7-.65,10.54a.66.66,0,0,1-.64.65c-4.75-.3-10,2.51-14.44,3.89-4.88,1.5-9.78,3-14.58,4.74,10.82,4.49,22.91,4,34.13,7.08a.66.66,0,0,1,.39,1,10.7,10.7,0,0,1-3.49,4.11c3.84,2.38,3.3,5.52,2.69,9.93a.61.61,0,0,1-.62.47c-7.7-.06-15.11,2.26-22.74,2.88,4.26,3,9,5.21,13.61,7.75.52.29.33,1.27-.33,1.2-9.49-1.07-17.56-5.21-24.54-11.63C105,72.79,97,64.4,92.42,55.13a.22.22,0,0,1,0-.11,41.13,41.13,0,0,1-5-9.29.64.64,0,0,1,.94-.73c2.48,1.75,4.64,3.92,7.16,5.58A195.18,195.18,0,0,0,82.24,32.31C78.45,27.7,78.14,21.06,77.3,15.42Z" style="fill: #ae7b46;opacity: 0.30000000000000004;mix-blend-mode: multiply"/>
            <g style="opacity: 0.30000000000000004;mix-blend-mode: multiply">
              <path d="M289.64,57.87A50.87,50.87,0,0,1,300,50.16C295,54.54,290.19,59.6,284.42,63h-.07C286.13,61.33,287.86,59.58,289.64,57.87Z" style="fill: #9c6f3e"/>
              <path d="M178.72,66.31c-3.13-1.37-6.31-2.63-9.48-3.91-5-2-10-4.09-14.94-6.26-2.68-1.31-5.36-2.64-8-4-.37-.27-.74-.57-1.11-.86,13.82,4.5,27,11.31,40.2,17.38a1,1,0,0,1,.43.42A51,51,0,0,1,178.72,66.31Z" style="fill: #9c6f3e"/>
              <path d="M127.6,60.05a25.71,25.71,0,0,1-3.82-1.71c10.18.72,20.12,2.92,30.18,4.31.93.35,1.85.72,2.77,1.11-3.49.4-7.67-.72-11.06-1.13C139.63,61.9,133.6,61.07,127.6,60.05Z" style="fill: #9c6f3e"/>
              <path d="M140.31,79.48a177.73,177.73,0,0,1,28.91,6.75l2.49,1.24c-8.55-2.28-17.18-4.09-25.85-5.84A45.48,45.48,0,0,1,140.31,79.48Z" style="fill: #9c6f3e"/>
              <path d="M75.19,31.7C78.75,38.19,84.13,44,88.37,50c4.59,6.59,8.9,13.36,13.09,20.22.2.32.17.55,0,.69-1.24-1.53-2.38-3.14-3.6-4.64-1-1.27-2.08-2.52-3.14-3.76-2.66-4-5.25-7.93-7.89-11.9C83.09,45,78.39,39.54,75.57,33.3,75.43,32.77,75.32,32.24,75.19,31.7Z" style="fill: #9c6f3e"/>
              <path d="M134.73,88.65c-2.47-.21-4.94-.57-7.4-1-.54-.11-1.11-.2-1.69-.28a.49.49,0,0,1,.35-.2c10-1.48,19.77-.52,29.72-1.16a14.18,14.18,0,0,1-1.86,1A156.13,156.13,0,0,1,134.73,88.65Z" style="fill: #9c6f3e"/>
              <path d="M189.46,103.09c11.24-5,23.13-8.61,34.77-12.59,8.74-3,18-7.86,27.3-10.29a31.69,31.69,0,0,1,7.82-.69c-5.46,1.19-10.68,3.73-15.82,5.78-6,2.4-12.08,4.74-18.14,7.08-8.93,3.46-18.19,6.38-27.41,9.23A85.26,85.26,0,0,0,189.46,103.09Z" style="fill: #9c6f3e"/>
            </g>
            <g>
              <path d="M270.07,68.88a1.37,1.37,0,0,1,1.69-.64.68.68,0,0,1,0-.14c.51-1.09,2.33-.58,2.93.07a1.12,1.12,0,0,1,1,.79.91.91,0,0,1-.35,1,2.26,2.26,0,0,1-1.44.19,2,2,0,0,1-.1,1.42c-.83,1.48-2.86.39-3.49-.7A2.13,2.13,0,0,1,270.07,68.88Z" style="fill: #9b6f3f;opacity: 0.30000000000000004;mix-blend-mode: multiply"/>
              <path d="M262,70c.5-1,2.09-.87,3-.26a1.44,1.44,0,0,1,.63.51.83.83,0,0,1-.31,1.22,2.93,2.93,0,0,1-1.25.15,3.57,3.57,0,0,1-1.3-.2C262.21,71.25,261.7,70.56,262,70Z" style="fill: #9b6f3f;opacity: 0.30000000000000004;mix-blend-mode: multiply"/>
              <path d="M272.93,78.09c.83-1.48,2.37-1,3.59-1.71l2.18-1.32a2.81,2.81,0,0,1,.66-.31.18.18,0,0,1,.05-.17c1.63-1.61,3.22-4.12,5.81-2.43a4.73,4.73,0,0,1,2.47,3.33,4.26,4.26,0,0,1-.07,1.18c.67.31,1.33.62,1.93,1,1.95.56,4,1.38,3.21,3.45-.71,1.9-2.6,3.17-4.52,2.38a6.33,6.33,0,0,1-2.36-2.15c-1.28-1.69-2.1-.09-3.26,1-2.26,2.2-4.73,1.2-5.69-1.72a3.59,3.59,0,0,1-.13-.52l-.65.32a3,3,0,0,1-1.6.11C273.69,80.24,272.31,79.18,272.93,78.09Z" style="fill: #9b6f3f;opacity: 0.30000000000000004;mix-blend-mode: multiply"/>
              <path d="M269.92,80.5l.21,0c.73.09,1.63,1.3.95,1.93s-1.75-.4-1.85-1.1a1.25,1.25,0,0,0,0-.19C269.13,80.7,269.49,80.45,269.92,80.5Z" style="fill: #9b6f3f;opacity: 0.30000000000000004;mix-blend-mode: multiply"/>
              <path d="M276.1,61.1c.81,0,1.6,1.6.58,1.6C275.87,62.7,275.08,61.1,276.1,61.1Z" style="fill: #9b6f3f;opacity: 0.30000000000000004;mix-blend-mode: multiply"/>
              <path d="M197.71,22.36c3.37-.09,5.23.08,7.61-2.72a4,4,0,0,1,2.44-1.3c2.07-1.46,4.68.07,6.19,1.75,1,1.09,1,2.74,2.09,3.89a5.26,5.26,0,0,0,2.3,1.25c3.2.2,7.17-.07,8.75.65,2.34,1.06,1.61,2.9.31,4.5-1,1.28-6.27.07-6.91.09-4,.1-6.83,2.46-10.75,2.24-3.22-.18-6.5-1.5-9.63-2.12-1.8-.35-4.68-.35-6.07-1.86C190.76,25.19,193.79,22.46,197.71,22.36Z" style="fill: #9b6f3f;opacity: 0.30000000000000004;mix-blend-mode: multiply"/>
              <path d="M184.25,20.25c.77-1,2.25-1,3.44-.49l.59,0a1.75,1.75,0,0,1,1.49,1.11c.53,1.46-1.68,1.68-2.57,1.8C186,22.86,183,22,184.25,20.25Z" style="fill: #9b6f3f;opacity: 0.30000000000000004;mix-blend-mode: multiply"/>
              <path d="M182.42,24.77a3.28,3.28,0,0,1,2.45.45,1.9,1.9,0,0,1,.6.17c.69.33,1.33,1.21.76,1.94a2.52,2.52,0,0,1-2,.76c-1.23-.09-3.28-.46-3.54-1.94C180.47,25.14,181.75,24.94,182.42,24.77Z" style="fill: #9b6f3f;opacity: 0.30000000000000004;mix-blend-mode: multiply"/>
              <path d="M191.81,29.79c.68,0,1.33,1.33.48,1.33C191.62,31.12,191,29.79,191.81,29.79Z" style="fill: #9b6f3f;opacity: 0.30000000000000004;mix-blend-mode: multiply"/>
              <path d="M292.91,66.6h0a1,1,0,0,1,.38.17s0,0,0,0a1.3,1.3,0,0,1,.23.18c.28.14.5.5.33.74a.55.55,0,0,1-.82.4l.24.07a1.11,1.11,0,0,1-1.08-1A.56.56,0,0,1,292.91,66.6Z" style="fill: #9b6f3f;opacity: 0.30000000000000004;mix-blend-mode: multiply"/>
              <path d="M129,71.59a1.3,1.3,0,0,1,.51,0c.51-.09,1.11.73.75,1.2a.82.82,0,0,1-.55.28C129.09,73.18,128.29,71.76,129,71.59Z" style="fill: #9b6f3f;opacity: 0.30000000000000004;mix-blend-mode: multiply"/>
              <path d="M124.28,71.41c.08-.47.68,0,.72.24l0,.16c.09.56-.86.27-.77-.25A.77.77,0,0,1,124.28,71.41Z" style="fill: #9b6f3f;opacity: 0.30000000000000004;mix-blend-mode: multiply"/>
              <path d="M117.87,70a.07.07,0,0,1,0,0,1.4,1.4,0,0,0,1.31,1.18h.06a.7.7,0,0,0,.64-.59,2.53,2.53,0,0,0,0-.55,1.33,1.33,0,0,0-1-1.08.72.72,0,0,0-.6.15h0v0s0,0,0,0A.73.73,0,0,0,117.87,70Z" style="fill: #9b6f3f;opacity: 0.30000000000000004;mix-blend-mode: multiply"/>
              <path d="M81.49,53.63c.71,0,1.38,1.38.5,1.38C81.29,55,80.61,53.63,81.49,53.63Z" style="fill: #9b6f3f;opacity: 0.30000000000000004;mix-blend-mode: multiply"/>
              <path d="M84.31,61.92h0l.18.16a1,1,0,0,1,.29.85.4.4,0,0,1-.33.4c-.53.23-1.2-.46-1.26-1C83.12,61.69,83.86,61.59,84.31,61.92Z" style="fill: #9b6f3f;opacity: 0.30000000000000004;mix-blend-mode: multiply"/>
              <path d="M74.41,61.81a1.42,1.42,0,0,1,.62.29c.22.19.47.52.31.83s-.42.24-.65.12a.74.74,0,0,1-.44-.22l-.11-.12C73.85,62.42,73.82,61.65,74.41,61.81Z" style="fill: #9b6f3f;opacity: 0.30000000000000004;mix-blend-mode: multiply"/>
              <path d="M79.15,63s.1.11,0,.11S79.08,63,79.15,63Z" style="fill: #9b6f3f;opacity: 0.30000000000000004;mix-blend-mode: multiply"/>
              <path d="M77.4,60.35a1.28,1.28,0,0,1,.5.39s0,.12-.05.07a.84.84,0,0,0-.45-.25C77.27,60.53,77.25,60.29,77.4,60.35Z" style="fill: #9b6f3f;opacity: 0.30000000000000004;mix-blend-mode: multiply"/>
              <path d="M74.19,56.85h.08a.69.69,0,0,1,.65.58c0,.06,0,.11,0,.17a.22.22,0,0,1-.27.25l-.18,0a.71.71,0,0,1-.54-.57v-.1C74,57,74,56.84,74.19,56.85Z" style="fill: #9b6f3f;opacity: 0.30000000000000004;mix-blend-mode: multiply"/>
              <path d="M79.19,64.79c.84,0,1.65,1.65.6,1.65C79,66.44,78.14,64.79,79.19,64.79Z" style="fill: #9b6f3f;opacity: 0.30000000000000004;mix-blend-mode: multiply"/>
            </g>
          </g>
          <polygon points="304.13 39.32 299.18 47.06 279.19 65.99 295.96 45.13 298.53 37.82 305.63 36.1 304.13 39.32" style="fill: #f7ab62;opacity: 0.5;mix-blend-mode: screen"/>
          <polygon points="211.89 76.31 163.08 52.01 159.85 44.92 171.03 49.22 211.89 76.31" style="fill: #f7ab62;opacity: 0.5;mix-blend-mode: screen"/>
          <path d="M274.45,42.77c-.85.64-26.23,6.44-26.23,6.44l-12.9-3.87-31.6,6.89L236,48.57l17.63,3Z" style="fill: #f7ab62;opacity: 0.5;mix-blend-mode: screen"/>
          <polygon points="287.57 28.57 252.96 36.74 235.32 34.38 251.02 33.74 277.68 26.42 287.57 28.57" style="fill: #fabe79;opacity: 0.4;mix-blend-mode: screen"/>
          <path d="M191.46,15.89c.55.55-29.89,3.22-29.89,3.22L137.91,23l5,1.73,4.29-1.3,38.49-6S191,15.46,191.46,15.89Z" style="fill: #fabe79;opacity: 0.4;mix-blend-mode: screen"/>
          <path d="M257.36,75.77c-1.29.32-49,14.19-49,14.19s-22.89,4.19-23.54,4.19,37.42-11.29,45.8-16.77,42.58-15.16,42.58-15.16Z" style="fill: #f7ab62;opacity: 0.5;mix-blend-mode: screen"/>
        </g>
        <g>
          <g>
            <g>
              <path d="M181.37,129.34,178.31,134s8.81-1.45,13.31-.73,17.44-1.43,20-1.25,22.13,1.43,29.5,1.79,32.74-.72,34.36-.36,41.73-.36,42.27-.54-2.17-8.45-2.52-7.91-10.44-1.08-11.69-.9S181.37,129.34,181.37,129.34Z" style="fill: #d3d0b7"/>
              <path d="M188.59,130.65a52.36,52.36,0,0,1,10.62-.62c3.7.15,7.4.48,11.11.48l11.22,0c17.73,0,35.46-.17,53.18-.17,8.62,0,17.21-.25,25.82-.38,5.47-.08,11,0,16.49-.45-.69-2.27-1.63-4.77-1.84-4.47-.36.54-10.44-1.08-11.69-.9s-122.13,5.22-122.13,5.22l-1.67,2.55C182.68,131.71,185.62,131.13,188.59,130.65Z" style="fill: #d3d0b7;opacity: 0.5;mix-blend-mode: multiply"/>
              <path d="M182.62,122.32l-6.11,8.28s14-.9,18.7-.9,35.26,1.08,42.27.54,17.63-1.26,23.93-.9,53.24-1.08,53.24-1.08l-2.88-7.38Z" style="fill: #e6e2c6"/>
              <path d="M220.27,128.54c8.74-.5,17.43-1.4,26.15-2s17.45-.62,26.19-.67,17.22-.43,25.85-.32c5,.05,10.07.13,15.11-.09l-1.8-4.6-129.15,1.44-2.8,3.8C182.14,127.49,212.51,129,220.27,128.54Z" style="fill: #d3d0b7;opacity: 0.5;mix-blend-mode: multiply"/>
              <path d="M228.67,82.75l-29.86,2.16-21.4,39.75s18.53,2.88,24.64,2.7,13.85.36,19.61.36,24.1-2.88,28.59-2.34,47.13-.36,51.09-.18,10.43.72,10.43.72l-1.09-5.4S227.77,82.39,228.67,82.75Z" style="fill: #d3d0b7"/>
              <path d="M310.68,120.52s-81.45-37.45-82-37.77l-29.86,2.16-21.4,39.75s18.53,2.88,24.64,2.7,13.85.36,19.61.36,24.1-2.88,28.59-2.34,47.13-.36,51.09-.18,10.43.72,10.43.72Zm-106.53-3.2c-.79,1.9-1.2,4-2,5.86-.52,1.23-1.24,2.52-2.74,2.52a15.74,15.74,0,0,1-5.57-1.18.29.29,0,0,1-.2-.27c.15-1.68.14-3.39.26-5.07a18,18,0,0,1-4,3.86c-2.56,1.63-5.68.74-8.48.26a.26.26,0,0,1-.16-.4c1.45-2.76,1.62-6,4.23-8.06.4-.31.86-.67,1.34-1a3.44,3.44,0,0,1,.27-.27,16.3,16.3,0,0,1,1.53-1.34c.39-.29,1.28-.63,1.27-1.18a31.38,31.38,0,0,1,.14-5c.49-3.27,2.41-6.33,4.06-9.14,1.42-2.43,2.94-4.8,4.42-7.19.4-.94.77-1.88,1.1-2.84a.28.28,0,0,1,.26-.2c4,.33,8.15-.58,11.94.91a.26.26,0,0,1,.16.39c-1.55,3.11-4.47,5.18-6.4,8,3.55-2.29,6.81-5.11,10.72-6.77.17-.07.5.06.39.31-2.85,6.78-6.23,13.32-9.45,19.94C206.14,112,205.25,114.7,204.15,117.32Zm28.48,7.61c-3.89.49-7.84.64-11.71,1.29a21.78,21.78,0,0,1-8.36,0,26.83,26.83,0,0,1-3.88-.54.27.27,0,0,1,0-.52c7.9-1.59,16-1.23,23.95-.82A.27.27,0,0,1,232.63,124.93Z" style="fill: #d3d0b7;opacity: 0.5;mix-blend-mode: multiply"/>
              <path d="M212.21,123.41c5.1-.4,10.21-.4,15.32-.54,8.8-.24,17.59-.64,26.4-.9s17.46-.06,26.21,0c8.56,0,17.1-.16,25.65,0l5.2.09-.31-1.52s-81.45-37.45-82-37.77l-5,.36c-1.32,2.48-3.18,4.79-4.41,7.17-2.8,5.5-5.43,11.08-8.23,16.58s-5.62,11.14-8.37,16.75A46.87,46.87,0,0,0,212.21,123.41Z" style="fill: #d3d0b7;opacity: 0.5;mix-blend-mode: multiply"/>
              <g style="mix-blend-mode: multiply">
                <path d="M200.53,88.31a.13.13,0,0,0,0-.06c-.06.09-.13.18-.19.28-.5,1.13-1.28,2.36-1.61,3-.58,1.16-1.16,2.3-1.73,3.46a83.53,83.53,0,0,1-4.37,8.53c-3.37,5.32-5.78,11.28-8.57,16.9a.25.25,0,0,0,0,.25c.4-.37.79-.76,1.15-1.16a70.68,70.68,0,0,0,3.35-6.61c1.81-3.56,3.25-7.25,5.25-10.72,1.81-3.11,3.27-6.42,4.89-9.64a26.21,26.21,0,0,0,2.1-4.07A.22.22,0,0,1,200.53,88.31Z" style="fill: #d3d0b7"/>
                <path d="M204.69,87.24c-.9,2.8-2.7,5.39-3.88,8.09-.1.23.21.21.3.07A20.5,20.5,0,0,0,203,91.57a38.44,38.44,0,0,0,1.85-4.32C204.83,87.16,204.71,87.17,204.69,87.24Z" style="fill: #d3d0b7"/>
                <path d="M207.21,88.12c-1.44,2.59-3.13,5-4.37,7.73s-2.39,5.71-3.78,8.48-2.11,5.62-3.4,8.32a51.3,51.3,0,0,0-2.93,6.82c1.87-3.83,3.93-7.57,5.83-11.38.56-1.39,1.13-2.77,1.8-4.11q.64-1.31,1.2-2.64c.15-.39.31-.77.45-1.16a.32.32,0,0,1,.1-.14c.45-1.09.88-2.19,1.32-3.3,1.18-2.92,2.81-5.65,3.91-8.59C207.37,88.05,207.24,88.05,207.21,88.12Z" style="fill: #d3d0b7"/>
                <path d="M209.58,89.45c-.36.62-.79,1.21-1.08,1.83a10.35,10.35,0,0,0-.87,2.87.28.28,0,0,0,0,.2C208.38,92.76,208.9,91.06,209.58,89.45Z" style="fill: #d3d0b7"/>
                <path d="M210.05,96.15c-.92,2.62-2,5.2-3.07,7.75-1.31,3.09-2.59,6.26-4.1,9.26a59.7,59.7,0,0,0-2.81,7.89c0,.1,0,.16.05.19.5-.86,1-1.73,1.42-2.62a59.58,59.58,0,0,1,2.48-6.05c1.33-2.5,2.41-5.19,3.52-7.8,1.2-2.81,2.2-5.68,3.37-8.5.55-1.3.89-2.73,1.34-4.09C211.51,93.52,210.72,94.83,210.05,96.15Z" style="fill: #d3d0b7"/>
                <path d="M217.43,86.72c-.29,1.52-1.28,2.88-1.89,4.29a34.4,34.4,0,0,0-2,4.85c-.12.5.42.43.63.14a15.4,15.4,0,0,0,2-5c.41-1.45,1.24-2.84,1.34-4.36C217.61,86.57,217.45,86.64,217.43,86.72Z" style="fill: #d3d0b7"/>
                <path d="M219.06,91c-.14.5-.46.8-.62,1.25a16.81,16.81,0,0,1-.83,1.9,11.76,11.76,0,0,0-1.33,3c-.07.41.48.27.61,0a19,19,0,0,0,1.25-3A18.77,18.77,0,0,0,219.23,91C219.23,90.89,219.07,90.94,219.06,91Z" style="fill: #d3d0b7"/>
                <path d="M212.83,101.74l-.06.05c-1.42,2.45-2.21,5.4-3.3,8-1.19,2.9-2.09,6-3.47,8.83-.17.33.21.4.38.15,1.44-2,2.08-5,2.94-7.26,1.14-3,2-6.48,3.45-9.4Z" style="fill: #d3d0b7"/>
              </g>
              <g>
                <path d="M226.87,78.61s21.23,5,31.12,4.68,41.37-2.16,44.78-1.26l11.69,41.19s-18.34-2.52-28.23-2.7-27-.72-29.5-.72-49.64,1.26-49.64,1.26Z" style="fill: #e6e2c6"/>
                <path d="M302.77,82c-3.41-.9-34.89.9-44.78,1.26s-31.12-4.68-31.12-4.68l-19.78,42.45s47.12-1.26,49.64-1.26,19.6.55,29.5.72,28.23,2.7,28.23,2.7Zm4.33,35.35c-3.71.29-7.29-.94-11-.9-3.35,0-6.71.55-10-.15-6.29-1.33-11.76-5.31-16.9-9a13.16,13.16,0,0,1-1.26,5.4.27.27,0,0,1-.42,0,11.78,11.78,0,0,1-1.69-1.9c-.51-.68-1.16.32-1.65.7a3.42,3.42,0,0,1-2,.85c-1.66.07-3.32-.29-5-.38a29.51,29.51,0,0,0-6.3.26c-.21,0-.47-.19-.31-.39,4.16-5.49,9.49-10,15-14.17-8.54,4.21-16.92,8.85-25.11,13.68-3.9,2.3-7.63,4.2-12.15,4.81a35.52,35.52,0,0,1-11.55-.15c-.13,0-.25-.21-.19-.33,1.21-3.3,3.57-6,5.13-9.06a104.58,104.58,0,0,0-7.2,8.24c-.17.21-.52,0-.45-.26,2.91-9.38,7.33-18.16,11.14-27.18.53-2.38,1-5.16,2.7-6.78,1.92-1.86,5.12,0,7.13.84a36.71,36.71,0,0,0,12.56,2.62c4.57.27,9.19.41,13.57,1.89a.27.27,0,0,1,.16.4c-1,1.93-2.65,3.46-3.68,5.38,5.89-1.61,10.16-6.78,16.24-8,4.93-1,10-.33,15-.75,2.24-.19,4.48-.38,6.72-.36,1.54,0,3.54,0,4.92.79s1,2.49.83,3.79c-.2,1.63-.72,3.27-.88,4.91a20.72,20.72,0,0,1,1.83-1.8.27.27,0,0,1,.45.12c.82,4.85-1.6,9.85,0,14.6,1.39,4,4.26,7.56,4.66,11.91A.28.28,0,0,1,307.1,117.38Z" style="fill: #d3d0b7;opacity: 0.5;mix-blend-mode: multiply"/>
                <g style="mix-blend-mode: multiply">
                  <path d="M229.86,81.85c-1,3-2.79,5.71-4,8.64-1.06,2.57-2.56,5-3.63,7.51-2.5,5.94-5.63,11.54-8.14,17.48-.1.24.24.25.34.07,3-5.46,5.81-11,8.45-16.67,2.54-5.42,5.94-11.12,7.11-17C230,81.73,229.88,81.78,229.86,81.85Z" style="fill: #e6e2c6"/>
                  <path d="M233.42,84.33a5.43,5.43,0,0,0-1,3.21c0,.34.49,0,.52-.17a8.07,8.07,0,0,1,.74-3C233.72,84.24,233.52,84.18,233.42,84.33Z" style="fill: #e6e2c6"/>
                  <path d="M237.55,83.67c-.51,2.73-2.12,5.54-3.09,8.12s-2.05,4.93-2.87,7.46c-1.44,4.38-3.35,8.54-4.63,13-.11.39.36.4.5.11,2-4.06,3.37-8.76,4.92-13,1-2.82,2.16-5.59,3.1-8.43.76-2.33,2.14-4.78,2.29-7.24C237.78,83.47,237.58,83.56,237.55,83.67Z" style="fill: #e6e2c6"/>
                  <path d="M234,99.65c-.59,2.06-1.3,4.08-2,6.12,0,.16.16.12.21,0a58.93,58.93,0,0,0,2-6.11C234.24,99.48,234,99.5,234,99.65Z" style="fill: #e6e2c6"/>
                  <path d="M249.31,86c-.41,1.22-1,2.4-1.48,3.54-1.52,3.44-8.05,20.87-10.17,26a25,25,0,0,0,3-.21,23.85,23.85,0,0,0,4-.68l.32-.93c.92-2.59,8.76-24.74,9.91-28.08C253.06,85.83,251.18,86,249.31,86Z" style="fill: #bec1b8"/>
                  <path d="M257,88.16c-.18,2.8-1.14,5.47-1.6,8.23s-1.11,5.53-1.84,8.13c0,.1.12.08.14,0a46.07,46.07,0,0,0,1.89-7.23c.41-3.07,1.43-6.05,1.51-9.16C257.14,88.06,257,88.1,257,88.16Z" style="fill: #e6e2c6"/>
                  <path d="M261.89,89.06c-.27,1.46-.69,2.88-.86,4.34,0,.29.36.13.39-.08.23-1.42.47-2.85.59-4.29C262,88.94,261.89,89,261.89,89.06Z" style="fill: #e6e2c6"/>
                  <path d="M280.7,88s-.09,0-.09,0c-.05,4-.49,8-.34,12,0,.26.4,0,.41-.13A117.1,117.1,0,0,0,280.7,88Z" style="fill: #e6e2c6"/>
                  <path d="M285.4,93.87c0-.09-.14,0-.15,0,0,.54,0,1.09,0,1.63,0,.18.25.06.24-.08C285.44,94.94,285.42,94.4,285.4,93.87Z" style="fill: #e6e2c6"/>
                  <path d="M298.57,98.87a81.36,81.36,0,0,0-2-13.63c0-.09-.15,0-.13.06.67,4.27.8,8.63,1.27,12.93.5,4.62.38,9.4,1.42,14,.07.3.49.07.49-.16C299.65,107.65,298.87,103.23,298.57,98.87Z" style="fill: #e6e2c6"/>
                  <path d="M299.82,101.05c0-.14-.23,0-.21.1a34.88,34.88,0,0,1,.69,5.95c0,.18.27,0,.28-.1A18.44,18.44,0,0,0,299.82,101.05Z" style="fill: #e6e2c6"/>
                  <path d="M303,101.09a49.82,49.82,0,0,0-2.33-12.64c0-.09-.19,0-.16.1a64.62,64.62,0,0,1,1.82,12.84c.33,4.15.89,8.26,1.53,12.37,0,.2.31,0,.32-.11C304.38,109.52,303.39,105.22,303,101.09Z" style="fill: #e6e2c6"/>
                </g>
              </g>
            </g>
            <g style="opacity: 0.4;mix-blend-mode: multiply">
              <path d="M275.4,107.11a3,3,0,0,0-1.86-.23,3.71,3.71,0,0,1-2.14-.79,1.64,1.64,0,0,0-.57-.66,3.66,3.66,0,0,0-2.28-.61c-1.78.37-3.39.76-4,2.76-.3,1-1.83,1-2.67,1.28a4.39,4.39,0,0,0-2,1.27c-.79,1.08-1,2.74.81,2.91,2.65.25,4.83-2.27,7.42-1.85,2.37.4,4.28.87,6.33-.69C275.38,109.79,276.71,108,275.4,107.11Z" style="fill: #a6a8a0"/>
              <path d="M253.81,108.09c-.05,0-.09.08-.11.13a9.27,9.27,0,0,0-1.07.45c-.79.33-1.19,1.38-.1,1.64a2.87,2.87,0,0,0,2.72-.92C256,108.35,254.66,107.92,253.81,108.09Z" style="fill: #c3979c"/>
              <path d="M254.18,103.21l-1.39-.18c.1-.7.18-1.4.27-2.12.25.06.52.11.78.15,0,0,.1-.08,0-.1-.26-.06-.54-.1-.81-.14.14-1.29.24-2.57.26-3.83,0,0,0,0,0,0-.07,1.27-.23,2.53-.39,3.79-.21,0-.42-.06-.63-.11,0,0,0,0,0,0l.64.16c0,.1,0,.21,0,.31h0l-1.55-.25a.28.28,0,0,0,0-.09,17.07,17.07,0,0,0,.55-3.92s0,0,0,0a7.41,7.41,0,0,1-.32,2.17l-1-.08-.32,0c.14-.85.29-1.71.41-2.56,0,0,0,0,0,0-.14.85-.3,1.7-.46,2.55a3.52,3.52,0,0,1-.8-.13s0,0,0,0a3.57,3.57,0,0,0,.78.25c-.09.51-.2,1-.3,1.54-1-.16-2.06-.32-3.08-.54,0,0,0,0,0,0,1,.28,2,.53,3.06.72-.1.54-.19,1.09-.28,1.63-.94-.17-1.87-.36-2.76-.61a0,0,0,0,0,0,0c.87.26,1.8.5,2.75.7-.09.57-.17,1.15-.23,1.73,0,0,.07,0,.08,0,.08-.56.17-1.13.27-1.69.42.09.84.17,1.27.24,0,.27-.05.52-.07.79l-.1-.07s0,0,0,0a.52.52,0,0,0,.11.1c0,.46-.07.91-.11,1.37,0,.08.11,0,.13,0a8.23,8.23,0,0,0,.24-1.22,3.78,3.78,0,0,0,.66.17c.29.06.57.11.86.15,0,.2,0,.4,0,.6s.11,0,.12,0,0-.37.07-.56c.29,0,.59.06.89.08,0,0,.09-.1,0-.11l-.9-.1c0-.3.06-.59.1-.9.47.06.93.1,1.37.13C254.2,103.32,254.25,103.21,254.18,103.21Zm-4-4a5.63,5.63,0,0,0,1.34.09c-.15.58-.31,1.13-.41,1.64h0l-1.2-.18Zm.68,3.59c-.42-.07-.84-.13-1.26-.21.08-.54.18-1.08.28-1.63.39.08.79.14,1.2.2C251,101.65,250.88,102.2,250.82,102.75Zm1.7,1.31-.43,0a5.86,5.86,0,0,1-1.08-.19c0-.29.07-.58.1-.87.5.09,1,.16,1.51.22C252.58,103.46,252.55,103.76,252.52,104.06Zm.11-1-1.51-.22c.06-.54.11-1.09.16-1.64l1.51.18.05,0Z" style="fill: #c7b88f"/>
            </g>
          </g>
          <g>
            <path d="M229.43,82c0-.06-.05-.07-.07,0-.57,1.13-1.1,5.1-1.31,5.2A9.59,9.59,0,0,0,224.57,91c-.36,1,.5,2.09.15,3.26a26.44,26.44,0,0,1-2,4.59,86.41,86.41,0,0,0-3.85,7.85c-.07.17.17.14.22,0,1.56-3.77,3.85-7.1,5.8-10.66,1.31-2.41,1.25-6,3.92-7.41a1.34,1.34,0,0,0,.77-1C229.66,85.68,228.91,84,229.43,82Z" style="fill: #fff;opacity: 0.5;mix-blend-mode: screen"/>
            <path d="M266.85,94.05a75.73,75.73,0,0,0-13.19,5.76c-2.32,1.2-4.64,2.41-6.93,3.68s-4.87,3.58-7.44,4.05c0,0-.06.07,0,.06,1.72-.16,3.24-1.27,4.77-2,2.68-1.29,5.33-2.66,8-3.92,4.92-2.29,9.76-4.73,14.75-6.88C267.18,94.66,267.36,93.9,266.85,94.05Z" style="fill: #fff;opacity: 0.5;mix-blend-mode: screen"/>
          </g>
        </g>
        <g>
          <g>
            <path d="M66.55,147.31c5.86-6.6,18.52-26.6,18.52-26.6l-10.63,3.13s-5.32,19.25-12.11,27.32c-3.67,4.38-8.27,12.4-11.76,19.4q.1-.15.21-.33C53.16,166,60.68,153.91,66.55,147.31Z" style="fill: #d3d0b7"/>
            <path d="M82.83,121.38c-1.54,3.79-4.11,7.18-6.51,10.46-3.25,4.46-6.12,9.16-9.19,13.74-1.25,1.85-2.5,3.7-3.73,5.57,1.08-1.4,2.14-2.7,3.15-3.84,5.86-6.6,18.52-26.6,18.52-26.6Z" style="fill: #d3d0b7;mix-blend-mode: multiply"/>
            <path d="M124.68,107.14c-13.56.19-17.24,6.24-20.9,6.79a33.56,33.56,0,0,1-7.33.18l-11.74,5.14.36,1.46s-12.66,20-18.52,26.6S53.16,166,50.78,170.23q-.11.18-.21.33c-3,5.92-5.13,11.1-5.29,12.7,0,0,13.38,3.11,20.72,2.19s13.76-4.94,17.79-7.7,11-10.81,16.13-7.52,11.56,10.83,13.76,11.19c0,0,.29.1.79.24L146.69,118S138.25,107,124.68,107.14Z" style="fill: #e6e2c6"/>
          </g>
          <path d="M176.77,130.25s-5.5-13.38-10.46-14.66S146.69,118,146.69,118l-32.22,63.69c2,.55,7.17,1.69,11.68-.06,5.69-2.2,13.21-8.06,17.42-6.59s11.92,4.57,11.92,4.57,3.85-14.11,3.85-17.23-3.11-7,.2-10.46S176.77,130.25,176.77,130.25Z" style="fill: #d3d0b7"/>
          <path d="M107.44,127.14a42.21,42.21,0,0,1,27.7,1.83l6.6-10.27s-9.35-12.66-29.34-4.22Z" style="fill: #abaa96"/>
          <polygon points="84.61 119.25 95.34 123.65 96.35 114.11 84.61 119.25" style="fill: #e6e2c6;mix-blend-mode: multiply"/>
          <path d="M164.52,127.35a11.13,11.13,0,0,1,5.6,5.74,14.55,14.55,0,0,0,1.63-2.77c-.19-2.39-.87-4.64-2.79-6.19a15.76,15.76,0,0,0-14.11-2.39c-.73,1.2-1.48,2.39-2.21,3.58a2.17,2.17,0,0,0-.11.42C156.57,125.37,160.87,125.6,164.52,127.35Z" style="fill: #abaa96"/>
          <polygon points="84.71 119.25 94.24 122.37 96.44 114.11 84.71 119.25" style="fill: #e4e4e2"/>
          <path d="M124.68,107.14c-13.56.19-17.24,6.24-20.9,6.79a33.56,33.56,0,0,1-7.33.18l-11.74,5.14.36,1.46s-12.66,20-18.52,26.6S53.16,166,50.78,170.23q-.11.18-.21.33c-3,5.92-5.13,11.1-5.29,12.7,0,0,13.38,3.11,20.72,2.19s13.76-4.94,17.79-7.7,11-10.81,16.13-7.52,11.56,10.83,13.76,11.19c0,0,.29.1.79.24L146.69,118S138.25,107,124.68,107.14Zm-40,43.23c-1.36,3.49-4.34,6.56-7.23,8.85a79.52,79.52,0,0,1-10.09,6.55c-3.41,1.95-6.92,3.9-10.78,4.8a.54.54,0,0,1-.65-.66c1.19-6.11,5.43-11.07,9.15-15.85,4.58-5.89,9.58-11.77,13.64-18,1.9-2.93,4.27-5.85,5.45-9.17.4-1.15,1-3.74,2.49-4,1.68-.3,5.22.1,6.86,1.61a.46.46,0,0,1,.67.33c.74,4.32,2,8.93,1.4,13.34S92.17,146.2,89.93,150c-.21.36-.91.36-1-.12a43.45,43.45,0,0,0-2.52-9.77A31.64,31.64,0,0,1,84.7,150.37ZM137,128c-7.47,10.72-12.71,22.83-18.49,34.49a52.42,52.42,0,0,1-5,8.59c-.64.86-1.54,1.53-2.62,1.1-1.73-.7-2.73-3.11-4.38-4.09a32.24,32.24,0,0,0-8.27-3,.54.54,0,0,1-.37-.65,39.79,39.79,0,0,0,1.52-5.29c-4.07,2.76-7.18,6.73-11.37,9.38a.54.54,0,0,1-.73-.74c4.75-7.89,10.32-15.75,13.51-24.44,3.07-8.35,1.37-17.34,2.47-26a.51.51,0,0,1,0-.55l.13-.2a.08.08,0,0,1,0,0,.45.45,0,0,1,.24-.35c2-2.86,6.27-4.09,9.34-5.35a26.72,26.72,0,0,1,17.12-.91c3.51,1,8.09,2.7,9.81,6.21C142,120.4,139.48,124.47,137,128Z" style="fill: #c2c2c2;opacity: 0.4;mix-blend-mode: multiply"/>
          <path d="M176.77,130.25s-5.5-13.38-10.46-14.66S146.69,118,146.69,118l-32.22,63.69c2,.55,7.17,1.69,11.68-.06,5.69-2.2,13.21-8.06,17.42-6.59s11.92,4.57,11.92,4.57,3.85-14.11,3.85-17.23-3.11-7,.2-10.46S176.77,130.25,176.77,130.25Zm-23,6.52c-1.49,2.52-3.32,5.59-3.43,8.6-.13,3.38,2.56,6.46,4,9.4,1,2.11,2.44,4.73,2,7.15a20.86,20.86,0,0,1-2.52,6.63c-.77,1.29-2,3.15-3.71,3.08A37.82,37.82,0,0,1,140.5,170a.55.55,0,0,1-.38-.66c.41-1.73,1-3.41,1.36-5.13a26.56,26.56,0,0,1-20.28,11.85c-.45,0-.61-.47-.46-.8,2-4.74,3.13-10.27,7.37-13.64,1-.82,2.11-1.57,3.1-2.44.53-.46-.81-1.69-1-2.15-.46-1.54.64-3.4,1.25-4.76C134.08,146.6,137,141,140,135.5a.08.08,0,0,1,0-.05c1.62-3.27,3.68-6.41,5.4-9.68a.55.55,0,0,1-.07-.56c.72-1.62,1.29-4,2.75-5.32a.42.42,0,0,1,.31-.24,4,4,0,0,1,.49-.3,24.61,24.61,0,0,1,9.26-1.87c6.34-.26,10.43,3.93,12,9.88a.54.54,0,0,1-.37.66c-3.2.69-7.52-.07-10.27,1.9A21.8,21.8,0,0,0,153.8,136.77Z" style="fill: #c2c2c2;opacity: 0.4;mix-blend-mode: multiply"/>
          <g style="opacity: 0.6000000000000001;mix-blend-mode: multiply">
            <path d="M102.09,118c-.55,1.22-1.08,2.44-1.58,3.68a48.31,48.31,0,0,0-1,5.09,56.18,56.18,0,0,0-.12,11.45c.3,4.85-1.73,9.85-4.14,13.92s-5.86,6.79-8.92,10.15c-.07.1,0,.2.12.11,3-3.05,6.08-5.67,8.8-9s3.78-7.2,4.71-11.11c1-4.17.88-8.73,1.23-13,.17-2.09-.1-4.2.07-6.3C101.36,121.29,101.87,119.65,102.09,118Z" style="fill: #c2c2c2;mix-blend-mode: multiply"/>
          </g>
          <g style="opacity: 0.6000000000000001;mix-blend-mode: overlay">
            <path d="M105.89,119a39.35,39.35,0,0,0-.26,4.07c.07,2.12,0,4.22-.09,6.33a64.22,64.22,0,0,1-1.4,10c-.78,4.34-3.55,7.69-5.89,11.29s-4.25,7.74-6.47,11.54c-.21.36.22.59.46.29,2.75-3.61,5.36-7.34,8-11s5.12-6.88,6.29-11.31a43.19,43.19,0,0,0,1.26-8.42C107.26,127.5,106.61,123.24,105.89,119Z" style="fill: #fff;opacity: 0.5;mix-blend-mode: screen"/>
            <path d="M149,123.17c0-.27.1-.54.14-.81,0-.08-.09,0-.1,0a35,35,0,0,1-2.23,4.35,40,40,0,0,1-2.47,4.36c-1.82,2.75-3,6.24-4.41,9.25-1.53,3.37-3.16,6.69-4.73,10a9.31,9.31,0,0,0-1.05,4.06c.09,1.86.53,3-.14,4.69.78-1.57,1.65-3.08,2.56-4.57a10.47,10.47,0,0,1,.19-2.34c.91-3.67,3.39-7.29,4.86-10.78s3.19-7.08,4.61-10.69c.59-1.5,1.34-3.14,1.95-4.77C148.43,125,148.71,124.09,149,123.17Z" style="fill: #fff;opacity: 0.5;mix-blend-mode: screen"/>
          </g>
        </g>
      </g>
    </g>
  </g>
</svg>
