<svg xmlns="http://www.w3.org/2000/svg" width="34" height="32" fill="none" viewBox="0 0 34 32"><g clip-path="url(#clip0_26_21)"><path fill="#1877F2" d="M34 16C34 7.3724 26.3888 0.378372 17 0.378372C7.61115 0.378372 0 7.3724 0 16C0 23.7971 6.21662 30.2599 14.3438 31.4318V20.5156H10.0273V16H14.3438V12.5584C14.3438 8.64319 16.8818 6.48057 20.7649 6.48057C22.6243 6.48057 24.5703 6.78568 24.5703 6.78568V10.6301H22.4267C20.315 10.6301 19.6562 11.8343 19.6562 13.0709V16H24.3711L23.6174 20.5156H19.6562V31.4318C27.7834 30.2599 34 23.7971 34 16Z"/><path fill="#fff" d="M23.6174 20.5156L24.3711 16H19.6562V13.0709C19.6562 11.8356 20.315 10.6301 22.4267 10.6301H24.5703V6.78569C24.5703 6.78569 22.6249 6.48058 20.7649 6.48058C16.8818 6.48058 14.3438 8.64319 14.3438 12.5584V16H10.0273V20.5156H14.3438V31.4318C16.1039 31.6849 17.8961 31.6849 19.6562 31.4318V20.5156H23.6174Z"/></g><defs><clipPath id="clip0_26_21"><rect width="34" height="31.243" fill="#fff" transform="translate(0 0.378372)"/></clipPath></defs></svg>