<svg xmlns="http://www.w3.org/2000/svg" viewBox="0 0 300 300"><path fill="#E7EAEE" d="M98.77 70.91c3.28.39 6.41-.17 9.65.02 3.45.2 6.77 2.14 9.69 3.85 2.24 1.32 4.35 2.72 6.55 4.01-2.14-2.86-4.28-5.71-6.42-8.57-3.25-4.34-8.39-3.51-10.67-.29-1.38-1.55-2.75-3.1-4.13-4.65-3.41-3.84-9.93-1.23-10.97 3.15-.65-.65-1.29-1.3-1.94-1.95-2.01-2.02-5.34-2.45-7.8-1.01-.62.36-1.21.89-1.7 1.5 5.72 2 11.83 3.24 17.74 3.94zM128.84 80.96c2.32 1.03 4.66 2.02 7.01 2.96-.64-.87-1.28-1.75-1.9-2.64-2.25-3.24-6.02-3.65-8.72-2.17 1.16.66 2.35 1.29 3.61 1.85z"></path><path fill="#E7EAEE" d="M274.44 258.8c-1.51-5.16-3.45-10.18-4.6-15.43-1.02-1.88-2.1-3.73-3.33-5.5-.83-1.2-.49-2.36.33-3.1a94.01 94.01 0 01-1.74-4.87c-1.62-.58-3.51-.56-4.94.07-.56.25-1.06.55-1.5.89-1.58-1.31-3.54-1.95-5.75-1.35-.82.22-1.61.65-2.32 1.22-1.42-3.04-2.86-6.08-4.32-9.11A438.507 438.507 0 00230.92 189c-1.49-2.85-5.28-3.85-8.13-2.64-1.69-2.6-3.39-5.18-5.11-7.76 1.6-1.82 2.26-4.46.8-7.24-2.63-5.01-5.34-9.99-8.11-14.93.71-.87 1.17-1.93 1.23-3.14 1.26-1.53 1.66-3.59 1.3-5.8-.1-.59-.19-1.17-.29-1.76 3.4-.73 6.36-4.34 5.36-8.13-.37-1.41-.75-2.81-1.12-4.22-.84-5.75-2.23-11.32-4.43-16.74-1.29-3.16-4.18-5.41-7.73-4.54-1.51-3.41-3.04-6.81-4.6-10.2l-.45-1.38c1.13-1.56 1.46-3.59 1.1-5.59-.44-2.43-.87-4.86-1.29-7.29 2.41-1.4 4.15-4.46 3.11-7.27-1.04-2.81-2.09-5.61-3.13-8.42.14-.07.28-.14.42-.22 2.76-1.62 3.55-4.57 2.82-7.38 1.05-1.95.89-4.28-.06-6.37-.72-1.6-1.45-3.2-2.17-4.8-.08-.9-.36-1.84-.91-2.8l-1.63-2.83c-.1-.18-.22-.33-.34-.5-5.11 4.3-11.64 7.57-15.32 13.21-.18.28-.35.56-.52.85.26.71.53 1.42.79 2.13-.61-.09-1.24-.08-1.87.02-2.95 6.87-2.3 15.35-1.09 22.44.58 3.38-4.59 4.82-5.17 1.43-1.39-8.12-2.03-17.32 1.02-25.19-.07-.1-.13-.21-.2-.31a6.85 6.85 0 00-3.63-2.82c-.08.08-.16.17-.23.25-.57 1.25-1.13 2.51-1.65 3.79.02.1.04.19.05.29.37 4.3 0 8.55-.42 12.83l.15.3c.11.2.22.41.34.61.97 1.67-.05 3.25-1.43 3.8-.06.23-.16.44-.28.63.74.22 1.35.8 1.56 1.82.19.97.4 1.89.53 2.87.33 2.51-3.06 3.25-4.58 1.9-1.45-1.29-2.79-2.69-4.12-4.1-3.23-1.44-7.3-.14-8.73 2.92-.7-.88-1.4-1.75-2.1-2.63-2.04-2.56-5.54-2.33-8.07-.7a6.14 6.14 0 00-4.75 1.32c1.36.53 2.72 1.04 4.09 1.53 8.67 3.07 17.63 5.21 26.86 5.28 3.46.03 3.45 5.39 0 5.37-9.86-.08-19.5-2.33-28.75-5.64-3.93-1.41-7.8-2.99-11.63-4.65-3.96-1.71-7.42-3.68-11.06-5.99-2.67-1.69-6.16-4.22-9.43-4.32-3.08-.09-6.03.36-9.13 0-7.54-.88-15.11-2.55-22.21-5.29-5.18-1.99-12.55-7.67-17.17-2.08-.25.31-.53.52-.81.67 4.36 4.01 8.75 7.98 13.16 11.94l12.32 14.6c1.52 1.8 3.64 2.23 5.61 1.77l3.83 3.53c.73.67 1.51 1.13 2.3 1.42l16.94 14.87c-1.39 1.41-2.19 3.39-1.78 5.57-1.15-.07-2.34.18-3.48.84-3.3 1.93-3.7 5.6-2.31 8.81 1.48 3.43 2.91 6.88 4.31 10.35-.19-.15-.37-.3-.56-.45-5.22-4.12-11.73-.29-10.76 6.27.3 2.02.56 4.05.8 6.08-.22.08-.44.16-.65.26-.95-.98-1.89-1.96-2.84-2.95-3.9-4.05-10.04-.96-10.92 3.56-1.88 2.55-1.45 5.98.63 8.36 3.03 3.46 6.06 6.92 9.1 10.38.47.53.97.95 1.5 1.26l6.68 7.34c2.46 2.71 6.47 2.25 8.9.08 1.35 1.6 2.69 3.21 4.04 4.81 1.52 1.81 3.48 2.29 5.32 1.91l.66.78c2.05 2.42 6.13 2.35 8.46.5 2.34-1.86 3.02-4.75 2.02-7.46 1 .08 2.03-.07 3-.5 1.97 2.16 3.95 4.32 5.92 6.48 2.71 2.96 6.55 2.24 8.9-.04.81-.03 1.6-.23 2.34-.57 1.95 2.56 3.88 5.14 5.78 7.74 1.89 2.59 4.91 4.01 8.04 2.63 1.19-.53 2.31-1.5 3.06-2.68 4.64 5.32 9.2 10.71 13.66 16.19 1.21 1.49 3.22 2.02 5.12 1.81 3.9 7.14 7.66 14.35 11.31 21.62-1 1.45-1.43 3.24-.84 5.05.73 2.26 1.54 4.49 2.41 6.7-1.1 1.75-1.4 4.01-.15 6.35.04.08.09.15.13.23 4.08-1.32 8.51-1.66 12.76-1.69 4.69-.03 9.61.31 14.19 1.55 3.85.46 7.71.89 11.58.93 1.54.01 2.39 1.05 2.56 2.21 3.41-.24 6.81-.39 10.22-.39 6.65-.65 13.3-1.38 20-.95 1.63.11 2.47 1.21 2.57 2.39h.12c-.04-.09-.07-.18-.1-.28zM135.38 134.42c.56-.68.97-1.47 1.2-2.31h.02c.12.4.26.79.43 1.18.31.69.61 1.38.91 2.06-.82-.53-1.69-.83-2.57-.93zm-.88-23.29c-.98-.79-1.99-1.55-3.01-2.3-2.53-2.56-6.66-1.97-9.02.34l-12.78-11.22c1.33-.55 2.49-1.47 3.21-2.65 1.81 2.04 3.62 4.07 5.42 6.11 1.96 2.2 5.53 2.37 7.92.87.97 1.3 1.95 2.6 2.92 3.9 2.02 2.69 5.35 4.11 8.5 2.47.06.15.11.31.18.46.25.6.51 1.21.76 1.81-1.33-.45-2.78-.32-4.11.21zM55.6 65.11C60.65 59 67.5 61.2 73.66 63.9c-2.36-2.46-5.73-3.98-8.65-5.71-5.1-3-10.78 2.37-9.6 7.17.06-.09.12-.17.19-.26z"></path><path fill="#3BCE87" d="M210.59 259.24c-7.02-18.29-16.51-35.49-28.36-51.11-.27-.35-.58-.61-.91-.79.52-1.36.09-3-1.73-3.33-4.57-.83-9.14-1.65-13.7-2.48.74-1.38.42-3.37-1.53-3.91-1.91-.52-3.82-1.04-5.72-1.56 3.92-6.06 4.98-13.67 2.82-20.47 1.34.17 2.69.34 4.03.49 2.31.26 3.04-2.08 2.25-3.77.05-.09.1-.18.15-.28 2.72-5.83 4.16-11.98 4.19-18.43 0-1.04-.48-1.76-1.16-2.18.09-.3.14-.61.14-.93 1.11 1.09 3.22 1.36 4.38-.32 3.94-5.73 6.02-12.39 6.18-19.34.03-1.46-.91-2.31-2.02-2.53 2.06-.58 3.17-3.65.77-4.84-9.71-4.83-19.96-8.55-30.56-10.89-3.98-.88-8.01-1.57-12.05-2.08.2-1.22-.32-2.56-1.84-3-14.41-4.19-28.42-9.59-42.22-15.46-6.15-2.61-12.38-5.14-18.32-8.2-4.92-2.54-9.87-5.58-13.29-10.04-1.51-1.97-4.06-5.76-3.35-8.42.58-2.14 3.31-2.49 5.18-2.55 2.91-.09 5.7.62 8.53 1.22a469.06 469.06 0 0153.33 14.68 469.902 469.902 0 0146.04 18.42c1.56.72 3.02-.08 3.7-1.23.81-.57 1.35-1.55 1.1-2.78-2.86-14.38-3.82-32.03 8.29-42.68 2.55-2.24 6.38-4.84 9.93-4 3.68.87 5.78 4.54 6.62 7.95 1.91 7.8.44 17.07-1.49 24.72-2.07 8.21-5.9 16.56-1.87 24.8 1.52 3.1 6.14.39 4.63-2.71-2.14-4.37-.84-9.33.43-13.77 1.32-4.6 2.67-9.13 3.39-13.87 1.25-8.18 2.54-19.01-2.33-26.33-2-3.02-5.08-5.47-8.7-6.13-4.06-.74-8.07.93-11.38 3.19-6.41 4.38-10.74 11.2-12.94 18.56-2.71 9.08-2.06 18.68-.45 27.92-28.59-12.94-58.41-23.11-89-30.18-6.27-1.45-13.28-3.84-19.79-2.98-6.08.81-9.87 5.45-8.17 11.62 3.55 12.88 17.75 18.94 28.82 23.78 13.99 6.12 28.11 11.97 42.62 16.74-2.22.15-4.41.53-6.52 1.27-7.87 2.78-13.81 10.47-14.16 18.88-.19 4.65 2.82 7.01 6.95 8.22 5.59 1.64 11.27 3.03 16.9 4.54 12.8 3.43 25.6 6.86 38.39 10.3-.04.19-.06.39-.06.61-.02 5.46-1.14 10.76-3.45 15.72-.17.37-.26.73-.27 1.08-1.44-.18-2.87-.37-4.3-.57l-.32-.47c-.48-.67-1.11-1.03-1.77-1.14 1.57-2.51 3.15-5.03 4.72-7.54 1.84-2.94-2.8-5.63-4.63-2.71l-4.75 7.59c-.82 1.31-.35 2.57.59 3.31a252.805 252.805 0 01-53.5-15.19 2.45 2.45 0 00-.74-.19 3.2 3.2 0 00-.5-.36c-5.5-3.13.98-10.05 3.57-12.61 2.46-2.43-1.33-6.22-3.79-3.79-3.17 3.13-6.48 6.64-7.02 11.26-.22 1.9.03 3.8.75 5.49-6.3 4.11-13.2 10.89-8.33 18.85 4.52 7.4 14.03 11.39 21.54 14.87 3.11 1.44 5.84-3.18 2.71-4.63-6.09-2.82-12.5-5.67-17.41-10.36-2.22-2.12-4.04-4.78-2.5-7.85 1.38-2.74 4.23-4.62 6.72-6.25.27-.17.48-.37.66-.58.13.08.26.17.4.25.51.29 1.01.4 1.48.36.27.3.62.55 1.05.73 18.57 7.55 37.92 12.83 57.7 15.86 3.07 6.3 2.55 14.13-2.01 19.71-.04.05-.07.1-.11.14-1.35-.37-2.7-.74-4.05-1.1 1.38-2.5 1.76-5.42.87-8.26-1.04-3.28-6.22-1.88-5.17 1.43.56 1.76.34 3.64-.9 5.07-.08.09-.15.19-.22.29-9.63-2.63-19.25-5.25-28.88-7.88-.57-.22-1.15-.44-1.72-.67-.53-.21-1.01-.24-1.43-.15-2.95-.27-4.06 4.41-.91 5.27.88.24 1.76.48 2.63.72 13.99 5.46 28.37 9.86 43.03 13.14-.41 1.32.05 2.83 1.8 3.14l18.92 3.42c-.13.57-.01 1.2.47 1.85 11.55 15.22 20.97 31.98 27.82 49.82 1.23 3.19 6.42 1.81 5.17-1.43zM140.14 140.3c-5.01-1.34-10.01-2.68-15.02-4.03-2.24-.6-4.49-1.2-6.73-1.81-2.21-.59-4.74-.97-6.84-1.9-3.48-1.55-.88-7.19.58-9.61 1.9-3.16 4.87-5.69 8.39-6.86 4.36-1.45 9.07-1.09 13.57-.64 4.63.46 9.24 1.2 13.79 2.19 10.32 2.24 20.3 5.75 29.76 10.46.21.11.42.18.63.23-1.07.25-2 1.09-2.04 2.51-.14 6.05-2.03 11.65-5.45 16.63-.29.43-.44.85-.47 1.26-.3-.29-.68-.52-1.18-.65-9.67-2.59-19.33-5.18-29-7.78z"></path><path fill="#3BCE87" d="M210.04 103.7c-1.34-3.17-5.97-.44-4.63 2.71 9.21 21.72 12.72 45.55 10.48 69.01-.33 3.44 5.04 3.41 5.37 0 2.34-24.47-1.62-49.12-11.21-71.72zM273.79 244.61c-19.27-19.14-35.23-41.35-47.28-65.69-1.53-3.1-6.16-.38-4.63 2.71 12.24 24.73 28.55 47.34 48.12 66.78 2.45 2.44 6.25-1.36 3.79-3.79zM170.55 130.88c-1.14-3.24-6.32-1.84-5.17 1.43.91 2.59.25 5.11-1.82 6.93-2.6 2.28 1.2 6.06 3.79 3.79 3.39-2.97 4.69-7.89 3.2-12.15zM57.87 43.08c-2.87-2.19-5.73-4.38-8.6-6.56-1.16-.89-2.99-.17-3.67.96-.82 1.37-.18 2.8.96 3.67 2.87 2.19 5.73 4.38 8.6 6.56 1.16.89 2.99.17 3.67-.96.82-1.37.18-2.8-.96-3.67zM44.96 51.11a54.023 54.023 0 00-9.61-2.47c-1.44-.23-2.87.37-3.3 1.87-.37 1.28.45 3.07 1.87 3.3 3.28.53 6.48 1.35 9.61 2.47 3.26 1.16 4.66-4.02 1.43-5.17zM41.29 67.44H28.01c-3.45 0-3.46 5.37 0 5.37h13.28c3.45 0 3.46-5.37 0-5.37zM227.31 260.51c-1.86-11.08-6.78-21.31-14.07-29.84-2.25-2.63-6.03 1.18-3.79 3.79 6.7 7.84 10.99 17.31 12.69 27.47.57 3.4 5.74 1.96 5.17-1.43z"></path></svg>