<svg xmlns="http://www.w3.org/2000/svg" width="34" height="32" fill="none" viewBox="0 0 34 32"><g clip-path="url(#clip0_26_96)"><path fill="#4285F4" d="M16.9998 13.1597V19.2095H26.1488C25.7471 21.1551 24.5415 22.8025 22.7333 23.9102L28.2506 27.8441C31.4651 25.1175 33.3197 21.1126 33.3197 16.3551C33.3197 15.2474 33.2115 14.1822 33.0105 13.1598L16.9998 13.1597Z"/><path fill="#34A853" d="M7.47245 18.9733L6.2281 19.8486L1.82349 23.0013C4.62075 28.0996 10.354 31.6216 16.9994 31.6216C21.5892 31.6216 25.4374 30.2299 28.2502 27.8441L22.7329 23.9102C21.2184 24.8475 19.2865 25.4156 16.9994 25.4156C12.5794 25.4156 8.82405 22.6748 7.4794 18.9823L7.47245 18.9733Z"/><path fill="#FBBC05" d="M1.8235 8.99867C0.664476 11.1004 0 13.4721 0 15.9999C0 18.5277 0.664476 20.8994 1.8235 23.0011C1.8235 23.0152 7.47996 18.9679 7.47996 18.9679C7.13997 18.0306 6.939 17.0366 6.939 15.9997C6.939 14.9629 7.13997 13.9689 7.47996 13.0316L1.8235 8.99867Z"/><path fill="#EA4335" d="M16.9997 6.59861C19.5034 6.59861 21.7288 7.39388 23.5061 8.92766L28.3742 4.45425C25.4224 1.92643 21.5898 0.378372 16.9997 0.378372C10.3543 0.378372 4.62075 3.88613 1.82349 8.99868L7.47977 13.0319C8.82424 9.33948 12.5797 6.59861 16.9997 6.59861Z"/></g><defs><clipPath id="clip0_26_96"><rect width="34" height="31.243" fill="#fff" transform="translate(0 0.378372)"/></clipPath></defs></svg>