<svg xmlns="http://www.w3.org/2000/svg" viewBox="0 0 600 600"><defs><clipPath id="clippath"><path fill="#2EB875" d="M479.4 320.45c-6.54-18.8-16.82-36.04-32.4-48.7-4.3-3.5-8.76-6.81-13.24-10.08-1.99-1.46-3.98-2.91-5.96-4.39-.12-.09-.49-.38-.81-.63-.96-.77-1.91-1.54-2.84-2.33a93.758 93.758 0 01-10.01-9.92 106.53 106.53 0 01-3.95-4.78c-.17-.23-.38-.53-.68-.94-.82-1.13-1.64-2.26-2.44-3.4-12.34-17.51-23.75-35.72-35.55-53.6-5.67-8.58-11.14-17.34-17.03-25.77.86-1.99 1.31-4.18 1.21-6.49-.42-9.42-6.51-14.88-14.94-16.59-.07-.84-.18-1.67-.34-2.49 7.23-11.46 12.66-24.08 16.19-37.15 1.53-5.66.12-10.72-2.88-14.48-.72-5.82-4.02-10.88-10.02-13.41-7.45-3.14-17.15-.55-21.14 6.93-1.1 2.06-2.19 4.11-3.29 6.17-.07-.39-.13-.78-.2-1.16-1.26-6.96-9.42-12.73-16.32-12.43-1.66.07-3.23.36-4.72.82-5.33.13-12.05 3.2-14.26 8.37-.43 1-.83 2-1.23 3.01-2.24-1.3-4.6-2.46-7.09-3.5-1.85-.77-3.76-1.02-5.64-.87-5.16-6.04-12.25-9.19-20.23-5.82-.29.12-.55.26-.83.39-5.1-1.1-10.97.24-14.75 3.16-7.1 5.48-7.89 14.02-4.36 21.83 5.7 12.61 12.15 24.85 19.27 36.69-2.81 4.01-3.42 8.94-2.57 14.16-.02-.11-.03-.2-.05-.3.01.13.03.24.03.33.06 1.01.13 2.02.15 3.04.02 1.27 0 2.53-.08 3.8-.01.22-.08.94-.13 1.52-.1.57-.22 1.3-.27 1.52-.21.99-.45 1.98-.72 2.96-.27.98-.56 1.95-.89 2.91-.19.57-.48 1.29-.64 1.66-.87 1.8-1.82 3.56-2.9 5.25-.1.16-.51.77-.83 1.25-.38.47-.96 1.22-1.11 1.39-1.36 1.53-2.8 2.97-4.31 4.36-.94.86-1.91 1.7-2.89 2.52-.19.16-1.64 1.29-2.16 1.71-.46.33-.97.72-1.12.82-.83.61-1.66 1.21-2.5 1.82-1.67 1.21-3.34 2.41-5 3.64-4.44 3.3-8.92 6.64-12.94 10.46-6.33 6.01-11.75 13.36-15.78 21.1-7.6 14.6-11.41 30.54-14.9 46.51-1.67 7.65-3.31 15.31-5.44 22.85-.99 3.5-2.07 6.97-3.32 10.38-.31.85-.65 1.68-.96 2.53-.04.11-.07.2-.11.29v.01c-.88 1.82-1.69 3.65-2.64 5.44-.84 1.58-1.73 3.14-2.67 4.66-.47.76-.96 1.52-1.46 2.26 0 0-.74 1.05-1.22 1.75-.36.46-.84 1.09-.98 1.25-.64.77-1.28 1.52-1.94 2.27-1.48 1.69-3.01 3.34-4.56 4.97-6.68 7.04-13.39 13.84-19.24 21.6-12.78 16.93-15.21 37.66-15.27 58.28-.06 20.73 2.25 41.41 10.8 60.47 7.48 16.67 20.71 29.97 35.78 39.96 14.55 9.64 31.28 16.08 47.85 21.34 14.88 4.72 30 8.95 45.39 11.66 11.75 4.33 23.7 7.67 36.47 8.7 18.88 1.51 38.05-2.74 56.67-5.31 33.27-4.6 67.17-11.43 92.31-35.46 7.32-7 13.05-14.93 17.22-23.63 8.08-12.61 14.3-26.36 18.98-40.66 12.06-36.79 13.22-79.68.43-116.46z"/></clipPath></defs><path fill="#E7EAEE" d="M535.76 507.86c-2.7-4.56-6.99-8.42-11.76-11.67 1.46-8.22-2.97-19.44-12.37-20.78-116.49-16.55-234.75-17.96-351.46-2.65-31.61 4.15-63.18 9.66-91.25 25.67-8.96 5.11-12.44 20.34-3.54 27.49 16.13 12.96 34.72 17.16 54.74 19.25 21.09 5.22 43.24 5.17 64.82 5.89 36.19 1.22 72.4 2.31 108.61 2.44 39.62 1.31 79.3 1.76 118.87-.53 13.96-.33 27.92-.8 41.86-1.52 21.22-1.1 44.83-.72 64.76-8.87 6.47-2.65 12.56-5.77 16.42-11.9 4.39-6.97 4.5-15.73.3-22.82zm-28.6 2.02c1.53-.1.84.09-.18.32-.08-.96 3.84-.56.18-.32z"/><path fill="#2EB875" d="M171.08 363.23L171.08 363.23 171.08 363.23 171.08 363.23z"/><path fill="#2EB875" d="M246.29 142.76c-.1-.88-.39-2.4 0 0z"/><path fill="#2EB875" d="M479.4 320.45c-6.54-18.8-16.82-36.04-32.4-48.7-4.3-3.5-8.76-6.81-13.24-10.08-1.99-1.46-3.98-2.91-5.96-4.39-.12-.09-.49-.38-.81-.63-.96-.77-1.91-1.54-2.84-2.33a93.758 93.758 0 01-10.01-9.92 106.53 106.53 0 01-3.95-4.78c-.17-.23-.38-.53-.68-.94-.82-1.13-1.64-2.26-2.44-3.4-12.34-17.51-23.75-35.72-35.55-53.6-5.67-8.58-11.14-17.34-17.03-25.77.86-1.99 1.31-4.18 1.21-6.49-.42-9.42-6.51-14.88-14.94-16.59-.07-.84-.18-1.67-.34-2.49 7.23-11.46 12.66-24.08 16.19-37.15 1.53-5.66.12-10.72-2.88-14.48-.72-5.82-4.02-10.88-10.02-13.41-7.45-3.14-17.15-.55-21.14 6.93-1.1 2.06-2.19 4.11-3.29 6.17-.07-.39-.13-.78-.2-1.16-1.26-6.96-9.42-12.73-16.32-12.43-1.66.07-3.23.36-4.72.82-5.33.13-12.05 3.2-14.26 8.37-.43 1-.83 2-1.23 3.01-2.24-1.3-4.6-2.46-7.09-3.5-1.85-.77-3.76-1.02-5.64-.87-5.16-6.04-12.25-9.19-20.23-5.82-.29.12-.55.26-.83.39-5.1-1.1-10.97.24-14.75 3.16-7.1 5.48-7.89 14.02-4.36 21.83 5.7 12.61 12.15 24.85 19.27 36.69-2.81 4.01-3.42 8.94-2.57 14.16-.02-.11-.03-.2-.05-.3.01.13.03.24.03.33.06 1.01.13 2.02.15 3.04.02 1.27 0 2.53-.08 3.8-.01.22-.08.94-.13 1.52-.1.57-.22 1.3-.27 1.52-.21.99-.45 1.98-.72 2.96-.27.98-.56 1.95-.89 2.91-.19.57-.48 1.29-.64 1.66-.87 1.8-1.82 3.56-2.9 5.25-.1.16-.51.77-.83 1.25-.38.47-.96 1.22-1.11 1.39-1.36 1.53-2.8 2.97-4.31 4.36-.94.86-1.91 1.7-2.89 2.52-.19.16-1.64 1.29-2.16 1.71-.46.33-.97.72-1.12.82-.83.61-1.66 1.21-2.5 1.82-1.67 1.21-3.34 2.41-5 3.64-4.44 3.3-8.92 6.64-12.94 10.46-6.33 6.01-11.75 13.36-15.78 21.1-7.6 14.6-11.41 30.54-14.9 46.51-1.67 7.65-3.31 15.31-5.44 22.85-.99 3.5-2.07 6.97-3.32 10.38-.31.85-.65 1.68-.96 2.53-.04.11-.07.2-.11.29v.01c-.88 1.82-1.69 3.65-2.64 5.44-.84 1.58-1.73 3.14-2.67 4.66-.47.76-.96 1.52-1.46 2.26 0 0-.74 1.05-1.22 1.75-.36.46-.84 1.09-.98 1.25-.64.77-1.28 1.52-1.94 2.27-1.48 1.69-3.01 3.34-4.56 4.97-6.68 7.04-13.39 13.84-19.24 21.6-12.78 16.93-15.21 37.66-15.27 58.28-.06 20.73 2.25 41.41 10.8 60.47 7.48 16.67 20.71 29.97 35.78 39.96 14.55 9.64 31.28 16.08 47.85 21.34 14.88 4.72 30 8.95 45.39 11.66 11.75 4.33 23.7 7.67 36.47 8.7 18.88 1.51 38.05-2.74 56.67-5.31 33.27-4.6 67.17-11.43 92.31-35.46 7.32-7 13.05-14.93 17.22-23.63 8.08-12.61 14.3-26.36 18.98-40.66 12.06-36.79 13.22-79.68.43-116.46z"/><g fill="#fff" clip-path="url(#clippath)" opacity=".1"><path d="M325.8 92.25a.914.914 0 01-.14-.07c.03.02.09.04.15.08z"/><path d="M488.75 361.92c-2.67-23.49-4.64-48.85-17.55-69.39-11.73-18.65-30.44-29.17-46.21-43.77-8.88-8.22-11.91-13.19-18.5-23.71-6.16-9.83-12.29-19.61-19.81-28.49-6.17-7.29-13.33-13.68-19.38-21.07.11.06-1.76-2.48-2.26-3.28-.76-1.21-1.38-2.48-2.11-3.7-.03-.05-.06-.1-.09-.16-.44-1.65-1.4-5.71-1.35-4.3-.22-2.37-.26-4.76-.52-7.13-.97-8.84-4.3-15.84-10.64-22.1-.24-.24-.49-.49-.74-.73 5.68-12.65 12.64-25.34 11.85-39.69-.86-15.54-8.95-30.2-24.44-35.15-13.75-4.39-29.13.62-36.65 13.12-4.72 7.85-2 19.57 6.28 23.94 6.57 3.47 14.3 2.81 19.79-1.56.02.16.03.3.04.39.03 1.11-.03 2.21-.08 3.32-.02.07-.03.13-.05.21-.27 1.05-.5 2.1-.8 3.15-.33 1.13-.74 2.23-1.1 3.35-.19.61-.3.98-.36 1.2-.08.13-.24.44-.56 1.15-5.89 13.01-14.02 26.24-7.11 40.58.99 2.06 2.27 3.92 3.7 5.66-5 5.55-7.25 14.26-2.58 20.76 4.04 5.63 7.73 11.49 10.95 17.62 1.46 2.77 2.82 5.59 4.08 8.45.17.46 1.24 3.07 1.27 3.13.82 2.16 1.59 4.33 2.31 6.53 3.55 10.86 5.97 21.83 9.52 32.53 2.43 8.17 5.34 16.23 8.75 24.07 1.51 7.88 2.51 15.85 3.63 23.79 1.3 9.12 2.75 18.25 5.31 27.12 2.92 10.1 7.09 19.76 10.93 29.53 3.4 8.67 6.4 17.46 8.44 26.56.81 3.6 1.44 7.22 2.02 10.86-.33-1.95.33 2.83.43 3.86.25 2.61.43 5.22.55 7.83.4 8.63.09 17.3-.88 25.88-.03.25-.15 1.14-.23 1.74a163.864 163.864 0 01-4.5 20.56c-1.37 4.78-2.96 9.5-4.76 14.14-.07.17-.28.72-.48 1.23-.28.65-.99 2.32-1.09 2.56-.59 1.3-1.19 2.59-1.81 3.87-15.22 11.9-28.86 24.63-35.88 43.6-2.98 8.07 1.44 15.5 8.03 19.37-2.72.7-5.47 1.33-8.24 1.83-.23.04-1.73.28-2.4.4-.29.03-.64.07-1.08.12-1.22.12-2.43.21-3.66.28-9.12.6-17.94 7.62-17.5 17.5.4 8.97 7.72 18.14 17.5 17.5 26.08-1.72 49.47-12.1 72.93-22.81 10.34-4.72 20.5-9.74 29.57-16.67 9.69-7.42 17.62-16.11 24.29-26.37 12.2-18.75 19.34-41.01 26.12-62.17 4.16-13 7.26-26.2 8.44-39.84 1.08-12.4.07-24.86-1.33-37.2z"/></g><g fill="#242b59"><path d="M445.09 400.92c.64 7.97-.92 15.82-2.46 23.6-1.32 6.69-2.71 13.38-4.49 19.97-3.59 13.31-8.9 26.22-18.07 36.69-5.37 6.12-11.6 11.4-17.79 16.66-1.47 1.25.66 3.36 2.12 2.12 5.64-4.78 11.29-9.57 16.31-15.01s8.94-11.12 12.15-17.51c6.31-12.54 9.5-26.35 12.25-40.03 1.74-8.69 3.69-17.56 2.98-26.48-.15-1.91-3.15-1.93-3 0zM170.92 348.42c-10.44 9.11-18.36 20.81-23.45 33.66s-7.28 26.88-6.22 40.64c.6 7.77 2.22 15.45 4.93 22.76.66 1.8 3.56 1.02 2.89-.8-4.67-12.63-6.05-26.26-4.41-39.61s6.29-26.17 13.54-37.37a81.579 81.579 0 0114.84-17.15c1.46-1.27-.67-3.39-2.12-2.12z"/><path d="M390.7 521.44c-18.94 9.21-40.05 12.39-60.85 14.07s-42.56 2.01-63.69-.44c-37.38-4.34-74.58-18.22-101.41-45.4-12.86-13.02-22.75-28.8-27.93-46.4s-5.86-36.5-.87-54.14c2.53-8.93 6.57-17.23 11.81-24.88s11.71-15.09 17.32-22.82 9.78-15.28 12.63-23.98 4.16-16.89 5.27-25.51c2.24-17.39 2.76-35.42 9.1-51.97 3.21-8.38 8.12-15.75 14.42-22.13 6.22-6.3 13.29-11.66 19.97-17.46s12.52-11.75 17.04-19.11c4.11-6.7 7.25-14.01 11.92-20.37 5.06-6.9 12.09-11.28 20.84-11.06 9.68.24 18.76 4.65 28.06 6.86s18.45 1.39 27.79 1.41c9.43.02 18.71 1.49 25.61 8.47 6.56 6.64 10.31 15.69 14.8 23.74 5.07 9.11 10.51 18.02 16.29 26.7 11.21 16.84 24.06 32.27 36.81 47.94s24.37 31.7 30.87 50.71c3.43 10.01 5.59 20.41 7.24 30.85s2.77 20.63 3.34 31.02c1.13 20.71-.11 41.7-5.44 61.81-8.91 33.62-30.74 64.82-63.19 79.21a86.566 86.566 0 01-23.49 6.62c-1.9.26-1.09 3.15.8 2.89 34.62-4.66 63.27-30.24 78.59-60.71 18.67-37.12 18.63-80.75 12.4-120.93-1.67-10.8-3.9-21.56-7.47-31.9-3.33-9.66-7.95-18.77-13.46-27.36-10.86-16.91-24.59-31.69-36.95-47.48-13.28-16.97-25.14-35.07-35.46-53.99-4.35-7.98-8.27-16.77-15.27-22.85s-16.24-7.67-25.38-7.74c-9.75-.07-19.34.82-28.9-1.63s-18.64-6.72-28.51-6.66c-8.48.05-15.76 4.1-21.02 10.62s-8.3 13.6-12.31 20.47c-4.56 7.82-10.64 14.23-17.44 20.15s-14.23 11.52-20.62 18.08c-6.14 6.3-10.93 13.52-14.24 21.68s-5.19 17.24-6.46 26.13c-2.53 17.77-2.87 36.1-8.63 53.25-3.12 9.3-8.2 17.52-14.08 25.31-5.88 7.8-12.3 15.2-17.53 23.46-20.17 31.86-16.46 74.33 3.32 105.44s53.61 51.56 88.93 60.9c20.89 5.53 42.58 7.57 64.14 7.52 21.35-.05 43.25-1.41 64.13-6.04 9.89-2.19 19.55-5.35 28.67-9.78 1.74-.84.22-3.43-1.51-2.59z"/><path d="M343.21 159.08c4.37-1.3 7.86-4.85 9.13-9.24s-.06-8.96-3.04-12.28c-3.27-3.63-8-4.8-12.72-4.1-4.83.71-9.25 3-14.03 3.91-5.38 1.02-10.03-1.29-15.02-2.88-2.52-.8-5.15-1.33-7.81-1.11-2.81.23-5.54 1.08-8.36 1.19-11.28.44-21.81-8.03-33.18-4.29-4.61 1.51-8.77 5.03-9.43 10.05-.6 4.49 1.51 9.14 5.87 10.81 1.8.69 2.58-2.21.8-2.89-3.09-1.18-4.26-5.08-3.61-8.08.81-3.79 4.33-6.21 7.87-7.21 4.77-1.35 9.74-.26 14.39 1.07 4.99 1.43 9.94 3.24 15.18 3.52 5.03.27 9.9-1.96 14.9-.88 4.47.97 8.55 3.26 13.12 3.85s8.77-.85 12.95-2.25c3.92-1.31 8.23-2.84 12.36-1.6s7.24 5.34 7.27 9.63-3.16 8.61-7.41 9.87c-1.85.55-1.06 3.45.8 2.89z"/><path d="M333.15 134.35c6.88-9.93 12.9-20.44 17.95-31.42 2.52-5.47 5.09-11.1 6.82-16.87 1.51-5.05 1.64-10.8-2.07-14.95-2.45-2.74-6.33-3.71-9.79-2.54-3.12 1.05-5.69 3.31-8.04 5.54s-4.68 4.84-7.42 6.76c-2.31 1.62-5.06 2.69-7.77 1.34-2.5-1.25-4.24-3.92-5.97-6.03-2.03-2.46-4.06-4.93-6.08-7.39-3.11-3.77-7.12-8.47-12.43-8.63-4.37-.13-7.21 3.35-8.09 7.28-.82 3.66-.43 7.69-1.89 11.2-1.98 4.76-7.59 4.3-11.26 1.82-2.33-1.57-4.16-3.79-6.01-5.87-1.75-1.96-3.57-3.86-5.56-5.59-3.93-3.42-8.5-6.3-13.64-7.42-4.48-.97-9.25-.41-13.35 1.66s-7.3 5.87-8.09 10.47c-.96 5.55 1.24 10.92 3.88 15.69 2.83 5.1 6.13 9.89 8.78 15.09s4.96 10.83 6.76 16.51c.91 2.86 1.7 5.76 2.38 8.69.44 1.88 3.33 1.08 2.89-.8-2.62-11.24-6.93-22.1-12.8-32.04-4.49-7.62-14.17-19.65-6.18-28.18 2.86-3.05 7.13-4.54 11.26-4.58 4.85-.04 9.43 2.09 13.3 4.87 4.38 3.15 7.6 7.36 11.38 11.14 3.43 3.43 8.09 6.18 13.1 4.95 4.07-1 6.12-4.63 6.82-8.48.63-3.45.25-7.55 1.92-10.73.81-1.54 2.27-2.66 4.06-2.71 2.36-.07 4.56 1.47 6.26 2.96 2.07 1.82 3.75 4 5.49 6.12 1.98 2.4 3.95 4.8 5.93 7.2 2.7 3.28 5.86 6.8 10.52 6.38 3.05-.27 5.64-2 7.94-3.92 2.54-2.12 4.77-4.59 7.24-6.8 1.99-1.78 4.39-3.76 7.16-4.01 4.08-.36 6.82 3.33 7.35 7.03.41 2.86-.36 5.8-1.27 8.49s-2.09 5.58-3.24 8.33c-4.45 10.67-9.85 20.97-16.04 30.73a228.27 228.27 0 01-4.76 7.17c-1.1 1.59 1.5 3.09 2.59 1.51zM357.94 204.79c-3.09-11.86-9.35-22.77-18.01-31.44-1.37-1.37-3.49.75-2.12 2.12a66.173 66.173 0 0117.24 30.11c.49 1.87 3.38 1.08 2.89-.8zM255.59 194.37c9.13-6.65 15.5-16.73 17.35-27.9.31-1.89-2.58-2.7-2.89-.8-1.72 10.37-7.46 19.9-15.97 26.1-1.55 1.13-.05 3.73 1.51 2.59z"/><path d="M275.25 128.69c.54-6.45-1.02-12.99-4.37-18.53-1-1.65-3.59-.14-2.59 1.51 3.1 5.12 4.46 11.05 3.96 17.01-.16 1.92 2.84 1.91 3 0zM317.78 135.59c1.78-9.02 4.67-17.78 8.67-26.06.84-1.73-1.75-3.25-2.59-1.51-4.11 8.51-7.15 17.5-8.98 26.77-.37 1.89 2.52 2.69 2.89.8zM295.04 132.35a60.073 60.073 0 001.64-17.97c-.12-1.92-3.12-1.93-3 0 .36 5.78-.15 11.55-1.53 17.17-.46 1.87 2.43 2.67 2.89.8zM355.34 375.14c-1.06-20.46-16.98-38.6-37.17-42.13-3.51-.61-7.08-.8-10.65-.87-1.15-18.19-2.88-36.36-4.82-54.47 10.87-2.3 22.04.35 29.11 10.84 3.56 5.28 12.45.68 8.85-4.66-9.07-13.46-24.32-18.39-39.03-16.02-.74-6.66-1.49-13.3-2.25-19.94-.73-6.38-10.47-4.11-9.75 2.23.77 6.78 1.54 13.57 2.29 20.37-3.05 1.2-6.02 2.73-8.81 4.58-17.55 11.61-31.49 37.29-15.54 56.08 8.05 9.49 19.13 10.33 30.51 10.57 1.32 25.97 1.3 51.94-1.18 77.81-13.81-2.51-26.87-9.1-37.31-18.44-4.76-4.26-12.17 2.46-7.37 6.75 9.05 8.1 19.38 14.44 30.91 18.37 4.03 1.37 8.31 2.54 12.68 3.32-.83 6.86-1.83 13.71-3.05 20.54-1.13 6.32 8.88 6.69 9.99.44 1.18-6.65 2.17-13.3 2.99-19.97 4.63.08 9.23-.45 13.6-1.81 20.9-6.51 37.14-32.09 36.02-53.62zm-69.28-44.39c-11.74-2.71-17.62-13.7-14.64-25.24 2.67-10.34 11.34-19.45 21.63-24.48 1.8 16.96 3.38 33.97 4.46 50.99-3.86-.11-7.69-.41-11.45-1.28zm48.91 73.87c-4.16 5.49-9.46 10.88-15.9 13.63-3.86 1.65-8.05 2.27-12.25 2.27 2.54-26.09 2.58-52.31 1.26-78.52 6.95.36 13.71 1.39 19.63 4.96 8.94 5.39 15.5 14.54 17.28 24.88 2.03 11.78-3.02 23.54-10.01 32.77z"/></g></svg>