<svg width="335" height="344" viewBox="0 0 335 344" fill="none" xmlns="http://www.w3.org/2000/svg">
<rect width="335" height="344" fill="white"/>
<path fill-rule="evenodd" clip-rule="evenodd" d="M93.8374 267.393C93.8374 267.393 22.2064 253.614 17.3512 235.429C12.496 217.244 70.0289 208.483 70.0289 208.483C70.0289 208.483 97.6172 203.693 101.842 199.811C106.066 195.93 190.165 197.427 230.798 166.477C271.431 135.527 284.852 119.832 304.939 137.412C325.026 154.993 320.163 207.117 298.017 237.255C275.871 267.393 187.77 272.416 187.77 272.416L93.8374 267.393Z" fill="#2EB875"/>
<path fill-rule="evenodd" clip-rule="evenodd" d="M223.721 248.483C223.721 248.483 221.826 249.829 220.927 247.289C220.029 244.749 219.464 242.957 219.464 242.957C219.464 242.957 217.531 240.964 216.521 240.964C215.512 240.964 212.204 238.616 212.543 236.771C212.883 234.925 216.793 235.135 217.905 235.135C219.017 235.135 218.174 232.328 218.174 231.476C218.174 230.624 219.48 223.387 222.583 224.47C225.687 225.553 227.371 227.457 226.135 230.758C229.37 230.598 232.316 229.067 232.694 235.569C232.435 237.958 232.496 238.508 233.916 240.278C235.336 242.049 235.913 244.713 234.733 245.619C233.552 246.525 231.632 246.873 230.991 247.289C230.35 247.704 230.01 248.609 230.01 250.103C230.01 251.596 227.781 248.994 227.781 248.994L225.687 246.701L223.721 248.483Z" fill="white"/>
<path d="M197.321 165.598C199.475 189.227 201.269 212.889 202.703 236.575C202.873 239.373 202.976 242.41 201.417 244.715C200.371 246.261 198.715 247.246 197.062 248.066C191.015 251.068 184.35 252.517 177.705 253.542C159.589 256.338 141.041 256.169 122.977 253.045C119.402 252.427 115.775 251.667 112.624 249.832C109.472 247.997 106.824 244.9 106.352 241.218C102.42 210.561 100.219 179.672 99.7633 148.755C99.7303 146.515 99.6536 144.107 98.3435 142.314C96.9244 140.371 94.3886 139.62 92.7856 137.833C90.0204 134.751 91.0606 129.488 93.9619 126.54C96.8631 123.592 101.026 122.422 105.026 121.561C116.71 119.045 128.736 118.203 140.646 119.066C140.998 120.05 139.552 120.602 138.529 120.604C127.341 120.617 116.153 121.556 105.111 123.406C101.065 124.085 96.6534 125.121 94.2023 128.487C105.352 132.251 117.306 132.466 129.045 132.558C150.03 132.723 171.164 132.594 191.767 128.513C193.602 128.149 195.59 127.656 196.728 126.138C197.865 124.62 197.329 121.809 195.474 121.587C179.597 119.69 163.556 119.234 147.6 120.225C146.368 120.301 144.554 119.542 145.157 118.439C159.792 117.727 174.476 118.057 189.067 119.427C192.985 119.795 197.112 120.322 200.247 122.757C203.574 125.341 205.232 129.991 204.314 134.163C203.396 138.336 199.952 141.808 195.864 142.681" fill="white"/>
<path fill-rule="evenodd" clip-rule="evenodd" d="M142.007 117.961C142.535 103.072 144.685 88.053 142.251 73.3656C141.983 71.7522 141.657 70.1351 141.027 68.632C139.964 66.0928 138.025 63.9517 135.637 62.679C134.904 62.2883 134.088 61.9398 133.641 61.2262C133.193 60.5127 133.419 59.3042 134.234 59.168C137.575 59.717 140.299 62.3985 141.806 65.5113C143.313 68.6242 143.787 72.1451 144.133 75.6036C145.349 87.7407 145.25 100.017 143.836 112.131C143.355 116.254 142.739 120.549 144.078 124.467C143.674 124.367 143.27 124.268 142.866 124.169C141.913 122.294 141.932 120.074 142.007 117.961H142.007Z" fill="#E7EAEE"/>
<path d="M104.064 267.23C103.217 268.189 101.898 268.698 100.635 268.556C99.9988 268.484 99.6563 269.436 100.02 269.968C100.385 270.5 101.095 270.647 101.734 270.667C102.374 270.687 103.045 270.63 103.622 270.911C101.46 271.912 99.2988 272.913 97.1373 273.915C90.9158 278.621 100.334 276.76 101.888 276.395C100.155 278.162 98.9589 280.074 100.291 280.131C99.0958 280.672 102.067 279.32 101.24 280.346C100.413 281.372 100.146 282.991 101.003 283.992C102.437 283.975 103.718 282.614 103.665 281.165C106.409 281.705 109.226 281.867 112.013 281.646C113.633 281.517 114.865 279.69 114.463 278.099C114.061 276.508 112.198 275.5 110.642 275.972C112.643 275.053 114.538 273.901 116.279 272.545C115.806 271.817 115.334 271.09 114.861 270.362C114.14 269.253 113.4 268.121 112.36 267.312C111.32 266.503 109.905 266.061 108.67 266.511C107.435 266.962 106.591 268.499 107.157 269.697C106.771 270.184 105.931 270.189 105.541 269.705C105.151 269.222 105.324 268.39 105.874 268.107C106.365 267.853 106.424 267.117 106.136 266.641C105.848 266.165 105.332 265.889 104.841 265.635C103.526 264.955 101.838 264.303 100.683 265.233C101.154 265.518 101.706 265.664 102.255 265.649C101.51 266.098 100.766 266.548 100.021 266.998C99.7581 267.246 100.29 267.552 100.648 267.522C101.787 267.424 102.925 267.327 104.064 267.23Z" fill="white"/>
<path fill-rule="evenodd" clip-rule="evenodd" d="M100.648 267.522C101.787 267.424 102.925 267.327 104.064 267.23C103.217 268.189 101.898 268.698 100.635 268.555C99.9988 268.484 99.6563 269.436 100.02 269.968C100.385 270.5 101.095 270.647 101.734 270.667C102.374 270.687 103.045 270.63 103.622 270.911C101.46 271.912 99.2988 272.913 97.1373 273.915C98.7214 274.109 100.339 274.02 101.893 273.655C100.16 275.422 96.5686 274.443 95.3199 276.587C97.8101 276.889 100.371 276.575 102.718 275.682C102.705 276.536 101.717 276.999 100.879 277.113C100.042 277.228 99.0742 277.26 98.5493 277.93C98.2085 278.365 97.5355 278.231 97.0147 278.057C96.1507 277.767 95.2562 277.459 94.5977 276.823C93.9392 276.188 93.5903 275.124 94.0399 274.324C95.0266 272.567 98.5219 273.606 99.1116 271.676C99.2592 271.193 99.141 270.673 99.0244 270.182C98.7532 269.037 98.4923 267.86 98.6469 266.694C98.8015 265.528 99.4588 264.359 100.542 263.929C102.361 263.206 104.223 264.765 106.131 265.198C107.567 265.524 109.089 265.196 110.524 265.527C112.589 266.004 114.104 267.734 115.473 269.369C116.093 270.111 116.735 270.897 116.92 271.849C117.106 272.802 116.65 273.958 115.718 274.191C114.87 274.402 114.534 275.489 114.7 276.356C114.865 277.223 115.364 277.989 115.595 278.841C115.825 279.692 115.678 280.78 114.9 281.182C113.261 282.028 111.542 282.896 109.701 282.897C108.467 282.897 107.262 282.505 106.029 282.466C104.796 282.427 103.406 282.87 102.887 284.001C102.364 285.139 100.517 284.883 99.8341 283.836C99.151 282.789 99.2794 281.423 99.4337 280.178C99.479 279.813 99.5351 279.423 99.7786 279.149C99.9779 278.924 100.272 278.815 100.556 278.725C101.829 278.323 103.17 278.146 104.501 278.203C103.307 278.745 102.067 279.32 101.24 280.346C100.413 281.372 100.146 282.991 101.003 283.992C102.437 283.975 103.718 282.614 103.665 281.165C106.409 281.705 109.226 281.867 112.013 281.646C113.633 281.517 114.865 279.69 114.463 278.099C114.061 276.508 112.198 275.5 110.642 275.972C112.643 275.053 114.538 273.901 116.279 272.545C115.806 271.817 115.334 271.09 114.861 270.362C114.14 269.253 113.4 268.121 112.36 267.312C111.32 266.503 109.905 266.061 108.67 266.511C107.435 266.962 106.591 268.499 107.157 269.697C106.771 270.184 105.931 270.189 105.541 269.705C105.151 269.222 105.324 268.39 105.874 268.107C106.365 267.853 106.424 267.117 106.136 266.641C105.848 266.165 105.332 265.889 104.841 265.635C103.526 264.955 101.838 264.303 100.683 265.233C101.154 265.518 101.706 265.664 102.255 265.649C101.51 266.098 100.766 266.548 100.021 266.998C99.7582 267.246 100.29 267.552 100.648 267.522V267.522Z" fill="#2EB875"/>
<path fill-rule="evenodd" clip-rule="evenodd" d="M138.341 115.176C138.227 114.723 138.394 114.18 138.799 113.964C138.931 114.246 139.063 114.528 139.196 114.81C138.92 114.985 138.644 115.159 138.368 115.334L138.341 115.176Z" fill="#E7EAEE"/>
<path d="M105.304 273.329C105.479 274.221 105.377 275.161 105.013 275.997C106.028 276.106 107.057 276.09 108.067 275.951C107.366 277.047 105.569 277.354 104.606 276.46C103.643 275.566 104.022 273.7 105.304 273.329L105.304 273.329Z" fill="white"/>
<path fill-rule="evenodd" clip-rule="evenodd" d="M139.542 93.8834C139.152 98.9737 138.99 104.079 139.056 109.183C139.069 110.182 139.102 111.224 139.607 112.103C139.756 112.362 139.374 112.66 139.074 112.581C138.773 112.502 138.592 112.22 138.457 111.954C136.629 108.36 137.784 104.129 137.702 100.143C137.649 97.5491 137.063 94.8761 137.919 92.4105C138.092 91.9124 138.939 91.9499 139.274 92.3679C139.61 92.7858 139.583 93.3606 139.542 93.8834L139.542 93.8834Z" fill="#E7EAEE"/>
<path d="M80.6896 221.121C81.0211 221.711 81.0258 222.504 80.7013 223.1C80.3479 221.63 78.4833 220.913 77.371 221.821C76.9628 222.154 76.5209 222.682 76.0499 222.471C76.2685 222.382 76.3011 221.989 76.1007 221.858C77.033 220.224 79.3689 219.848 80.6896 221.121Z" fill="black"/>
<path fill-rule="evenodd" clip-rule="evenodd" d="M84.3412 219.643C84.3852 219.441 84.429 219.239 84.4671 219.04C84.6897 217.876 84.5574 216.397 83.5131 215.896C82.7898 215.548 82.0055 215.836 81.2219 216.124C80.9286 216.232 80.6353 216.34 80.3454 216.414C78.7159 216.832 76.8645 216.047 75.9947 214.568C75.3356 213.447 73.511 214.033 72.9058 215.185C72.5237 215.913 72.4221 216.738 72.3201 217.566C72.2605 218.05 72.2007 218.536 72.0848 219.004C71.7705 220.273 70.6487 221.579 69.4286 221.207C68.4568 220.911 67.3233 221.306 66.7266 222.149C66.1298 222.993 66.1121 224.224 66.6843 225.085C67.3794 226.132 68.6352 226.452 69.8712 226.768C70.2241 226.858 70.5754 226.947 70.9116 227.053C71.4904 227.236 72.0829 227.511 72.4147 228.033C72.7465 228.554 72.6885 229.374 72.1597 229.677C71.2937 230.174 71.3648 231.64 72.1494 232.264C72.9339 232.888 74.0947 232.772 74.9515 232.258C75.8083 231.745 76.4301 230.91 77.029 230.097C77.9505 228.845 79.8928 228.567 81.1118 229.511C81.1054 228.419 81.7093 227.345 82.6325 226.806C83.5556 226.268 84.761 226.287 85.6678 226.854C86.4619 226.524 86.4094 225.293 85.9172 224.571C85.7172 224.278 85.471 224.019 85.2255 223.76C84.8671 223.382 84.5103 223.006 84.3014 222.529C83.909 221.633 84.128 220.625 84.3412 219.643ZM81.3516 225.987C81.505 226.529 81.4205 227.139 81.1256 227.616L81.2111 227.705C80.7016 227.98 80.0503 227.951 79.5654 227.632L80.0796 226.272C80.4663 226.056 80.9128 225.956 81.3516 225.987Z" fill="white"/>
<path fill-rule="evenodd" clip-rule="evenodd" d="M222.854 163.806C222.334 163.173 221.813 162.541 221.269 161.933C219.588 160.059 217.528 158.351 215.076 157.971C214.817 157.93 214.556 157.905 214.294 157.88C213.767 157.83 213.241 157.779 212.741 157.606C212.074 157.374 211.493 156.934 210.956 156.465C210.228 155.829 209.527 155.113 208.824 154.394C206.756 152.281 204.675 150.154 201.868 150.042C198.912 149.924 196.136 152.65 196.116 155.692C196.099 158.243 197.707 160.465 199.24 162.471L225.899 197.377L242.428 219.018C244.562 221.813 247.367 224.906 250.79 224.419C253.866 223.981 255.933 220.269 255.056 217.207C254.719 216.03 254.055 215.002 253.39 213.973C252.81 213.075 252.229 212.175 251.863 211.174C251.28 209.578 251.285 207.864 251.29 206.143C251.294 204.826 251.298 203.504 251.038 202.227C250.463 199.398 248.649 197.022 246.803 194.842C245.805 193.662 244.746 191.914 245.701 190.696C246.837 189.247 246.27 187.108 245.553 185.399C243.25 179.914 239.906 174.893 235.765 170.701C233.991 168.906 231.411 167.159 229.193 168.318C228.258 168.807 227.14 168.207 226.325 167.528C225.023 166.443 223.939 165.125 222.854 163.806ZM242.38 186.526C242.557 187.454 242.388 188.503 241.731 189.164C241.57 189.327 241.368 189.468 241.142 189.477C240.757 189.493 240.465 189.139 240.237 188.818L229.908 174.265C229.511 173.705 229.788 172.835 230.367 172.479C230.945 172.124 231.702 172.208 232.303 172.522C232.903 172.837 233.379 173.35 233.835 173.861C236.611 176.974 239.097 180.359 241.249 183.956C241.731 184.762 242.204 185.598 242.38 186.526Z" fill="white"/>
<path fill-rule="evenodd" clip-rule="evenodd" d="M200.989 240.484C201.355 239.236 201.268 237.903 201.177 236.604L195.907 161.078C196.975 162.263 197.175 163.993 197.321 165.598C199.475 189.227 201.269 212.889 202.703 236.575C202.873 239.373 202.976 242.41 201.417 244.715C200.371 246.261 198.715 247.246 197.062 248.066C191.015 251.068 184.35 252.517 177.705 253.542C159.589 256.338 141.041 256.169 122.977 253.045C119.402 252.427 115.775 251.667 112.624 249.832C109.472 247.997 106.824 244.9 106.352 241.218C102.42 210.561 100.219 179.672 99.7633 148.755C99.7303 146.515 99.6536 144.107 98.3435 142.314C97.579 141.267 96.4905 140.566 95.3983 139.863C94.4631 139.261 93.5251 138.658 92.7856 137.833C90.0204 134.751 91.0606 129.488 93.9619 126.54C96.8631 123.592 101.026 122.422 105.026 121.561C116.71 119.045 128.736 118.203 140.646 119.066C140.998 120.05 139.552 120.602 138.529 120.604C127.341 120.617 116.153 121.556 105.111 123.406C101.065 124.085 96.6534 125.121 94.2023 128.487C105.352 132.251 117.306 132.466 129.045 132.558C150.03 132.723 171.164 132.594 191.767 128.513C193.602 128.149 195.59 127.656 196.728 126.138C197.865 124.62 197.329 121.809 195.474 121.587C179.597 119.69 163.556 119.234 147.6 120.225C146.368 120.301 144.554 119.542 145.157 118.439C159.792 117.727 174.476 118.057 189.067 119.427C192.985 119.795 197.112 120.322 200.247 122.757C203.574 125.341 205.232 129.991 204.314 134.163C203.396 138.336 199.952 141.808 195.864 142.681L195.693 152.949C194.578 151.772 194.728 149.993 194.871 148.295C194.9 147.948 194.929 147.605 194.947 147.271C195.052 145.3 193.913 142.729 192.026 143.132C162.163 149.506 131.048 149.657 101.128 143.573C101.16 172.918 103.864 202.183 106.565 231.397C106.888 234.882 107.225 238.43 108.56 241.651C109.895 244.873 112.41 247.776 115.722 248.637C131.463 252.729 147.801 254.404 164.022 253.587C175.106 253.029 186.418 251.215 196.076 245.615C198.163 244.404 200.299 242.838 200.989 240.484ZM93.1441 129.743C92.16 133.317 94.1887 137.196 97.1232 139.376C100.058 141.556 103.721 142.388 107.286 143.062C135.969 148.487 165.63 146.942 194.254 141.203C196.435 140.765 198.723 140.249 200.38 138.731C202.216 137.048 202.949 134.367 202.801 131.848C202.653 129.329 201.729 126.929 200.694 124.639C199.213 128.353 194.764 129.588 190.902 130.261C165.284 134.726 139.143 135.453 113.191 134.087C110.24 133.931 107.285 133.748 104.369 133.26C100.495 132.612 96.7084 131.426 93.1441 129.743ZM109.085 229.434C108.521 228.928 107.872 228.347 107.161 228.539C106.887 230.424 109.048 231.594 110.818 232.119C113.159 232.814 115.613 233.451 118.007 232.988C118.871 232.822 119.731 232.499 120.385 231.892C121.854 230.529 121.902 228.204 121.835 226.163C121.233 207.854 120.248 189.559 118.88 171.294C118.662 168.374 118.262 165.107 116.039 163.296C115.125 162.551 113.999 162.15 112.897 161.762L105.221 159.059C104.184 158.694 102.83 158.418 102.167 159.321C101.755 159.882 101.82 160.662 101.904 161.362C104.367 181.946 105.741 202.67 106.017 223.41C106.055 226.271 108.486 228.57 111.097 229.506C113.933 230.522 117.021 230.356 120.017 230.177C116.785 232.428 112.111 232.138 109.162 229.503L109.085 229.434ZM119.844 227.733C117.818 229.175 115.123 228.986 112.703 228.534C111.27 228.266 109.74 227.86 108.812 226.698C107.854 225.5 107.781 223.814 107.748 222.258C107.298 201.456 105.839 180.677 103.378 160.027L111.28 162.827C113.156 163.491 115.157 164.25 116.297 165.93C117.286 167.384 117.437 169.257 117.556 171.032L119.083 193.849C119.838 205.13 120.593 216.453 119.844 227.733ZM153.475 234.245C151.067 233.581 148.591 233.172 146.101 233.025L145.974 233.017C144.155 232.91 142.103 232.79 140.98 231.337C140.448 230.649 140.228 229.769 140.031 228.916C136.115 211.999 135.742 194.464 135.388 177.084L135.218 168.713C135.206 168.133 135.184 167.519 134.874 167.034C134.564 166.548 133.855 166.282 133.415 166.647L134.126 195.349V195.349C134.176 197.357 134.226 199.366 134.341 201.371C134.867 210.594 136.754 219.672 138.635 228.708C139.114 231.006 140.085 233.792 142.366 234.062L153.809 235.417C153.903 235.428 154.001 235.439 154.092 235.411C154.654 235.234 154.043 234.401 153.475 234.245ZM194.924 220.45C195.037 223.72 195.065 227.282 193.133 229.885C195.991 227.975 196.197 223.837 196.097 220.339L195.215 189.697C194.984 181.683 194.739 173.569 192.582 165.863C192.189 164.459 191.698 163.014 190.666 162.008C189.634 161.002 187.908 160.601 186.777 161.488C184.52 163.258 181.521 163.318 178.629 163.377C178.18 163.386 177.735 163.395 177.295 163.41C174.016 163.524 170.202 164.503 168.956 167.618C168.19 169.534 168.65 171.699 169.082 173.729L169.111 173.867C171.474 184.991 171.795 196.393 172.115 207.802V207.802V207.802V207.802V207.803V207.803V207.803C172.262 213.008 172.408 218.214 172.748 223.396C172.951 226.475 173.268 229.692 174.921 232.27C175.248 232.781 175.639 233.272 176.166 233.556C176.665 233.826 177.243 233.888 177.805 233.935C180.842 234.189 183.972 234.126 186.829 233.039C189.685 231.951 192.246 229.701 193.132 226.71C193.673 224.884 193.567 222.933 193.464 221.027V221.027L193.461 220.966C192.901 210.628 192.765 200.266 193.052 189.917C193.063 189.528 193.075 189.138 193.086 188.747C193.311 180.972 193.543 172.932 190.392 165.89C189.971 164.949 189.458 163.995 188.613 163.428C188.569 163.398 188.524 163.369 188.478 163.339L188.477 163.339C188.148 163.125 187.791 162.893 187.763 162.509C188.429 162.015 189.414 162.252 190.018 162.824C190.621 163.396 190.929 164.217 191.195 165.015C192.232 168.135 192.917 171.379 193.231 174.66C193.4 176.432 193.462 178.212 193.523 179.991L194.924 220.45ZM170.683 166.362C171.867 164.955 173.88 164.743 175.688 164.63L185.252 164.031C186.211 163.97 187.256 163.934 188.037 164.508C188.572 164.902 188.897 165.524 189.173 166.137C191.388 171.057 191.627 176.641 191.736 182.06C192.04 197.169 191.625 212.292 190.492 227.359C190.37 228.983 189.123 230.335 187.683 231.02C186.242 231.704 184.622 231.844 183.04 231.974L178.622 232.338C178.076 232.383 177.499 232.422 177.008 232.173C176.289 231.807 175.972 230.946 175.741 230.157C173.353 222.009 173.343 213.467 173.333 204.905V204.904C173.328 200.423 173.323 195.937 172.977 191.498C172.48 185.12 171.274 178.826 170.071 172.547L170.071 172.547L170.051 172.443C169.654 170.368 169.335 167.962 170.683 166.362ZM214.04 238.917C214.867 239.76 215.929 240.366 217.071 240.644C218.048 240.882 218.676 242.074 218.327 243.029C218.355 243.166 218.143 243.24 218.031 243.157C217.935 243.085 217.897 242.964 217.86 242.847L217.848 242.807L217.842 242.79C217.566 241.95 216.664 241.529 215.861 241.178C214.724 240.681 213.562 240.104 212.805 239.111C212.048 238.118 211.83 236.595 212.631 235.638C213.155 235.011 213.981 234.752 214.761 234.524C215.799 234.219 216.889 233.911 217.948 234.136L218.189 234.623C218.69 234.937 219.394 234.871 219.829 234.469C220.313 234.021 221.05 234.055 221.703 234.116L225.227 234.445C225.399 234.461 225.58 234.481 225.72 234.583C226.137 234.886 225.804 235.619 225.311 235.763C224.956 235.868 224.587 235.796 224.219 235.725C224.075 235.697 223.932 235.669 223.789 235.652C223.612 235.63 223.427 235.626 223.262 235.695C222.769 235.902 222.738 236.603 222.891 237.121C222.918 237.21 222.948 237.3 222.977 237.391C223.12 237.827 223.267 238.277 223.103 238.692C222.645 238.902 222.112 238.474 221.975 237.985C221.87 237.614 221.914 237.224 221.957 236.836C221.971 236.714 221.985 236.591 221.994 236.469C222.031 235.962 221.952 235.383 221.547 235.082C219.91 235.873 218.062 236.211 216.255 236.048C216.112 236.035 215.968 236.019 215.825 236.003C215.368 235.952 214.91 235.901 214.454 235.95C213.855 236.013 213.239 236.284 212.934 236.81C213.169 236.962 213.343 237.208 213.411 237.481L219.176 238.624C218.748 239.101 218.022 239.106 217.386 239.076L214.04 238.917ZM162.118 223.29C160.952 208.956 160.582 194.554 161.01 180.176L161.019 179.851V179.851C161.114 176.701 161.21 173.503 160.407 170.464C159.576 167.319 157.605 164.309 154.637 163.121C152.914 162.431 151.014 162.404 149.163 162.386C144.344 162.34 139.482 162.298 134.76 163.285C133.196 163.612 131.485 164.182 130.733 165.621C130.212 166.618 130.276 167.814 130.353 168.941L134.557 230.254C134.637 231.432 134.741 232.676 135.415 233.635C136.115 234.631 137.298 235.128 138.437 235.513C143.268 237.149 148.464 237.644 153.508 236.951C153.049 236.283 152.16 236.129 151.367 236.03L141.515 234.808C140.522 234.684 139.5 234.551 138.632 234.043C136.534 232.812 136.109 229.96 135.913 227.496C134.34 207.74 132.767 187.978 131.939 168.176C131.894 167.103 131.945 165.831 132.822 165.239C133.266 164.94 133.824 164.896 134.355 164.862L148.842 163.923C150.477 163.817 152.168 163.719 153.708 164.292C155.841 165.086 157.368 167.075 158.239 169.216C159.567 172.485 159.594 176.132 159.55 179.671C159.518 182.219 159.46 184.769 159.401 187.319V187.32V187.32V187.32V187.32C159.177 197.071 158.954 206.831 160.216 216.484C160.277 216.952 160.341 217.424 160.406 217.898C161.157 223.44 161.959 229.355 159.042 233.995L158.993 234.073C158.774 234.418 158.547 234.777 158.536 235.184C158.525 235.622 158.908 236.097 159.322 235.981C159.484 235.935 159.612 235.812 159.73 235.688C162.7 232.569 162.471 227.627 162.118 223.29ZM139.665 126.763C141.553 126.839 143.558 127.306 144.858 128.759C145.111 129.042 145.337 129.36 145.562 129.678C146.031 130.34 146.497 130.997 147.2 131.319C146.123 130.922 144.947 130.831 143.828 131.059C143.439 131.138 143.057 131.254 142.675 131.371L142.675 131.371C142.072 131.555 141.47 131.738 140.846 131.773L142.092 130.65C142.538 130.248 143.043 129.823 143.627 129.843C143.723 128.823 142.955 127.853 142.021 127.586C141.088 127.319 140.067 127.657 139.299 128.28C138.531 128.903 137.983 129.781 137.528 130.685C137.347 131.045 137.1 131.465 136.715 131.46C136.396 131.295 136.409 130.798 136.564 130.46C136.609 130.362 136.661 130.267 136.714 130.172L136.714 130.171L136.714 130.171L136.714 130.171C136.844 129.937 136.974 129.702 136.983 129.435C137.004 128.753 136.272 128.364 135.661 128.148C135.052 127.933 134.314 127.741 133.824 128.179C133.467 128.498 133.384 129.037 133.325 129.527L133.124 131.194C132.077 131.572 130.922 131.606 129.857 131.291C131.118 130.484 132.504 129.489 132.737 127.949C134.943 127.075 137.312 126.669 139.665 126.763ZM84.4671 219.04C84.6897 217.876 84.5574 216.397 83.5131 215.896C82.7898 215.548 82.0056 215.836 81.2219 216.124C80.9286 216.232 80.6353 216.34 80.3454 216.414C78.7159 216.832 76.8645 216.047 75.9947 214.568C75.3356 213.447 73.511 214.033 72.9058 215.185C72.5237 215.913 72.4221 216.738 72.3201 217.566C72.2605 218.05 72.2007 218.536 72.0848 219.004C71.7705 220.273 70.6487 221.579 69.4286 221.207C68.4568 220.911 67.3233 221.306 66.7266 222.149C66.1298 222.993 66.1121 224.224 66.6843 225.085C67.3794 226.132 68.6352 226.452 69.8712 226.768C70.2241 226.858 70.5754 226.947 70.9116 227.053C71.4904 227.236 72.0829 227.511 72.4147 228.033C72.7465 228.554 72.6885 229.374 72.1597 229.677C71.2937 230.174 71.3648 231.64 72.1494 232.264C72.9339 232.888 74.0947 232.772 74.9515 232.258C75.8083 231.745 76.4301 230.91 77.029 230.097C77.9505 228.845 79.8928 228.567 81.1118 229.511C81.1054 228.419 81.7093 227.345 82.6325 226.806C83.5556 226.268 84.761 226.287 85.6678 226.854C86.4619 226.524 86.4094 225.293 85.9172 224.571C85.7172 224.278 85.471 224.019 85.2255 223.76C84.8671 223.382 84.5103 223.006 84.3014 222.529C83.909 221.633 84.128 220.625 84.3412 219.643C84.3852 219.441 84.429 219.239 84.4671 219.04ZM81.7033 217.031C82.3392 216.881 83.0979 216.956 83.5061 217.48C84.0366 218.161 83.6872 218.989 83.3222 219.854C83.0244 220.56 82.7163 221.29 82.8674 221.985C82.987 222.536 83.3832 222.971 83.7635 223.376L85.5646 225.297C84.8019 226.025 83.7477 225.727 82.6659 225.422C81.693 225.147 80.6979 224.866 79.8725 225.319C79.2683 225.651 78.9211 226.3 78.5866 226.925C78.547 226.999 78.5076 227.072 78.468 227.145C77.4264 229.058 75.9007 230.688 74.083 231.831C73.8514 231.976 73.5951 232.119 73.325 232.092C72.6653 232.026 72.4991 231.092 72.6649 230.431C72.8603 229.653 73.2584 228.932 73.6531 228.216C74.223 227.183 74.7857 226.163 74.7208 225.004C74.0276 226.185 72.5199 226.635 71.193 226.442C69.8661 226.249 68.6715 225.538 67.5149 224.842C66.7163 224.36 67.0022 222.977 67.7985 222.492C68.5948 222.007 69.5939 222.138 70.5098 222.274C71.4256 222.41 72.434 222.516 73.2086 221.995C72.8269 220.249 72.9132 218.396 73.4557 216.695C73.6514 216.081 73.9367 215.448 74.4746 215.115C75.0124 214.783 75.854 214.918 76.0774 215.522C76.6316 217.019 78.317 217.97 79.841 217.645C80.1721 217.574 80.4894 217.452 80.8068 217.33L80.8069 217.33C81.1019 217.217 81.397 217.103 81.7033 217.031ZM81.3516 225.987C81.505 226.529 81.4205 227.139 81.1256 227.616L81.2111 227.705C80.7016 227.98 80.0503 227.951 79.5654 227.632L80.0796 226.272C80.4663 226.056 80.9128 225.956 81.3516 225.987ZM221.633 249.537C219.989 246.819 218.916 243.748 218.508 240.589C219.637 240.885 220.22 242.156 220.406 243.32C220.459 243.646 220.493 243.977 220.527 244.308V244.309C220.615 245.162 220.704 246.015 221.097 246.766C221.642 247.808 223.115 248.486 223.989 247.704C224.206 247.51 224.37 247.244 224.531 246.983C224.794 246.556 225.049 246.141 225.517 246.069C226.097 245.98 226.569 246.509 226.92 246.984L229.071 249.901C229.635 249.729 229.672 249.114 229.711 248.463C229.735 248.063 229.76 247.648 229.909 247.315C230.253 246.544 231.102 246.42 231.986 246.29C232.607 246.199 233.245 246.105 233.739 245.784C234.626 245.207 234.864 243.936 234.534 242.923C234.204 241.91 233.433 241.111 232.635 240.414C231.478 239.404 231.681 237.763 231.887 236.103C232.084 234.511 232.284 232.902 231.288 231.814C229.898 230.295 227.425 231.104 225.586 232.012L224.804 231.092C226.304 230.53 226.576 228.28 225.598 227C224.62 225.72 222.891 225.281 221.29 225.274C221.058 225.272 220.807 225.286 220.628 225.435C220.073 225.9 220.857 226.717 221.526 226.987L224.797 228.305C224.041 228.831 223.043 228.52 222.075 228.217C221.024 227.889 220.007 227.572 219.372 228.347C218.659 229.218 219.411 230.574 220.379 231.141C220.753 231.36 221.159 231.525 221.564 231.69C222.207 231.951 222.847 232.211 223.349 232.684C222.698 233.02 221.958 232.775 221.237 232.536L221.237 232.536C221.054 232.476 220.872 232.416 220.694 232.366C219.811 232.118 218.532 232.427 218.544 233.353C217.637 232.324 217.876 230.744 218.171 229.399C218.503 227.892 218.861 226.33 219.804 225.116C220.748 223.901 222.457 223.147 223.845 223.793C225.028 224.343 225.582 225.643 226.11 226.881C226.192 227.072 226.272 227.261 226.355 227.447C226.972 228.832 228.2 230.3 229.671 229.986C231.006 229.702 232.342 230.723 232.9 231.981C233.459 233.239 233.427 234.673 233.384 236.051C233.342 237.432 233.953 238.698 234.562 239.96C234.767 240.385 234.971 240.809 235.15 241.236C235.863 242.936 236.052 245.221 234.6 246.341C234.108 246.72 233.509 246.895 232.908 247.071L232.908 247.071C232.631 247.152 232.355 247.233 232.088 247.334C231.241 247.654 230.386 248.369 230.457 249.279C230.467 249.399 230.492 249.518 230.517 249.636C230.56 249.837 230.603 250.037 230.567 250.236C230.465 250.801 229.757 251.069 229.212 250.909C228.667 250.749 228.258 250.302 227.88 249.875L225.475 247.164C224.804 248.621 223.223 249.598 221.633 249.537ZM221.269 161.933C219.588 160.059 217.528 158.351 215.076 157.971C214.817 157.93 214.556 157.905 214.294 157.88C213.767 157.83 213.241 157.779 212.741 157.606C212.073 157.374 211.493 156.934 210.956 156.465C210.228 155.829 209.527 155.113 208.824 154.394C206.756 152.281 204.675 150.154 201.868 150.042C198.912 149.924 196.136 152.65 196.116 155.692C196.099 158.243 197.707 160.465 199.24 162.471L225.899 197.377L242.428 219.018C244.562 221.813 247.367 224.906 250.79 224.419C253.866 223.981 255.933 220.269 255.056 217.207C254.719 216.03 254.055 215.002 253.39 213.973C252.81 213.075 252.229 212.175 251.863 211.174C251.28 209.578 251.285 207.864 251.29 206.143C251.294 204.826 251.298 203.504 251.038 202.227C250.463 199.398 248.649 197.022 246.803 194.842C245.805 193.662 244.746 191.914 245.701 190.696C246.837 189.247 246.27 187.108 245.553 185.399C243.25 179.914 239.906 174.893 235.765 170.701C233.991 168.906 231.411 167.159 229.193 168.318C228.258 168.807 227.14 168.207 226.325 167.528C225.023 166.443 223.939 165.125 222.854 163.806C222.334 163.173 221.813 162.541 221.269 161.933ZM198.769 152.749C199.866 151.647 201.523 151.17 203.016 151.528C204.723 151.937 206.045 153.295 207.199 154.651C210.244 158.229 212.813 162.198 215.376 166.159C215.662 166.602 215.948 167.044 216.235 167.485C227.015 184.086 238.806 199.993 251.515 215.083C252.758 216.559 254.099 218.38 253.613 220.268C253.063 222.405 250.321 223.234 248.301 222.477C246.28 221.721 244.843 219.904 243.512 218.168L199.547 160.839C198.674 159.7 197.775 158.505 197.486 157.086C197.172 155.543 197.672 153.851 198.769 152.749ZM234.407 186.217C233.522 185.042 232.574 183.886 231.371 183.061C230.791 182.663 230.136 182.32 229.482 181.977C227.807 181.099 226.136 180.223 225.727 178.436C225.597 177.869 225.627 177.284 225.656 176.699C225.679 176.242 225.702 175.784 225.649 175.332C225.563 174.59 225.275 173.89 224.963 173.216C222.589 168.1 218.511 163.84 213.573 161.318C212.755 160.9 213.262 159.442 214.159 159.261C215.056 159.08 215.911 159.677 216.625 160.263C223.685 166.063 228.845 173.725 234.021 181.411C237.179 186.102 240.343 190.801 243.949 195.09C244.295 195.502 244.647 195.913 245 196.324C246.961 198.611 248.938 200.916 250.115 203.698C248.568 203.982 247.228 205.231 246.802 206.785C244.225 204.291 242.668 200.966 241.119 197.659C240.722 196.811 240.326 195.964 239.913 195.133C238.353 191.994 236.507 189.004 234.407 186.217ZM241.731 189.164C241.57 189.327 241.368 189.468 241.142 189.477C240.756 189.493 240.464 189.139 240.237 188.818L229.908 174.265C229.511 173.705 229.788 172.835 230.366 172.479C230.945 172.124 231.702 172.208 232.303 172.522C232.903 172.837 233.379 173.35 233.835 173.861C236.61 176.974 239.097 180.359 241.249 183.956C241.731 184.761 242.204 185.598 242.38 186.526C242.557 187.454 242.388 188.503 241.731 189.164ZM243.243 187.738C243.429 186.991 243.115 186.217 242.79 185.521C240.452 180.518 237.171 175.983 233.182 172.243C232.536 171.637 231.696 171.011 230.866 171.291C230.559 171.395 230.31 171.609 230.059 171.823C229.914 171.948 229.767 172.074 229.609 172.178C229.179 172.461 228.496 172.519 228.251 172.058C228.062 171.702 228.26 171.255 228.523 170.953C229.431 169.91 231.03 169.767 232.307 170.251C233.584 170.735 234.611 171.725 235.574 172.713C239.047 176.274 242.285 180.284 243.802 185.079C244.479 187.219 244.694 189.845 243.171 191.463C243.045 191.597 242.903 191.725 242.732 191.786C242.188 191.982 241.62 191.386 241.607 190.794C241.594 190.202 241.949 189.673 242.319 189.219C242.358 189.171 242.398 189.122 242.438 189.074C242.773 188.667 243.116 188.251 243.243 187.738ZM220.828 167.934C222.234 170.035 223.456 172.266 224.474 174.592C224.614 174.911 224.743 175.31 224.535 175.587C224.384 175.789 224.07 175.834 223.871 175.682C220.941 172.024 218.3 168.121 215.984 164.024C216.191 164.101 216.496 163.988 216.477 163.762C218.341 164.542 219.687 166.229 220.828 167.934ZM231.097 185.671C230.839 185.286 230.62 184.673 231.01 184.433C232.728 185.231 233.903 186.878 234.974 188.473C236.535 190.798 238.044 193.16 239.498 195.557C239.847 196.131 240.147 196.992 239.612 197.386C238.7 196.962 238.087 196.076 237.517 195.229L231.097 185.671ZM248.168 207.466C248.031 207.405 247.935 207.273 247.87 207.134C247.48 206.297 248.331 205.177 249.216 205.363C249.254 206.178 249.033 207.004 248.594 207.685C248.549 207.577 248.434 207.546 248.317 207.514C248.265 207.5 248.214 207.486 248.168 207.466ZM250.17 209.43C249.9 209.731 249.374 209.731 249.105 209.428C248.82 208.661 249.164 207.703 249.866 207.311L250.17 209.43Z" fill="#2EB875"/>
</svg>
